<svg width="524" height="668" viewBox="0 0 524 668" fill="none" xmlns="http://www.w3.org/2000/svg">
<mask id="path-1-outside-1_228_336" maskUnits="userSpaceOnUse" x="0.235352" y="0.356445" width="523" height="668" fill="black">
<rect fill="white" x="0.235352" y="0.356445" width="523" height="668"/>
<path d="M511.072 180.929L510.253 166.315L507.759 150.078C503.515 129.339 495.465 109.533 484.239 91.8332C461.953 56.221 426.32 30.2457 387.609 18.9587L380.347 16.8893L372.964 15.487C368.045 14.5698 363.163 13.5617 358.206 13.3115L350.823 12.69L344.638 12.378C345.214 12.3704 345.888 12.3564 345.888 12.3564L345.472 12.364L344.638 12.378L342.963 12.4247C338.506 12.5384 334.079 12.6521 329.667 12.7658C309.201 14.3955 291.153 19.1328 274.182 26.3947C240.382 41.0549 214.103 65.7039 197.737 92.6215C181.137 119.577 173.913 148.364 173.413 173.478C173.406 176.616 173.398 179.708 173.39 182.748C173.413 184.325 173.33 185.636 173.451 187.38L173.754 191.586C174.194 197.347 174.982 203.176 175.937 208.376C177.984 218.973 180.948 228.418 184.169 236.665C187.383 244.776 190.809 251.711 194.144 257.571C192.848 256.942 191.59 256.267 190.248 255.706C180.713 251.09 170.305 248.202 158.268 246.299C155.297 245.769 153.106 245.746 150.461 245.443L146.633 245.086L144.708 244.904L143.692 244.867L143.419 244.874L142.873 244.889L141.782 244.92C135.975 245.147 130.056 245.048 124.151 246.079C112.22 247.247 100.44 251.12 88.9871 255.888C77.6019 260.967 66.9672 267.993 57.2723 276.255C47.6609 284.662 39.4593 294.713 32.4706 305.552C25.6789 316.559 20.6003 328.588 16.9467 341.019C13.5357 353.155 12.088 368.004 12.2471 378.821C12.2244 380.148 12.2547 379.359 12.2547 379.738L12.2775 380.041L12.3153 380.648L12.3987 381.853L12.5655 384.263L12.9142 389.084C13.0354 392.306 13.6343 395.474 14.2028 398.643C15.0745 405.025 16.9467 411.18 18.7053 417.328C22.8667 429.418 28.4608 440.916 35.6163 451.241C42.9537 461.421 51.3978 470.607 60.9183 478.286C70.5904 485.73 80.8765 492.142 91.8371 496.592C102.881 500.951 113.766 504.225 125.47 505.4C131.45 506.378 136.4 506.173 141.623 506.378C147.656 506.294 152.674 505.734 158.079 505.097C179.25 501.928 197.942 493.257 212.571 482.417C227.201 471.426 237.828 458.381 245.37 445.995C253.056 433.617 257.255 421.558 260.022 411.62C261.311 406.594 262.433 402.115 262.925 398.074C263.623 394.072 264.138 390.669 264.176 387.932C264.51 382.452 264.684 379.526 264.684 379.526V379.45C264.684 379.45 264.616 376.479 264.487 370.915C264.54 368.11 264.146 364.707 263.676 360.674C263.395 356.604 262.501 352.041 261.462 346.879C259.173 336.676 255.542 324.154 248.326 310.964C241.239 297.782 230.885 283.593 215.937 271.45C212.647 268.986 209.198 266.508 205.598 264.135C201.868 256.449 197.51 246.337 194.326 233.421C192.31 225.393 190.802 216.358 190.104 206.527C189.725 201.516 189.566 196.643 189.695 191.276L189.824 187.061C189.862 185.977 190.089 184.439 190.21 183.135C190.498 180.421 190.794 177.662 191.09 174.85C191.272 172.037 191.764 169.225 192.454 166.398C193.023 163.563 193.606 160.69 194.19 157.78C195.607 152.019 197.555 146.213 199.541 140.323C202.164 134.645 204.12 128.543 207.576 122.972C209.198 120.145 210.631 117.188 212.352 114.346C214.209 111.594 216.089 108.813 217.984 106C225.988 95.1226 235.296 84.3898 246.909 75.6953C258.279 66.8491 270.998 58.7313 285.362 53.5236C299.537 48.2174 315.356 44.8445 330.099 43.806C334.511 43.7984 338.945 43.7909 343.395 43.7833H345.07L345.805 43.7757C345.843 43.7757 345.82 43.7757 345.904 43.7833L348.913 44.0637L354.947 44.6095C359.002 44.7839 362.981 45.6783 366.991 46.4439L373.025 47.5809L378.937 49.3319C410.751 57.8597 440.487 78.6657 460.544 107.486C470.557 121.866 478.023 138.321 482.139 155.627L484.595 168.194L485.906 182.771L485.929 188.873C485.891 191.094 486.043 193.322 485.762 195.543C485.376 199.993 485.148 204.465 484.277 208.914C481.517 226.758 475.234 244.343 467.259 261.353C459.361 278.416 449.818 294.962 440.078 311.48C420.074 344.75 402.359 378.183 384.365 410.104C366.582 442.153 349.39 473.131 333.093 502.512C331.07 506.196 329.061 509.849 327.067 513.473L324.088 518.908L321.178 524.843C317.623 532.84 314.848 541.094 313.673 549.478C312.37 557.816 311.998 566.177 312.953 574.242C313.704 582.323 315.561 590.129 318.335 597.391C323.717 612.074 332.57 624.346 343.417 633.738C346.116 636.323 348.784 637.96 351.422 639.946C354.401 642.106 357.289 643.486 360.162 645.237C363.057 646.844 366.135 647.996 369.038 649.353C372.009 650.573 375.079 651.384 378.02 652.385C402.231 659.131 424.622 654.371 440.404 647.025C456.314 639.248 466.16 629.152 471.914 621.769C474.968 618.092 476.674 615.061 477.924 613.052C479.168 611.035 479.812 609.997 479.812 609.997C480.236 609.307 480.047 608.398 479.372 607.943C478.675 607.473 477.735 607.662 477.265 608.352C477.265 608.352 476.583 609.368 475.264 611.331C473.945 613.294 472.058 616.319 469.094 619.578C463.424 626.31 453.555 635.648 438.311 642.364C423.159 648.716 402.079 652.248 380.188 645.191C377.535 644.153 374.761 643.319 372.093 642.098C369.493 640.742 366.733 639.605 364.156 638.036C361.7 636.391 358.828 634.837 356.614 633.078C354.128 631.054 351.248 629.068 349.239 626.878C340.226 618.426 332.517 606.958 328.356 593.859C326.143 587.348 324.778 580.397 324.407 573.272C323.831 566.161 324.46 558.862 325.877 551.661C327.166 544.407 329.879 537.373 333.192 530.619L335.883 525.616L339.066 520.318C341.204 516.77 343.349 513.192 345.517 509.592C362.724 480.734 380.87 450.302 399.646 418.821C418.573 387.423 437.311 354.429 457.928 322.312C468.199 305.984 478.584 289.18 487.589 271.147C496.64 253.196 504.326 233.846 508.191 213.099C509.351 207.967 509.844 202.676 510.458 197.416C510.852 194.793 510.807 192.117 510.935 189.464L511.072 185.469L511.132 183.476L511.163 182.475L511.072 180.929ZM238.882 317.157C247.667 327.739 252.738 338.95 256.028 348.38C256.801 350.775 257.536 353.034 258.226 355.164C258.802 357.324 259.105 359.408 259.514 361.319C260.341 365.154 260.917 368.444 260.992 371.158C261.417 376.54 261.644 379.435 261.644 379.435C261.637 379.609 261.523 382.459 261.303 387.788C261.318 390.57 260.871 393.867 260.265 397.726C259.954 399.659 259.764 401.758 259.302 403.964C258.726 406.147 258.112 408.466 257.46 410.922C254.648 420.61 250.138 432.29 241.83 443.683C233.682 455.084 222.236 466.401 207.607 475.027C192.97 483.608 175.354 489.361 156.472 490.983C151.871 491.225 146.656 491.309 142.381 491.157C137.302 490.717 131.738 490.596 127.312 489.505C117.988 488.148 108.096 484.692 98.9472 480.53C89.692 476.247 81.1721 470.274 73.2434 463.581C65.4587 456.645 58.7277 448.505 52.9669 439.696C47.388 430.736 43.2493 420.936 40.2704 410.809C39.1107 405.647 37.7614 400.538 37.3369 395.255C36.9958 392.639 36.6017 390.032 36.6623 387.371L36.5714 383.414L36.5183 381.436L36.488 380.451L36.4728 379.958L36.4652 379.776C37.1778 367.337 38.762 358.833 42.0138 348.645C45.5006 338.859 50.1471 329.589 56.0899 321.311C62.1918 313.155 69.1729 305.878 76.8666 299.678C84.7802 293.803 92.9438 288.444 101.775 284.783C110.514 281.038 119.504 278.173 128.608 276.816C133.11 275.778 137.696 275.763 142.199 275.338L143.048 275.27L143.472 275.232L143.684 275.217C143.919 275.209 146.243 275.209 147.008 275.225L145.087 275.209L148.93 275.24C151.37 275.316 154.274 275.164 156.282 275.414C160.398 276.005 164.287 275.998 168.638 277.029C170.783 277.4 172.905 277.764 175.02 278.128C177.089 278.696 179.136 279.265 181.167 279.826C189.339 282.092 197.01 285.283 204.226 288.914C218.56 296.381 230.271 306.553 238.882 317.157Z"/>
</mask>
<path d="M511.072 180.929L510.253 166.315L507.759 150.078C503.515 129.339 495.465 109.533 484.239 91.8332C461.953 56.221 426.32 30.2457 387.609 18.9587L380.347 16.8893L372.964 15.487C368.045 14.5698 363.163 13.5617 358.206 13.3115L350.823 12.69L344.638 12.378C345.214 12.3704 345.888 12.3564 345.888 12.3564L345.472 12.364L344.638 12.378L342.963 12.4247C338.506 12.5384 334.079 12.6521 329.667 12.7658C309.201 14.3955 291.153 19.1328 274.182 26.3947C240.382 41.0549 214.103 65.7039 197.737 92.6215C181.137 119.577 173.913 148.364 173.413 173.478C173.406 176.616 173.398 179.708 173.39 182.748C173.413 184.325 173.33 185.636 173.451 187.38L173.754 191.586C174.194 197.347 174.982 203.176 175.937 208.376C177.984 218.973 180.948 228.418 184.169 236.665C187.383 244.776 190.809 251.711 194.144 257.571C192.848 256.942 191.59 256.267 190.248 255.706C180.713 251.09 170.305 248.202 158.268 246.299C155.297 245.769 153.106 245.746 150.461 245.443L146.633 245.086L144.708 244.904L143.692 244.867L143.419 244.874L142.873 244.889L141.782 244.92C135.975 245.147 130.056 245.048 124.151 246.079C112.22 247.247 100.44 251.12 88.9871 255.888C77.6019 260.967 66.9672 267.993 57.2723 276.255C47.6609 284.662 39.4593 294.713 32.4706 305.552C25.6789 316.559 20.6003 328.588 16.9467 341.019C13.5357 353.155 12.088 368.004 12.2471 378.821C12.2244 380.148 12.2547 379.359 12.2547 379.738L12.2775 380.041L12.3153 380.648L12.3987 381.853L12.5655 384.263L12.9142 389.084C13.0354 392.306 13.6343 395.474 14.2028 398.643C15.0745 405.025 16.9467 411.18 18.7053 417.328C22.8667 429.418 28.4608 440.916 35.6163 451.241C42.9537 461.421 51.3978 470.607 60.9183 478.286C70.5904 485.73 80.8765 492.142 91.8371 496.592C102.881 500.951 113.766 504.225 125.47 505.4C131.45 506.378 136.4 506.173 141.623 506.378C147.656 506.294 152.674 505.734 158.079 505.097C179.25 501.928 197.942 493.257 212.571 482.417C227.201 471.426 237.828 458.381 245.37 445.995C253.056 433.617 257.255 421.558 260.022 411.62C261.311 406.594 262.433 402.115 262.925 398.074C263.623 394.072 264.138 390.669 264.176 387.932C264.51 382.452 264.684 379.526 264.684 379.526V379.45C264.684 379.45 264.616 376.479 264.487 370.915C264.54 368.11 264.146 364.707 263.676 360.674C263.395 356.604 262.501 352.041 261.462 346.879C259.173 336.676 255.542 324.154 248.326 310.964C241.239 297.782 230.885 283.593 215.937 271.45C212.647 268.986 209.198 266.508 205.598 264.135C201.868 256.449 197.51 246.337 194.326 233.421C192.31 225.393 190.802 216.358 190.104 206.527C189.725 201.516 189.566 196.643 189.695 191.276L189.824 187.061C189.862 185.977 190.089 184.439 190.21 183.135C190.498 180.421 190.794 177.662 191.09 174.85C191.272 172.037 191.764 169.225 192.454 166.398C193.023 163.563 193.606 160.69 194.19 157.78C195.607 152.019 197.555 146.213 199.541 140.323C202.164 134.645 204.12 128.543 207.576 122.972C209.198 120.145 210.631 117.188 212.352 114.346C214.209 111.594 216.089 108.813 217.984 106C225.988 95.1226 235.296 84.3898 246.909 75.6953C258.279 66.8491 270.998 58.7313 285.362 53.5236C299.537 48.2174 315.356 44.8445 330.099 43.806C334.511 43.7984 338.945 43.7909 343.395 43.7833H345.07L345.805 43.7757C345.843 43.7757 345.82 43.7757 345.904 43.7833L348.913 44.0637L354.947 44.6095C359.002 44.7839 362.981 45.6783 366.991 46.4439L373.025 47.5809L378.937 49.3319C410.751 57.8597 440.487 78.6657 460.544 107.486C470.557 121.866 478.023 138.321 482.139 155.627L484.595 168.194L485.906 182.771L485.929 188.873C485.891 191.094 486.043 193.322 485.762 195.543C485.376 199.993 485.148 204.465 484.277 208.914C481.517 226.758 475.234 244.343 467.259 261.353C459.361 278.416 449.818 294.962 440.078 311.48C420.074 344.75 402.359 378.183 384.365 410.104C366.582 442.153 349.39 473.131 333.093 502.512C331.07 506.196 329.061 509.849 327.067 513.473L324.088 518.908L321.178 524.843C317.623 532.84 314.848 541.094 313.673 549.478C312.37 557.816 311.998 566.177 312.953 574.242C313.704 582.323 315.561 590.129 318.335 597.391C323.717 612.074 332.57 624.346 343.417 633.738C346.116 636.323 348.784 637.96 351.422 639.946C354.401 642.106 357.289 643.486 360.162 645.237C363.057 646.844 366.135 647.996 369.038 649.353C372.009 650.573 375.079 651.384 378.02 652.385C402.231 659.131 424.622 654.371 440.404 647.025C456.314 639.248 466.16 629.152 471.914 621.769C474.968 618.092 476.674 615.061 477.924 613.052C479.168 611.035 479.812 609.997 479.812 609.997C480.236 609.307 480.047 608.398 479.372 607.943C478.675 607.473 477.735 607.662 477.265 608.352C477.265 608.352 476.583 609.368 475.264 611.331C473.945 613.294 472.058 616.319 469.094 619.578C463.424 626.31 453.555 635.648 438.311 642.364C423.159 648.716 402.079 652.248 380.188 645.191C377.535 644.153 374.761 643.319 372.093 642.098C369.493 640.742 366.733 639.605 364.156 638.036C361.7 636.391 358.828 634.837 356.614 633.078C354.128 631.054 351.248 629.068 349.239 626.878C340.226 618.426 332.517 606.958 328.356 593.859C326.143 587.348 324.778 580.397 324.407 573.272C323.831 566.161 324.46 558.862 325.877 551.661C327.166 544.407 329.879 537.373 333.192 530.619L335.883 525.616L339.066 520.318C341.204 516.77 343.349 513.192 345.517 509.592C362.724 480.734 380.87 450.302 399.646 418.821C418.573 387.423 437.311 354.429 457.928 322.312C468.199 305.984 478.584 289.18 487.589 271.147C496.64 253.196 504.326 233.846 508.191 213.099C509.351 207.967 509.844 202.676 510.458 197.416C510.852 194.793 510.807 192.117 510.935 189.464L511.072 185.469L511.132 183.476L511.163 182.475L511.072 180.929ZM238.882 317.157C247.667 327.739 252.738 338.95 256.028 348.38C256.801 350.775 257.536 353.034 258.226 355.164C258.802 357.324 259.105 359.408 259.514 361.319C260.341 365.154 260.917 368.444 260.992 371.158C261.417 376.54 261.644 379.435 261.644 379.435C261.637 379.609 261.523 382.459 261.303 387.788C261.318 390.57 260.871 393.867 260.265 397.726C259.954 399.659 259.764 401.758 259.302 403.964C258.726 406.147 258.112 408.466 257.46 410.922C254.648 420.61 250.138 432.29 241.83 443.683C233.682 455.084 222.236 466.401 207.607 475.027C192.97 483.608 175.354 489.361 156.472 490.983C151.871 491.225 146.656 491.309 142.381 491.157C137.302 490.717 131.738 490.596 127.312 489.505C117.988 488.148 108.096 484.692 98.9472 480.53C89.692 476.247 81.1721 470.274 73.2434 463.581C65.4587 456.645 58.7277 448.505 52.9669 439.696C47.388 430.736 43.2493 420.936 40.2704 410.809C39.1107 405.647 37.7614 400.538 37.3369 395.255C36.9958 392.639 36.6017 390.032 36.6623 387.371L36.5714 383.414L36.5183 381.436L36.488 380.451L36.4728 379.958L36.4652 379.776C37.1778 367.337 38.762 358.833 42.0138 348.645C45.5006 338.859 50.1471 329.589 56.0899 321.311C62.1918 313.155 69.1729 305.878 76.8666 299.678C84.7802 293.803 92.9438 288.444 101.775 284.783C110.514 281.038 119.504 278.173 128.608 276.816C133.11 275.778 137.696 275.763 142.199 275.338L143.048 275.27L143.472 275.232L143.684 275.217C143.919 275.209 146.243 275.209 147.008 275.225L145.087 275.209L148.93 275.24C151.37 275.316 154.274 275.164 156.282 275.414C160.398 276.005 164.287 275.998 168.638 277.029C170.783 277.4 172.905 277.764 175.02 278.128C177.089 278.696 179.136 279.265 181.167 279.826C189.339 282.092 197.01 285.283 204.226 288.914C218.56 296.381 230.271 306.553 238.882 317.157Z" fill="#9575EA"/>
<path d="M511.072 180.929L499.247 181.591L499.248 181.608L499.249 181.624L511.072 180.929ZM510.253 166.315L522.078 165.652L522.046 165.082L521.96 164.517L510.253 166.315ZM507.759 150.078L519.466 148.28L519.421 147.99L519.363 147.703L507.759 150.078ZM484.239 91.8332L474.199 98.1159L474.218 98.1463L474.237 98.1766L484.239 91.8332ZM387.609 18.9587L390.924 7.58837L390.889 7.57826L390.855 7.56837L387.609 18.9587ZM380.347 16.8893L383.593 5.49902L383.081 5.35301L382.557 5.25359L380.347 16.8893ZM372.964 15.487L375.174 3.85128L375.155 3.84756L375.135 3.8439L372.964 15.487ZM358.206 13.3115L357.212 25.1135L357.41 25.1302L357.609 25.1402L358.206 13.3115ZM350.823 12.69L351.817 0.887969L351.618 0.871276L351.42 0.861253L350.823 12.69ZM344.638 12.378L344.439 0.535928L344.374 0.537027L344.308 0.538853L344.638 12.378ZM345.888 12.3564L346.134 24.1977L345.673 0.514652L345.888 12.3564ZM345.472 12.364L345.67 24.2061L345.679 24.206L345.687 24.2058L345.472 12.364ZM342.963 12.4247L343.265 24.2646L343.278 24.2642L343.292 24.2638L342.963 12.4247ZM329.667 12.7658L329.362 0.925948L329.044 0.934143L328.727 0.959392L329.667 12.7658ZM274.182 26.3947L269.522 15.5058L269.496 15.5174L269.469 15.529L274.182 26.3947ZM197.737 92.6215L207.822 98.8321L207.84 98.8032L207.857 98.7743L197.737 92.6215ZM173.413 173.478L161.572 173.242L161.57 173.346L161.569 173.449L173.413 173.478ZM173.39 182.748L161.547 182.719L161.546 182.819L161.548 182.919L173.39 182.748ZM173.451 187.38L161.636 188.201L161.637 188.216L161.638 188.231L173.451 187.38ZM173.754 191.586L161.941 192.438L161.943 192.463L161.945 192.488L173.754 191.586ZM175.937 208.376L164.288 210.516L164.298 210.569L164.308 210.622L175.937 208.376ZM184.169 236.665L173.137 240.974L173.148 241.001L173.158 241.028L184.169 236.665ZM194.144 257.571L188.973 268.226L223.329 284.902L204.438 251.712L194.144 257.571ZM190.248 255.706L185.087 266.366L185.38 266.508L185.68 266.633L190.248 255.706ZM158.268 246.299L156.186 257.958L156.302 257.979L156.419 257.998L158.268 246.299ZM150.461 245.443L151.81 233.676L151.684 233.662L151.558 233.65L150.461 245.443ZM146.633 245.086L145.519 256.878L145.527 256.878L145.535 256.879L146.633 245.086ZM144.708 244.904L145.822 233.113L145.486 233.082L145.149 233.069L144.708 244.904ZM143.692 244.867L144.133 233.031L143.748 233.017L143.363 233.027L143.692 244.867ZM143.419 244.874L143.748 256.713L143.419 244.874ZM142.873 244.889L142.545 233.05L142.544 233.05L142.873 244.889ZM141.782 244.92L141.453 233.08L141.385 233.082L141.318 233.085L141.782 244.92ZM124.151 246.079L125.304 257.867L125.748 257.823L126.188 257.747L124.151 246.079ZM88.9871 255.888L84.4352 244.954L84.2979 245.011L84.162 245.072L88.9871 255.888ZM57.2723 276.255L49.5899 267.241L49.5322 267.291L49.475 267.341L57.2723 276.255ZM32.4706 305.552L22.5164 299.135L22.4528 299.233L22.3913 299.333L32.4706 305.552ZM16.9467 341.019L5.58355 337.68L5.56376 337.747L5.54478 337.815L16.9467 341.019ZM12.2471 378.821L24.0891 379.024L24.0924 378.835L24.0896 378.647L12.2471 378.821ZM12.2547 379.738H0.41096V380.182L0.444137 380.624L12.2547 379.738ZM12.2775 380.041L24.0981 379.303L24.0935 379.229L24.088 379.155L12.2775 380.041ZM12.3153 380.648L0.494653 381.386L0.497118 381.426L0.499846 381.465L12.3153 380.648ZM12.3987 381.853L24.2142 381.036L24.2142 381.035L12.3987 381.853ZM12.5655 384.263L0.749983 385.081L0.751263 385.099L0.7526 385.118L12.5655 384.263ZM12.9142 389.084L24.7495 388.639L24.7418 388.434L24.7271 388.23L12.9142 389.084ZM14.2028 398.643L25.9376 397.04L25.9041 396.795L25.8604 396.551L14.2028 398.643ZM18.7053 417.328L7.31827 420.585L7.4044 420.886L7.50632 421.182L18.7053 417.328ZM35.6163 451.241L25.8819 457.987L25.9442 458.077L26.0081 458.166L35.6163 451.241ZM60.9183 478.286L53.4828 487.505L53.5878 487.59L53.6948 487.672L60.9183 478.286ZM91.8371 496.592L87.3821 507.566L87.4356 507.588L87.4892 507.609L91.8371 496.592ZM125.47 505.4L127.381 493.712L127.018 493.652L126.653 493.616L125.47 505.4ZM141.623 506.378L141.159 518.213L141.472 518.225L141.786 518.22L141.623 506.378ZM158.079 505.097L159.465 516.859L159.649 516.838L159.832 516.81L158.079 505.097ZM212.571 482.417L219.622 491.934L219.654 491.91L219.686 491.886L212.571 482.417ZM245.37 445.995L235.308 439.748L235.281 439.792L235.254 439.836L245.37 445.995ZM260.022 411.62L271.432 414.796L271.465 414.679L271.495 414.561L260.022 411.62ZM262.925 398.074L251.257 396.041L251.205 396.34L251.169 396.641L262.925 398.074ZM264.176 387.932L252.354 387.213L252.337 387.49L252.333 387.768L264.176 387.932ZM264.684 379.526L276.507 380.23L276.528 379.879V379.526H264.684ZM264.684 379.45H276.528V379.314L276.525 379.178L264.684 379.45ZM264.487 370.915L252.645 370.691L252.64 370.94L252.646 371.189L264.487 370.915ZM263.676 360.674L251.86 361.488L251.879 361.768L251.912 362.045L263.676 360.674ZM261.462 346.879L273.074 344.543L273.048 344.414L273.019 344.286L261.462 346.879ZM248.326 310.964L237.895 316.573L237.915 316.611L237.936 316.649L248.326 310.964ZM215.937 271.45L223.405 262.257L223.223 262.11L223.036 261.97L215.937 271.45ZM205.598 264.135L194.942 269.305L196.363 272.234L199.081 274.025L205.598 264.135ZM194.326 233.421L205.826 230.586L205.82 230.561L205.813 230.536L194.326 233.421ZM190.104 206.527L201.918 205.689L201.916 205.661L201.914 205.633L190.104 206.527ZM189.695 191.276L177.857 190.914L177.856 190.953L177.855 190.991L189.695 191.276ZM189.824 187.061L177.987 186.647L177.986 186.673L177.986 186.699L189.824 187.061ZM190.21 183.135L178.433 181.885L178.425 181.961L178.418 182.038L190.21 183.135ZM191.09 174.85L202.869 176.088L202.893 175.852L202.909 175.614L191.09 174.85ZM192.454 166.398L203.96 169.205L204.018 168.967L204.067 168.727L192.454 166.398ZM194.19 157.78L182.689 154.95L182.628 155.199L182.577 155.451L194.19 157.78ZM199.541 140.323L188.789 135.356L188.522 135.935L188.318 136.538L199.541 140.323ZM207.576 122.972L217.64 129.216L217.748 129.043L217.849 128.866L207.576 122.972ZM212.352 114.346L202.534 107.72L202.371 107.963L202.219 108.213L212.352 114.346ZM217.984 106L208.444 98.9806L208.299 99.1783L208.162 99.3819L217.984 106ZM246.909 75.6953L254.007 85.1761L254.095 85.1104L254.182 85.043L246.909 75.6953ZM285.362 53.5236L289.399 64.6582L289.457 64.6372L289.514 64.6157L285.362 53.5236ZM330.099 43.806L330.079 31.9623L329.673 31.963L329.267 31.9915L330.099 43.806ZM343.395 43.7833V31.9395H343.385L343.374 31.9396L343.395 43.7833ZM345.07 43.7833V55.627H345.131L345.192 55.6264L345.07 43.7833ZM345.805 43.7757V31.932H345.744L345.683 31.9326L345.805 43.7757ZM345.904 43.7833L347.003 31.9906L346.989 31.9894L346.976 31.9882L345.904 43.7833ZM348.913 44.0637L347.814 55.8564L347.83 55.8579L347.846 55.8593L348.913 44.0637ZM354.947 44.6095L353.88 56.4051L354.158 56.4303L354.438 56.4423L354.947 44.6095ZM366.991 46.4439L364.77 58.0775L364.784 58.0801L364.798 58.0828L366.991 46.4439ZM373.025 47.5809L376.388 36.2247L375.81 36.0536L375.218 35.942L373.025 47.5809ZM378.937 49.3319L375.574 60.6881L375.722 60.7318L375.871 60.7717L378.937 49.3319ZM460.544 107.486L450.822 114.251L450.824 114.254L460.544 107.486ZM482.139 155.627L493.763 153.355L493.717 153.12L493.661 152.886L482.139 155.627ZM484.595 168.194L496.391 167.133L496.336 166.524L496.219 165.923L484.595 168.194ZM485.906 182.771L497.75 182.727L497.748 182.217L497.702 181.71L485.906 182.771ZM485.929 188.873L497.771 189.075L497.773 188.952L497.773 188.829L485.929 188.873ZM485.762 195.543L474.012 194.059L473.983 194.288L473.963 194.518L485.762 195.543ZM484.277 208.914L472.654 206.637L472.608 206.87L472.572 207.105L484.277 208.914ZM467.259 261.353L456.536 256.326L456.523 256.352L456.511 256.378L467.259 261.353ZM440.078 311.48L450.228 317.583L450.254 317.54L450.28 317.496L440.078 311.48ZM384.365 410.104L374.047 404.288L374.028 404.322L374.008 404.358L384.365 410.104ZM333.093 502.512L322.736 496.767L322.725 496.788L322.713 496.809L333.093 502.512ZM327.067 513.473L316.69 507.764L316.686 507.772L316.681 507.78L327.067 513.473ZM324.088 518.908L313.702 513.215L313.573 513.451L313.455 513.693L324.088 518.908ZM321.178 524.843L310.544 519.628L310.446 519.828L310.355 520.032L321.178 524.843ZM313.673 549.478L325.375 551.308L325.39 551.215L325.403 551.122L313.673 549.478ZM312.953 574.242L324.746 573.147L324.733 572.998L324.715 572.849L312.953 574.242ZM318.335 597.391L329.455 593.315L329.428 593.24L329.399 593.165L318.335 597.391ZM343.417 633.738L351.61 625.185L351.395 624.979L351.17 624.784L343.417 633.738ZM351.422 639.946L344.298 649.408L344.383 649.471L344.469 649.534L351.422 639.946ZM360.162 645.237L353.997 655.35L354.203 655.475L354.414 655.592L360.162 645.237ZM369.038 649.353L364.023 660.082L364.278 660.201L364.538 660.308L369.038 649.353ZM378.02 652.385L374.205 663.597L374.52 663.704L374.841 663.794L378.02 652.385ZM440.404 647.025L445.401 657.763L445.503 657.716L445.605 657.666L440.404 647.025ZM471.914 621.769L462.804 614.2L462.685 614.342L462.571 614.489L471.914 621.769ZM477.924 613.052L487.979 619.312L487.993 619.29L488.006 619.267L477.924 613.052ZM479.812 609.997L489.876 616.242L489.887 616.223L489.899 616.204L479.812 609.997ZM479.372 607.943L485.993 598.122L485.991 598.121L479.372 607.943ZM477.265 608.352L467.477 601.684L467.455 601.716L467.433 601.748L477.265 608.352ZM469.094 619.578L460.331 611.61L460.18 611.776L460.035 611.948L469.094 619.578ZM438.311 642.364L442.891 653.286L442.989 653.245L443.087 653.202L438.311 642.364ZM380.188 645.191L375.871 656.22L376.209 656.352L376.554 656.464L380.188 645.191ZM372.093 642.098L366.613 652.598L366.886 652.741L367.166 652.869L372.093 642.098ZM364.156 638.036L357.565 647.876L357.778 648.019L357.997 648.152L364.156 638.036ZM356.614 633.078L349.137 642.263L349.191 642.308L349.246 642.351L356.614 633.078ZM349.239 626.878L357.968 618.873L357.666 618.544L357.341 618.239L349.239 626.878ZM328.356 593.859L339.644 590.273L339.608 590.16L339.57 590.047L328.356 593.859ZM324.407 573.272L336.234 572.655L336.226 572.485L336.212 572.315L324.407 573.272ZM325.877 551.661L337.498 553.948L337.519 553.841L337.538 553.732L325.877 551.661ZM333.192 530.619L322.761 525.008L322.656 525.204L322.558 525.404L333.192 530.619ZM335.883 525.616L325.731 519.516L325.586 519.758L325.452 520.006L335.883 525.616ZM339.066 520.318L328.922 514.205L328.918 514.211L328.914 514.218L339.066 520.318ZM345.517 509.592L355.664 515.701L355.677 515.679L355.69 515.657L345.517 509.592ZM399.646 418.821L389.503 412.706L389.488 412.73L389.474 412.754L399.646 418.821ZM457.928 322.312L467.895 328.71L467.925 328.664L467.954 328.618L457.928 322.312ZM487.589 271.147L477.013 265.814L477.003 265.835L476.993 265.855L487.589 271.147ZM508.191 213.099L496.639 210.488L496.589 210.708L496.548 210.929L508.191 213.099ZM510.458 197.416L498.746 195.655L498.717 195.849L498.694 196.043L510.458 197.416ZM510.935 189.464L522.765 190.039L522.769 189.953L522.772 189.868L510.935 189.464ZM511.072 185.469L522.909 185.874L522.909 185.851L522.91 185.829L511.072 185.469ZM511.132 183.476L522.971 183.836V183.835L511.132 183.476ZM511.163 182.475L523.001 182.835L523.017 182.307L522.986 181.78L511.163 182.475ZM238.882 317.157L229.687 324.623L229.728 324.673L229.769 324.723L238.882 317.157ZM256.028 348.38L267.299 344.742L267.256 344.609L267.21 344.478L256.028 348.38ZM258.226 355.164L269.67 352.112L269.589 351.811L269.493 351.515L258.226 355.164ZM259.514 361.319L247.933 363.8L247.936 363.813L259.514 361.319ZM260.992 371.158L249.153 371.488L249.162 371.789L249.185 372.089L260.992 371.158ZM261.644 379.435L273.477 379.949L273.508 379.228L273.452 378.508L261.644 379.435ZM261.303 387.788L249.47 387.3L249.458 387.576L249.46 387.853L261.303 387.788ZM260.265 397.726L271.958 399.606L271.962 399.585L271.965 399.564L260.265 397.726ZM259.302 403.964L270.754 406.986L270.832 406.692L270.894 406.394L259.302 403.964ZM257.46 410.922L268.834 414.224L268.872 414.093L268.908 413.961L257.46 410.922ZM241.83 443.683L232.26 436.705L232.227 436.751L232.195 436.796L241.83 443.683ZM207.607 475.027L213.596 485.244L213.609 485.237L213.622 485.229L207.607 475.027ZM156.472 490.983L157.095 502.81L157.291 502.8L157.486 502.783L156.472 490.983ZM142.381 491.157L141.359 502.957L141.66 502.983L141.961 502.993L142.381 491.157ZM127.312 489.505L130.147 478.005L129.588 477.867L129.017 477.784L127.312 489.505ZM98.9472 480.53L93.9732 491.279L94.0082 491.295L94.0434 491.311L98.9472 480.53ZM73.2434 463.581L65.3645 472.424L65.4825 472.529L65.6033 472.631L73.2434 463.581ZM52.9669 439.696L42.9128 445.956L42.9826 446.069L43.0548 446.179L52.9669 439.696ZM40.2704 410.809L28.7147 413.405L28.7992 413.781L28.908 414.151L40.2704 410.809ZM37.3369 395.255L49.1426 394.306L49.1191 394.014L49.0812 393.723L37.3369 395.255ZM36.6623 387.371L48.503 387.641L48.5092 387.37L48.5029 387.099L36.6623 387.371ZM36.5714 383.414L48.412 383.142L48.4115 383.12L48.4108 383.097L36.5714 383.414ZM36.5183 381.436L48.3578 381.119L48.3572 381.095L48.3564 381.072L36.5183 381.436ZM36.488 380.451L48.3261 380.086L48.3261 380.086L36.488 380.451ZM36.4728 379.958L48.311 379.594L48.309 379.529L48.3063 379.465L36.4728 379.958ZM36.4652 379.776L24.6409 379.099L24.6074 379.684L24.6317 380.269L36.4652 379.776ZM42.0138 348.645L30.8571 344.67L30.7908 344.856L30.7309 345.044L42.0138 348.645ZM56.0899 321.311L46.6063 314.216L46.5366 314.31L46.4688 314.404L56.0899 321.311ZM76.8666 299.678L69.807 290.168L69.6179 290.308L69.4346 290.456L76.8666 299.678ZM101.775 284.783L106.311 295.724L106.375 295.697L106.439 295.67L101.775 284.783ZM128.608 276.816L130.354 288.531L130.815 288.462L131.27 288.357L128.608 276.816ZM142.199 275.338L141.25 263.533L141.168 263.539L141.087 263.547L142.199 275.338ZM143.048 275.27L143.997 287.076L144.049 287.072L144.1 287.067L143.048 275.27ZM143.472 275.232L142.627 263.419L142.523 263.426L142.419 263.435L143.472 275.232ZM143.684 275.217L143.302 263.379L143.071 263.387L142.839 263.403L143.684 275.217ZM147.008 275.225L146.915 287.068L147.243 263.383L147.008 275.225ZM148.93 275.24L149.297 263.402L149.16 263.397L149.023 263.396L148.93 275.24ZM156.282 275.414L157.966 263.691L157.856 263.675L157.746 263.661L156.282 275.414ZM168.638 277.029L165.907 288.553L166.26 288.637L166.617 288.699L168.638 277.029ZM175.02 278.128L178.158 266.707L177.599 266.554L177.028 266.456L175.02 278.128ZM181.167 279.826L184.333 268.413L184.32 268.409L181.167 279.826ZM204.226 288.914L209.697 278.41L209.624 278.372L209.549 278.334L204.226 288.914ZM522.897 180.267L522.078 165.652L498.428 166.977L499.247 181.591L522.897 180.267ZM521.96 164.517L519.466 148.28L496.053 151.876L498.547 168.113L521.96 164.517ZM519.363 147.703C514.827 125.542 506.23 104.393 494.24 85.4897L474.237 98.1766C484.7 114.673 492.202 133.135 496.156 152.453L519.363 147.703ZM494.279 85.5504C470.4 47.3916 432.329 19.6609 390.924 7.58837L384.294 30.3289C420.311 40.8305 453.507 65.0504 474.199 98.1159L494.279 85.5504ZM390.855 7.56837L383.593 5.49902L377.101 28.2796L384.363 30.3489L390.855 7.56837ZM382.557 5.25359L375.174 3.85128L370.754 27.1227L378.137 28.525L382.557 5.25359ZM375.135 3.8439C370.587 2.99599 364.752 1.78302 358.803 1.48283L357.609 25.1402C361.575 25.3403 365.502 26.1436 370.793 27.1301L375.135 3.8439ZM359.2 1.50953L351.817 0.887969L349.829 24.492L357.212 25.1135L359.2 1.50953ZM351.42 0.861253L345.234 0.549296L344.041 24.2067L350.226 24.5187L351.42 0.861253ZM344.794 24.2207C345.112 24.2165 345.448 24.2107 345.698 24.2061C345.824 24.2038 345.932 24.2017 346.008 24.2002C346.047 24.1994 346.077 24.1988 346.099 24.1984C346.109 24.1982 346.118 24.198 346.124 24.1979C346.127 24.1978 346.129 24.1978 346.131 24.1977C346.132 24.1977 346.132 24.1977 346.133 24.1977C346.133 24.1977 346.133 24.1977 346.134 24.1977C346.134 24.1977 346.134 24.1977 346.134 24.1977C346.134 24.1977 346.134 24.1977 346.134 24.1977C346.134 24.1977 346.134 24.1977 345.888 12.3564C345.643 0.51524 345.643 0.515239 345.643 0.515239C345.643 0.515238 345.643 0.515238 345.643 0.515237C345.643 0.515237 345.643 0.515236 345.643 0.515236C345.643 0.515236 345.643 0.515236 345.643 0.515238C345.643 0.51524 345.643 0.515245 345.642 0.515255C345.641 0.515273 345.64 0.515305 345.638 0.515347C345.634 0.515434 345.627 0.51557 345.618 0.51575C345.6 0.516109 345.574 0.516645 345.54 0.517317C345.472 0.518663 345.375 0.520546 345.26 0.522655C345.029 0.526931 344.74 0.531894 344.482 0.535287L344.794 24.2207ZM345.673 0.514652L345.256 0.522231L345.687 24.2058L346.104 24.1982L345.673 0.514652ZM345.273 0.52194L344.439 0.535928L344.836 24.2201L345.67 24.2061L345.273 0.52194ZM344.308 0.538853L342.633 0.585508L343.292 24.2638L344.967 24.2172L344.308 0.538853ZM342.661 0.58477C338.202 0.698508 333.774 0.812226 329.362 0.925948L329.972 24.6056C334.383 24.4919 338.809 24.3782 343.265 24.2646L342.661 0.58477ZM328.727 0.959392C306.934 2.69479 287.633 7.75655 269.522 15.5058L278.841 37.2835C294.673 30.509 311.468 26.0963 330.607 24.5721L328.727 0.959392ZM269.469 15.529C233.312 31.2116 205.19 57.5647 187.617 86.4687L207.857 98.7743C223.015 73.8431 247.452 50.8982 278.895 37.2603L269.469 15.529ZM187.653 86.4109C169.895 115.245 162.112 146.112 161.572 173.242L185.255 173.714C185.715 150.617 192.379 123.909 207.822 98.8321L187.653 86.4109ZM161.569 173.449C161.562 176.587 161.554 179.679 161.547 182.719L185.234 182.778C185.242 179.738 185.249 176.645 185.257 173.506L161.569 173.449ZM161.548 182.919C161.555 183.389 161.491 186.12 161.636 188.201L185.266 186.558C185.168 185.152 185.272 185.26 185.233 182.577L161.548 182.919ZM161.638 188.231L161.941 192.438L185.567 190.735L185.264 186.528L161.638 188.231ZM161.945 192.488C162.418 198.691 163.263 204.933 164.288 210.516L187.586 206.237C186.701 201.419 185.97 196.004 185.564 190.685L161.945 192.488ZM164.308 210.622C166.511 222.026 169.696 232.164 173.137 240.974L195.201 232.356C192.2 224.672 189.457 215.921 187.566 206.13L164.308 210.622ZM173.158 241.028C176.583 249.672 180.252 257.106 183.851 263.429L204.438 251.712C201.366 246.316 198.183 239.88 195.18 232.302L173.158 241.028ZM199.316 246.916C198.592 246.564 196.557 245.506 194.817 244.779L185.68 266.633C186.623 267.028 187.105 267.319 188.973 268.226L199.316 246.916ZM195.409 245.046C184.54 239.784 172.94 236.627 160.117 234.601L156.419 257.998C167.671 259.776 176.885 262.395 185.087 266.366L195.409 245.046ZM160.35 234.64C157.066 234.053 152.961 233.808 151.81 233.676L149.112 257.209C153.252 257.684 153.528 257.484 156.186 257.958L160.35 234.64ZM151.558 233.65L147.731 233.294L145.535 256.879L149.363 257.235L151.558 233.65ZM147.747 233.295L145.822 233.113L143.593 256.696L145.519 256.878L147.747 233.295ZM145.149 233.069L144.133 233.031L143.251 256.702L144.266 256.74L145.149 233.069ZM143.363 233.027L143.09 233.035L143.748 256.713L144.02 256.706L143.363 233.027ZM143.09 233.035L142.545 233.05L143.202 256.729L143.748 256.713L143.09 233.035ZM142.544 233.05L141.453 233.08L142.111 256.759L143.202 256.728L142.544 233.05ZM141.318 233.085C136.387 233.278 129.056 233.2 122.114 234.412L126.188 257.747C131.055 256.897 135.564 257.016 142.245 256.754L141.318 233.085ZM122.997 234.292C109.375 235.625 96.3492 239.994 84.4352 244.954L93.5389 266.822C104.532 262.246 115.064 258.869 125.304 257.867L122.997 234.292ZM84.162 245.072C71.5828 250.683 60.0015 258.368 49.5899 267.241L64.9547 285.27C73.9328 277.618 83.6209 271.25 93.8121 266.704L84.162 245.072ZM49.475 267.341C38.8667 276.619 29.9725 287.57 22.5164 299.135L42.4248 311.97C48.9462 301.855 56.4551 292.705 65.0697 285.17L49.475 267.341ZM22.3913 299.333C14.964 311.369 9.48783 324.395 5.58355 337.68L28.3099 344.359C31.7127 332.78 36.3937 321.748 42.5499 311.772L22.3913 299.333ZM5.54478 337.815C1.76961 351.246 0.231979 367.26 0.404667 378.995L24.0896 378.647C23.9439 368.747 25.3018 355.064 28.3487 344.224L5.54478 337.815ZM0.405125 378.618C0.399324 378.956 0.395653 379.227 0.395028 379.435C0.39476 379.525 0.394544 379.703 0.399908 379.907C0.402322 379.998 0.408818 380.22 0.42941 380.498C0.439678 380.636 0.460444 380.887 0.50193 381.198C0.523264 381.357 0.556369 381.581 0.606879 381.846C0.654557 382.097 0.738486 382.496 0.879748 382.976C0.952356 383.223 1.05362 383.538 1.19212 383.897C1.32779 384.249 1.52834 384.719 1.81539 385.252C2.09502 385.772 2.53465 386.496 3.18963 387.272C3.83984 388.043 4.86097 389.054 6.33967 389.904C7.09193 390.337 7.95886 390.725 8.93478 391.009C9.91604 391.294 10.9467 391.456 12.0018 391.478C13.0544 391.499 14.0536 391.38 14.9754 391.161C15.8908 390.944 16.6966 390.638 17.3851 390.306C18.7319 389.657 19.7057 388.874 20.3336 388.287C20.9726 387.689 21.4352 387.124 21.742 386.712C22.0568 386.289 22.2942 385.912 22.4619 385.626C22.6329 385.334 22.767 385.077 22.867 384.874C23.0613 384.48 23.1959 384.151 23.2739 383.952C23.3566 383.741 23.4179 383.566 23.456 383.454C23.4954 383.339 23.5252 383.246 23.5423 383.191C23.5594 383.137 23.5725 383.094 23.575 383.086C23.5828 383.06 23.5725 383.094 23.567 383.112C23.5593 383.137 23.4923 383.357 23.3938 383.632C23.3414 383.777 23.2543 384.011 23.1332 384.293C23.071 384.438 22.9904 384.618 22.8906 384.822C22.7923 385.023 22.6595 385.281 22.4899 385.573C22.3236 385.859 22.0864 386.24 21.7704 386.667C21.463 387.082 20.994 387.66 20.3414 388.27C20.0075 388.583 19.596 388.932 19.1025 389.282C18.6088 389.632 18.0059 390.003 17.2916 390.339C16.5737 390.676 15.7321 390.984 14.7763 391.193C13.8132 391.403 12.7751 391.503 11.6891 391.452C10.6013 391.4 9.55179 391.2 8.56602 390.878C7.58668 390.557 6.72894 390.135 5.9958 389.679C4.55926 388.786 3.58666 387.755 2.98084 386.994C2.36733 386.222 1.95913 385.51 1.70167 385.006C1.43681 384.487 1.25252 384.031 1.12828 383.691C1.00138 383.344 0.908846 383.041 0.842637 382.804C0.775493 382.563 0.724611 382.351 0.686502 382.178C0.612104 381.841 0.565722 381.56 0.537561 381.371C0.482689 381.003 0.457171 380.71 0.445697 380.564C0.432634 380.399 0.425649 380.264 0.421852 380.181C0.414443 380.017 0.412455 379.893 0.4118 379.847C0.410994 379.789 0.41096 379.75 0.41096 379.738H24.0985C24.0985 379.679 24.0982 379.601 24.097 379.513C24.0959 379.436 24.0932 379.289 24.0851 379.108C24.0809 379.016 24.0734 378.874 24.0599 378.703C24.053 378.615 24.0432 378.503 24.0295 378.375C24.0161 378.249 23.9961 378.08 23.9666 377.882C23.9381 377.691 23.8915 377.409 23.8168 377.07C23.7786 376.897 23.7275 376.685 23.6603 376.443C23.5939 376.205 23.5012 375.901 23.3742 375.554C23.2498 375.214 23.0654 374.758 22.8004 374.238C22.6653 373.974 22.4983 373.671 22.2941 373.344C22.0905 373.019 21.8355 372.646 21.5207 372.25C21.2066 371.855 20.8118 371.41 20.3245 370.956C19.8365 370.502 19.2337 370.017 18.5053 369.564C17.7721 369.108 16.9143 368.686 15.9349 368.365C14.949 368.043 13.8994 367.843 12.8116 367.791C11.7255 367.74 10.6873 367.84 9.72415 368.05C8.76821 368.259 7.92657 368.567 7.20859 368.904C6.49421 369.24 5.89118 369.611 5.39749 369.962C4.90389 370.312 4.49224 370.661 4.15828 370.973C3.82344 371.286 3.54317 371.585 3.31411 371.848C3.08426 372.112 2.88989 372.36 2.72886 372.577C2.41268 373.004 2.17529 373.386 2.00888 373.672C1.83908 373.964 1.70616 374.222 1.60761 374.424C1.50771 374.628 1.42693 374.808 1.36454 374.954C1.24315 375.237 1.15573 375.471 1.10299 375.618C1.04789 375.771 1.00638 375.897 0.981279 375.974C0.955626 376.053 0.936278 376.116 0.927737 376.143C0.921882 376.162 0.911231 376.197 0.918624 376.173C0.92082 376.166 0.933543 376.124 0.950302 376.071C0.967072 376.018 0.996573 375.925 1.03557 375.811C1.07334 375.7 1.13432 375.527 1.21665 375.316C1.29434 375.118 1.42861 374.79 1.62252 374.397C1.72236 374.194 1.85638 373.937 2.02714 373.646C2.19469 373.36 2.43194 372.983 2.74655 372.56C2.90668 372.345 3.09913 372.102 3.32592 371.843C3.55199 371.584 3.82713 371.292 4.15449 370.986C4.48107 370.68 4.88121 370.341 5.35892 370C5.83667 369.658 6.41718 369.297 7.10251 368.967C7.7909 368.635 8.5966 368.329 9.51192 368.112C10.4337 367.894 11.4327 367.774 12.4853 367.795C13.5403 367.817 14.5709 367.979 15.5521 368.264C16.5279 368.548 17.3948 368.937 18.147 369.369C18.8943 369.799 19.5198 370.267 20.0324 370.715C20.5439 371.161 20.9615 371.603 21.2965 372C21.632 372.398 21.905 372.775 22.1242 373.107C22.3439 373.439 22.5242 373.748 22.6703 374.02C22.9572 374.552 23.1576 375.023 23.2931 375.374C23.4315 375.733 23.5326 376.047 23.605 376.294C23.6785 376.543 23.7343 376.764 23.7761 376.943C23.8184 377.124 23.8514 377.285 23.877 377.42C23.9273 377.684 23.9601 377.905 23.9812 378.063C24.0221 378.37 24.0423 378.615 24.0521 378.747C24.063 378.893 24.069 379.012 24.0724 379.089C24.0759 379.169 24.078 379.236 24.0792 379.282C24.0815 379.371 24.0821 379.437 24.0823 379.462C24.0825 379.492 24.0824 379.508 24.0824 379.506C24.0825 379.477 24.0836 379.349 24.0891 379.024L0.405125 378.618ZM0.444137 380.624L0.466879 380.927L24.088 379.155L24.0653 378.852L0.444137 380.624ZM0.456759 380.78L0.494653 381.386L24.136 379.909L24.0981 379.303L0.456759 380.78ZM0.499846 381.465L0.583238 382.671L24.2142 381.035L24.1308 379.83L0.499846 381.465ZM0.583228 382.67L0.749983 385.081L24.381 383.446L24.2142 381.036L0.583228 382.67ZM0.7526 385.118L1.10128 389.939L24.7271 388.23L24.3784 383.409L0.7526 385.118ZM1.0788 389.53C1.2378 393.753 2.02128 397.814 2.54517 400.734L25.8604 396.551C25.2473 393.134 24.8331 390.859 24.7495 388.639L1.0788 389.53ZM2.46796 400.245C3.48131 407.665 5.65522 414.771 7.31827 420.585L30.0923 414.07C28.2382 407.589 26.6676 402.385 25.9376 397.04L2.46796 400.245ZM7.50632 421.182C11.9747 434.165 18.0317 446.661 25.8819 457.987L45.3506 444.494C38.8898 435.172 33.7587 424.672 29.9043 413.473L7.50632 421.182ZM26.0081 458.166C33.8833 469.092 43.0379 479.081 53.4828 487.505L68.3539 469.067C59.7578 462.134 52.0241 453.75 45.2245 444.316L26.0081 458.166ZM53.6948 487.672C63.9493 495.564 75.1633 502.606 87.3821 507.566L96.2922 485.618C86.5896 481.679 77.2315 475.896 68.1419 468.9L53.6948 487.672ZM87.4892 507.609C99.1077 512.194 111.111 515.862 124.287 517.185L126.653 493.616C116.422 492.588 106.655 489.707 96.1851 485.575L87.4892 507.609ZM123.558 517.089C130.497 518.223 136.988 518.049 141.159 518.213L142.086 494.543C135.812 494.297 132.403 494.533 127.381 493.712L123.558 517.089ZM141.786 518.22C148.484 518.128 154.029 517.5 159.465 516.859L156.693 493.334C151.319 493.968 146.829 494.461 141.459 494.535L141.786 518.22ZM159.832 516.81C183.104 513.327 203.589 503.814 219.622 491.934L205.52 472.901C192.295 482.701 175.395 490.53 156.326 493.384L159.832 516.81ZM219.686 491.886C235.716 479.842 247.304 465.592 255.486 452.155L235.254 439.836C228.352 451.171 218.685 463.01 205.457 472.948L219.686 491.886ZM255.432 452.243C263.923 438.568 268.495 425.345 271.432 414.796L248.612 408.443C246.016 417.77 242.189 428.665 235.308 439.748L255.432 452.243ZM271.495 414.561C272.745 409.686 274.08 404.447 274.682 399.508L251.169 396.641C250.786 399.782 249.877 403.502 248.55 408.678L271.495 414.561ZM274.593 400.107C275.276 396.187 275.966 391.904 276.019 388.096L252.333 387.768C252.31 389.433 251.969 391.957 251.257 396.041L274.593 400.107ZM275.998 388.652C276.165 385.909 276.292 383.805 276.377 382.386C276.42 381.676 276.452 381.138 276.474 380.777C276.485 380.596 276.493 380.46 276.498 380.369C276.501 380.323 276.503 380.289 276.505 380.266C276.505 380.254 276.506 380.245 276.506 380.239C276.506 380.237 276.506 380.234 276.507 380.233C276.507 380.232 276.507 380.232 276.507 380.231C276.507 380.231 276.507 380.231 276.507 380.231C276.507 380.231 276.507 380.231 276.507 380.231C276.507 380.23 276.507 380.23 264.684 379.526C252.861 378.821 252.861 378.821 252.861 378.821C252.861 378.821 252.861 378.821 252.861 378.822C252.861 378.822 252.861 378.822 252.861 378.822C252.861 378.822 252.861 378.823 252.861 378.823C252.861 378.825 252.861 378.827 252.861 378.83C252.86 378.835 252.86 378.844 252.859 378.855C252.858 378.877 252.856 378.911 252.853 378.956C252.848 379.046 252.84 379.181 252.829 379.361C252.807 379.719 252.775 380.255 252.733 380.962C252.648 382.376 252.521 384.475 252.354 387.213L275.998 388.652ZM276.528 379.526V379.45H252.84V379.526H276.528ZM264.684 379.45C276.525 379.178 276.525 379.178 276.525 379.178C276.525 379.178 276.525 379.178 276.525 379.178C276.525 379.178 276.525 379.178 276.525 379.178C276.525 379.177 276.525 379.177 276.524 379.176C276.524 379.175 276.524 379.172 276.524 379.169C276.524 379.164 276.524 379.155 276.524 379.143C276.523 379.12 276.522 379.086 276.521 379.039C276.519 378.947 276.516 378.809 276.512 378.626C276.503 378.261 276.491 377.715 276.474 376.996C276.441 375.557 276.392 373.423 276.327 370.641L252.646 371.189C252.711 373.971 252.76 376.104 252.793 377.542C252.81 378.261 252.822 378.806 252.831 379.171C252.835 379.354 252.838 379.492 252.84 379.584C252.841 379.63 252.842 379.664 252.842 379.687C252.843 379.699 252.843 379.708 252.843 379.713C252.843 379.716 252.843 379.718 252.843 379.72C252.843 379.721 252.843 379.721 252.843 379.721C252.843 379.722 252.843 379.722 252.843 379.722C252.843 379.722 252.843 379.722 252.843 379.722C252.843 379.722 252.843 379.722 264.684 379.45ZM276.328 371.139C276.4 367.359 275.878 363.062 275.44 359.303L251.912 362.045C252.414 366.352 252.68 368.862 252.645 370.691L276.328 371.139ZM275.492 359.86C275.149 354.882 274.079 349.541 273.074 344.543L249.851 349.214C250.923 354.541 251.642 358.325 251.86 361.488L275.492 359.86ZM273.019 344.286C270.592 333.471 266.653 319.787 258.717 305.28L237.936 316.649C244.431 328.522 247.754 339.881 249.906 349.472L273.019 344.286ZM258.758 305.356C251.078 291.072 239.79 275.569 223.405 262.257L208.469 280.642C221.979 291.618 231.4 304.492 237.895 316.573L258.758 305.356ZM223.036 261.97C219.623 259.414 215.973 256.788 212.115 254.245L199.081 274.025C202.424 276.228 205.671 278.559 208.837 280.93L223.036 261.97ZM216.254 258.965C212.743 251.731 208.745 242.431 205.826 230.586L182.827 236.255C186.274 250.244 190.993 261.167 194.942 269.305L216.254 258.965ZM205.813 230.536C203.967 223.184 202.567 214.834 201.918 205.689L178.29 207.365C179.036 217.882 180.653 227.603 182.839 236.306L205.813 230.536ZM201.914 205.633C201.562 200.974 201.417 196.496 201.535 191.56L177.855 190.991C177.715 196.79 177.889 202.058 178.294 207.42L201.914 205.633ZM201.533 191.638L201.662 187.423L177.986 186.699L177.857 190.914L201.533 191.638ZM201.66 187.475C201.66 187.498 201.662 187.432 201.679 187.236C201.696 187.047 201.721 186.812 201.756 186.503C201.813 185.993 201.929 185.033 202.003 184.232L178.418 182.038C178.404 182.186 178.038 185.207 177.987 186.647L201.66 187.475ZM201.988 184.385C202.274 181.688 202.572 178.907 202.869 176.088L179.311 173.612C179.016 176.417 178.723 179.154 178.433 181.885L201.988 184.385ZM202.909 175.614C203.035 173.66 203.388 171.55 203.96 169.205L180.948 163.591C180.14 166.901 179.508 170.415 179.271 174.085L202.909 175.614ZM204.067 168.727C204.349 167.318 204.636 165.898 204.926 164.461C205.216 163.025 205.509 161.572 205.803 160.108L182.577 155.451C182.287 156.898 181.997 158.336 181.707 159.774C181.417 161.209 181.127 162.643 180.842 164.069L204.067 168.727ZM205.691 160.609C206.97 155.41 208.753 150.072 210.764 144.107L188.318 136.538C186.358 142.353 184.245 148.627 182.689 154.95L205.691 160.609ZM210.293 145.289C211.688 142.27 213.108 138.678 214.142 136.249C215.31 133.508 216.386 131.237 217.64 129.216L197.512 116.728C195.31 120.278 193.68 123.844 192.35 126.966C190.887 130.4 190.017 132.697 188.789 135.356L210.293 145.289ZM217.849 128.866C218.769 127.263 219.64 125.614 220.366 124.26C221.133 122.829 221.796 121.615 222.484 120.479L202.219 108.213C201.186 109.92 200.273 111.605 199.488 113.069C198.662 114.611 198.005 115.854 197.303 117.078L217.849 128.866ZM222.169 120.971C224.02 118.228 225.907 115.435 227.806 112.619L208.162 99.3819C206.27 102.19 204.397 104.96 202.534 107.72L222.169 120.971ZM227.523 113.02C235.165 102.634 243.681 92.9073 254.007 85.1761L239.81 66.2144C226.911 75.8724 216.811 87.6109 208.444 98.9806L227.523 113.02ZM254.182 85.043C264.987 76.6364 276.608 69.2956 289.399 64.6582L281.325 42.3891C265.388 48.167 251.571 57.0618 239.636 66.3475L254.182 85.043ZM289.514 64.6157C302.602 59.7162 317.302 56.5805 330.932 55.6205L329.267 31.9915C313.41 33.1085 296.471 36.7187 281.21 42.4316L289.514 64.6157ZM330.12 55.6498C334.531 55.6422 338.965 55.6346 343.415 55.627L343.374 31.9396C338.925 31.9471 334.491 31.9547 330.079 31.9623L330.12 55.6498ZM343.395 55.627H345.07V31.9395H343.395V55.627ZM345.192 55.6264L345.927 55.6188L345.683 31.9326L344.948 31.9402L345.192 55.6264ZM345.805 55.6195C345.819 55.6195 345.792 55.6195 345.761 55.6193C345.729 55.6192 345.634 55.6187 345.512 55.6154C345.374 55.6118 345.214 55.6051 345.035 55.5931C344.866 55.5817 344.731 55.5689 344.657 55.5614C344.418 55.5375 344.752 55.5712 344.831 55.5784L346.976 31.9882C347.006 31.9909 347.046 31.9947 347.092 31.9996C347.112 32.0017 347.129 32.0035 347.127 32.0033C347.127 32.0033 347.123 32.0029 347.12 32.0025C347.116 32.0021 347.109 32.0014 347.101 32.0005C347.086 31.9989 347.056 31.9957 347.018 31.9919C346.939 31.984 346.8 31.9708 346.626 31.9591C346.444 31.9468 346.28 31.94 346.137 31.9362C346.011 31.9329 345.911 31.9323 345.872 31.9321C345.85 31.932 345.832 31.932 345.823 31.932C345.814 31.932 345.806 31.932 345.805 31.932V55.6195ZM344.805 55.5759L347.814 55.8564L350.012 32.2711L347.003 31.9906L344.805 55.5759ZM347.846 55.8593L353.88 56.4051L356.013 32.8139L349.98 32.2682L347.846 55.8593ZM354.438 56.4423C357.385 56.569 360.206 57.2061 364.77 58.0775L369.212 34.8103C365.757 34.1505 360.619 32.9987 355.455 32.7767L354.438 56.4423ZM364.798 58.0828L370.832 59.2198L375.218 35.942L369.184 34.805L364.798 58.0828ZM369.662 58.9371L375.574 60.6881L382.3 37.9757L376.388 36.2247L369.662 58.9371ZM375.871 60.7717C404.911 68.5562 432.319 87.6635 450.822 114.251L470.265 100.721C448.655 69.668 416.59 47.1631 382.004 37.892L375.871 60.7717ZM450.824 114.254C460.007 127.441 466.851 142.534 470.617 158.367L493.661 152.886C489.195 134.108 481.107 116.29 470.263 100.718L450.824 114.254ZM470.515 157.898L472.971 170.466L496.219 165.923L493.763 153.355L470.515 157.898ZM472.799 169.256L474.11 183.832L497.702 181.71L496.391 167.133L472.799 169.256ZM474.063 182.815L474.085 188.917L497.773 188.829L497.75 182.727L474.063 182.815ZM474.087 188.671C474.026 192.269 474.189 192.656 474.012 194.059L497.513 197.027C497.896 193.989 497.757 189.919 497.771 189.075L474.087 188.671ZM473.963 194.518C473.527 199.536 473.365 203.004 472.654 206.637L495.899 211.191C496.931 205.925 497.224 200.45 497.561 196.568L473.963 194.518ZM472.572 207.105C470.041 223.471 464.218 239.938 456.536 256.326L477.983 266.38C486.249 248.748 492.994 230.046 495.981 210.724L472.572 207.105ZM456.511 256.378C448.885 272.854 439.613 288.951 429.876 305.464L450.28 317.496C460.023 300.974 469.837 283.979 478.008 266.328L456.511 256.378ZM429.927 305.377C409.82 338.82 391.833 372.738 374.047 404.288L394.682 415.92C412.886 383.628 430.328 350.68 450.228 317.583L429.927 305.377ZM374.008 404.358C356.226 436.406 339.034 467.385 322.736 496.767L343.451 508.257C359.747 478.877 376.938 447.901 394.721 415.85L374.008 404.358ZM322.713 496.809C320.69 500.491 318.683 504.142 316.69 507.764L337.444 519.182C339.439 515.557 341.449 511.901 343.474 508.215L322.713 496.809ZM316.681 507.78L313.702 513.215L334.474 524.6L337.453 519.166L316.681 507.78ZM313.455 513.693L310.544 519.628L331.811 530.058L334.722 524.123L313.455 513.693ZM310.355 520.032C306.522 528.656 303.321 538.009 301.944 547.834L325.403 551.122C326.376 544.179 328.724 537.025 332 529.654L310.355 520.032ZM301.972 547.648C300.538 556.816 300.084 566.283 301.192 575.635L324.715 572.849C323.912 566.071 324.201 558.817 325.375 551.308L301.972 547.648ZM301.16 575.337C302.012 584.505 304.118 593.365 307.271 601.618L329.399 593.165C327.004 586.894 325.396 580.14 324.746 573.147L301.16 575.337ZM307.215 601.467C313.316 618.113 323.364 632.041 335.665 642.691L351.17 624.784C341.777 616.651 334.118 606.035 329.455 593.315L307.215 601.467ZM335.225 642.291C338.587 645.512 342.712 648.214 344.298 649.408L358.546 630.484C354.856 627.706 353.645 627.134 351.61 625.185L335.225 642.291ZM344.469 649.534C347.847 651.983 352.5 654.437 353.997 655.35L366.326 635.123C362.078 632.534 360.955 632.229 358.375 630.358L344.469 649.534ZM354.414 655.592C357.692 657.412 362.35 659.3 364.023 660.082L374.053 638.623C369.919 636.691 368.422 636.276 365.909 634.881L354.414 655.592ZM364.538 660.308C367.873 661.678 372.392 662.98 374.205 663.597L381.835 641.172C377.766 639.788 376.145 639.468 373.538 638.397L364.538 660.308ZM374.841 663.794C402.338 671.456 427.652 666.024 445.401 657.763L435.406 636.288C421.592 642.717 402.123 646.806 381.199 640.975L374.841 663.794ZM445.605 657.666C463.484 648.926 474.664 637.508 481.256 629.049L462.571 614.489C457.656 620.796 449.143 629.57 435.202 636.385L445.605 657.666ZM481.023 629.338C484.724 624.884 486.929 620.997 487.979 619.312L467.87 606.792C466.418 609.124 465.213 611.3 462.804 614.2L481.023 629.338ZM488.006 619.267C488.625 618.264 489.094 617.505 489.407 616.999C489.564 616.745 489.682 616.555 489.76 616.428C489.799 616.365 489.828 616.318 489.848 616.287C489.857 616.271 489.865 616.259 489.869 616.252C489.872 616.248 489.873 616.245 489.874 616.244C489.875 616.243 489.875 616.242 489.876 616.242C489.876 616.242 489.876 616.242 489.876 616.242H489.876H489.876C489.876 616.242 489.876 616.242 479.812 609.997C469.748 603.753 469.748 603.753 469.748 603.753C469.748 603.753 469.748 603.753 469.748 603.753C469.748 603.753 469.748 603.753 469.748 603.753C469.748 603.753 469.748 603.753 469.747 603.754C469.747 603.754 469.746 603.755 469.746 603.756C469.744 603.759 469.742 603.762 469.739 603.766C469.734 603.775 469.726 603.788 469.716 603.805C469.695 603.838 469.664 603.888 469.624 603.953C469.542 604.085 469.421 604.28 469.262 604.538C468.942 605.054 468.467 605.823 467.843 606.836L488.006 619.267ZM489.899 616.204C493.607 610.178 492.002 602.173 485.993 598.122L472.752 617.763C468.092 614.622 466.865 608.437 469.725 603.79L489.899 616.204ZM485.991 598.121C479.811 593.956 471.564 595.685 467.477 601.684L487.053 615.021C483.906 619.64 477.538 620.989 472.753 617.764L485.991 598.121ZM477.265 608.352C467.433 601.748 467.433 601.748 467.433 601.748C467.433 601.748 467.433 601.748 467.433 601.748C467.433 601.748 467.433 601.748 467.433 601.748C467.433 601.749 467.433 601.749 467.433 601.749C467.433 601.749 467.432 601.75 467.431 601.751C467.43 601.753 467.428 601.756 467.425 601.76C467.42 601.768 467.412 601.78 467.402 601.796C467.38 601.827 467.349 601.875 467.306 601.937C467.222 602.063 467.095 602.252 466.928 602.501C466.592 603 466.092 603.745 465.433 604.727L485.095 617.936C485.755 616.954 486.255 616.209 486.591 615.71C486.758 615.46 486.885 615.272 486.969 615.146C487.012 615.083 487.044 615.035 487.065 615.004C487.075 614.988 487.083 614.976 487.089 614.968C487.091 614.964 487.093 614.961 487.095 614.959C487.095 614.958 487.096 614.957 487.096 614.957C487.096 614.957 487.097 614.956 487.097 614.956C487.097 614.956 487.097 614.956 487.097 614.956C487.097 614.956 487.097 614.956 487.097 614.956C487.097 614.956 487.097 614.956 477.265 608.352ZM465.433 604.727C463.93 606.963 462.577 609.14 460.331 611.61L477.857 627.546C481.538 623.498 483.96 619.625 485.095 617.936L465.433 604.727ZM460.035 611.948C455.245 617.636 446.764 625.697 433.536 631.525L443.087 653.202C460.346 645.598 471.603 634.983 478.152 627.208L460.035 611.948ZM433.732 631.441C420.575 636.957 402.45 639.924 383.822 633.919L376.554 656.464C401.708 664.573 425.743 660.475 442.891 653.286L433.732 631.441ZM384.505 634.162C380.479 632.586 379.466 632.447 377.019 631.328L367.166 652.869C370.055 654.191 374.591 655.719 375.871 656.22L384.505 634.162ZM377.572 631.599C373.542 629.495 372.614 629.319 370.316 627.919L357.997 648.152C360.853 649.891 365.443 651.988 366.613 652.598L377.572 631.599ZM370.747 628.195C369.314 627.235 367.62 626.212 366.573 625.557C365.326 624.778 364.534 624.244 363.982 623.805L349.246 642.351C350.908 643.671 352.659 644.794 354.016 645.642C355.572 646.615 356.543 647.191 357.565 647.876L370.747 628.195ZM364.091 623.893C360.47 620.945 359.206 620.223 357.968 618.873L340.509 634.882C343.289 637.913 347.786 641.163 349.137 642.263L364.091 623.893ZM357.341 618.239C349.699 611.073 343.15 601.31 339.644 590.273L317.068 597.445C321.885 612.606 330.753 625.779 341.137 635.517L357.341 618.239ZM339.57 590.047C337.703 584.556 336.549 578.681 336.234 572.655L312.579 573.888C313.008 582.114 314.582 590.139 317.142 597.671L339.57 590.047ZM336.212 572.315C335.743 566.526 336.24 560.342 337.498 553.948L314.257 549.374C312.68 557.382 311.919 565.797 312.602 574.228L336.212 572.315ZM337.538 553.732C338.565 547.954 340.792 542.02 343.826 535.834L322.558 525.404C318.967 532.726 315.767 540.859 314.216 549.59L337.538 553.732ZM343.623 536.229L346.313 531.226L325.452 520.006L322.761 525.008L343.623 536.229ZM346.035 531.716L349.219 526.418L328.914 514.218L325.731 519.516L346.035 531.716ZM349.211 526.43C351.334 522.907 353.527 519.25 355.664 515.701L335.37 503.483C333.171 507.135 331.074 510.633 328.922 514.205L349.211 526.43ZM355.69 515.657C372.896 486.799 391.042 456.368 409.818 424.888L389.474 412.754C370.698 444.236 352.551 474.668 335.344 503.526L355.69 515.657ZM409.789 424.935C428.939 393.169 447.387 360.657 467.895 328.71L447.962 315.914C427.234 348.202 408.208 381.677 389.503 412.706L409.789 424.935ZM467.954 328.618C478.228 312.285 488.894 295.045 498.185 276.438L476.993 265.855C468.274 283.315 458.171 299.682 447.903 316.006L467.954 328.618ZM498.165 276.479C507.525 257.914 515.698 237.47 519.835 215.268L496.548 210.929C492.953 230.222 485.754 248.479 477.013 265.814L498.165 276.479ZM519.744 215.709C521.081 209.791 521.655 203.644 522.222 198.789L498.694 196.043C498.033 201.709 497.621 206.143 496.639 210.488L519.744 215.709ZM522.17 199.176C522.681 195.776 522.688 191.639 522.765 190.039L499.106 188.889C498.926 192.596 499.023 193.809 498.746 195.655L522.17 199.176ZM522.772 189.868L522.909 185.874L499.235 185.065L499.099 189.06L522.772 189.868ZM522.91 185.829L522.971 183.836L499.294 183.116L499.234 185.11L522.91 185.829ZM522.971 183.835L523.001 182.835L499.324 182.116L499.294 183.117L522.971 183.835ZM522.986 181.78L522.895 180.234L499.249 181.624L499.339 183.171L522.986 181.78ZM229.769 324.723C237.353 333.857 241.837 343.66 244.845 352.281L267.21 344.478C263.639 334.24 257.981 321.621 247.994 309.592L229.769 324.723ZM244.756 352.018C245.531 354.416 246.277 356.709 246.958 358.812L269.493 351.515C268.795 349.358 268.071 347.134 267.299 344.742L244.756 352.018ZM246.782 358.215C247.291 360.124 247.281 360.755 247.933 363.8L271.095 358.837C270.929 358.062 270.313 354.524 269.67 352.112L246.782 358.215ZM247.936 363.813C248.749 367.586 249.11 369.953 249.153 371.488L272.832 370.827C272.723 366.934 271.932 362.723 271.093 358.825L247.936 363.813ZM249.185 372.089C249.398 374.779 249.56 376.848 249.67 378.244C249.725 378.942 249.767 379.471 249.795 379.827C249.809 380.004 249.819 380.138 249.826 380.228C249.83 380.272 249.833 380.306 249.834 380.329C249.835 380.34 249.836 380.348 249.836 380.354C249.836 380.357 249.837 380.359 249.837 380.36C249.837 380.361 249.837 380.361 249.837 380.362C249.837 380.362 249.837 380.362 249.837 380.362C249.837 380.362 249.837 380.362 249.837 380.362C249.837 380.362 249.837 380.362 261.644 379.435C273.452 378.508 273.452 378.508 273.452 378.508C273.452 378.508 273.452 378.508 273.452 378.508C273.452 378.508 273.452 378.507 273.452 378.507C273.452 378.507 273.452 378.506 273.452 378.506C273.451 378.504 273.451 378.502 273.451 378.499C273.451 378.493 273.45 378.485 273.449 378.474C273.447 378.451 273.445 378.417 273.441 378.372C273.434 378.283 273.423 378.148 273.409 377.97C273.382 377.614 273.34 377.084 273.285 376.385C273.175 374.988 273.012 372.918 272.8 370.226L249.185 372.089ZM249.812 378.921C249.804 379.109 249.688 382.012 249.47 387.3L273.137 388.276C273.247 385.609 273.33 383.562 273.387 382.159C273.416 381.458 273.438 380.918 273.453 380.543C273.46 380.355 273.466 380.21 273.47 380.106C273.473 380.054 273.474 380.014 273.475 379.984C273.477 379.95 273.477 379.943 273.477 379.949L249.812 378.921ZM249.46 387.853C249.469 389.549 249.182 391.956 248.565 395.887L271.965 399.564C272.56 395.778 273.168 391.591 273.147 387.724L249.46 387.853ZM248.571 395.846C248.065 398.997 248.13 399.533 247.71 401.534L270.894 406.394C271.399 403.983 271.843 400.32 271.958 399.606L248.571 395.846ZM247.85 400.942C247.276 403.119 246.663 405.433 246.013 407.884L268.908 413.961C269.561 411.5 270.176 409.175 270.754 406.986L247.85 400.942ZM246.086 407.621C243.508 416.503 239.492 426.787 232.26 436.705L251.4 450.661C260.783 437.793 265.788 424.717 268.834 414.224L246.086 407.621ZM232.195 436.796C224.914 446.983 214.662 457.117 201.591 464.825L213.622 485.229C229.81 475.684 242.45 463.185 251.466 450.57L232.195 436.796ZM201.617 464.809C188.529 472.482 172.618 477.708 155.458 479.183L157.486 502.783C178.089 501.013 197.41 494.734 213.596 485.244L201.617 464.809ZM155.848 479.155C151.516 479.384 146.657 479.458 142.8 479.321L141.961 502.993C146.655 503.16 152.226 503.067 157.095 502.81L155.848 479.155ZM143.402 479.358C137.08 478.81 133.38 478.803 130.147 478.005L124.476 501.004C130.096 502.39 137.524 502.625 141.359 502.957L143.402 479.358ZM129.017 477.784C121.203 476.647 112.438 473.655 103.851 469.749L94.0434 491.311C103.754 495.728 114.773 499.648 125.606 501.225L129.017 477.784ZM103.921 469.781C95.9293 466.083 88.3056 460.797 80.8835 454.531L65.6033 472.631C74.0386 479.752 83.4547 486.411 93.9732 491.279L103.921 469.781ZM81.1223 454.738C74.2361 448.603 68.164 441.294 62.879 433.214L43.0548 446.179C49.2914 455.715 56.6814 464.687 65.3645 472.424L81.1223 454.738ZM63.021 433.436C58.0975 425.529 54.3613 416.742 51.6328 407.466L28.908 414.151C32.1374 425.13 36.6786 435.944 42.9128 445.956L63.021 433.436ZM51.8261 408.213C50.5306 402.446 49.4804 398.51 49.1426 394.306L25.5312 396.203C26.0424 402.566 27.6908 408.847 28.7147 413.405L51.8261 408.213ZM49.0812 393.723C48.6886 390.713 48.468 389.178 48.503 387.641L24.8216 387.101C24.7354 390.886 25.3031 394.566 25.5927 396.786L49.0812 393.723ZM48.5029 387.099L48.412 383.142L24.7307 383.687L24.8217 387.643L48.5029 387.099ZM48.4108 383.097L48.3578 381.119L24.6788 381.754L24.7319 383.732L48.4108 383.097ZM48.3564 381.072L48.3261 380.086L24.6498 380.815L24.6801 381.8L48.3564 381.072ZM48.3261 380.086L48.311 379.594L24.6347 380.322L24.6498 380.815L48.3261 380.086ZM48.3063 379.465L48.2987 379.283L24.6317 380.269L24.6393 380.451L48.3063 379.465ZM48.2896 380.453C48.9499 368.926 50.3714 361.411 53.2967 352.246L30.7309 345.044C27.1525 356.254 25.4056 365.748 24.6409 379.099L48.2896 380.453ZM53.1705 352.62C56.3387 343.728 60.5016 335.475 65.7109 328.218L46.4688 314.404C39.7927 323.703 34.6625 333.989 30.8571 344.67L53.1705 352.62ZM65.5734 328.406C71.105 321.012 77.4031 314.457 84.2987 308.899L69.4346 290.456C60.9428 297.3 53.2785 305.298 46.6063 314.216L65.5734 328.406ZM83.9263 309.188C91.5495 303.528 98.804 298.836 106.311 295.724L97.2384 273.842C87.0836 278.053 78.0109 284.078 69.807 290.168L83.9263 309.188ZM106.439 295.67C114.515 292.209 122.508 289.7 130.354 288.531L126.862 265.102C116.5 266.646 106.514 269.867 97.11 273.896L106.439 295.67ZM131.27 288.357C134.767 287.551 137.368 287.69 143.31 287.13L141.087 263.547C138.025 263.836 131.454 264.005 125.946 265.276L131.27 288.357ZM143.148 287.144L143.997 287.076L142.099 263.464L141.25 263.533L143.148 287.144ZM144.1 287.067L144.525 287.029L142.419 263.435L141.995 263.473L144.1 287.067ZM144.317 287.046L144.529 287.031L142.839 263.403L142.627 263.419L144.317 287.046ZM144.066 287.055C143.925 287.059 143.838 287.059 143.957 287.058C144.019 287.057 144.111 287.057 144.232 287.057C144.474 287.056 144.792 287.056 145.131 287.056C145.852 287.057 146.517 287.061 146.774 287.066L147.243 263.383C146.409 263.367 143.845 263.362 143.302 263.379L144.066 287.055ZM147.102 263.381L145.18 263.366L144.993 287.053L146.915 287.068L147.102 263.381ZM144.993 287.053L148.836 287.083L149.023 263.396L145.18 263.366L144.993 287.053ZM148.562 287.078C150.008 287.123 151.742 287.103 152.742 287.105C154.036 287.108 154.61 287.141 154.819 287.167L157.746 263.661C155.946 263.437 154.064 263.421 152.794 263.418C151.23 263.414 150.292 263.433 149.297 263.402L148.562 287.078ZM154.598 287.138C157 287.483 159.569 287.681 161.206 287.843C163.055 288.026 164.5 288.22 165.907 288.553L171.368 265.504C168.424 264.806 165.75 264.489 163.538 264.27C161.114 264.031 159.681 263.937 157.966 263.691L154.598 287.138ZM166.617 288.699C168.77 289.072 170.906 289.438 173.012 289.8L177.028 266.456C174.904 266.09 172.795 265.729 170.658 265.359L166.617 288.699ZM171.882 289.548C173.944 290.115 175.959 290.674 178.015 291.242L184.32 268.409C182.313 267.855 180.235 267.278 178.158 266.707L171.882 289.548ZM178.002 291.239C185.259 293.251 192.199 296.121 198.902 299.494L209.549 278.334C201.82 274.445 193.418 270.933 184.333 268.413L178.002 291.239ZM198.754 299.418C211.549 306.083 222.02 315.181 229.687 324.623L248.076 309.692C238.521 297.924 225.57 286.678 209.697 278.41L198.754 299.418Z" fill="#9575EA" mask="url(#path-1-outside-1_228_336)"/>
</svg>
