<svg width="59" height="32" viewBox="0 0 59 32" fill="none" xmlns="http://www.w3.org/2000/svg">
<mask id="path-1-outside-1_203_533" maskUnits="userSpaceOnUse" x="4.54004" y="1.42188" width="23" height="29" fill="black">
<rect fill="white" x="4.54004" y="1.42188" width="23" height="29"/>
<path d="M26.5991 9.53839L26.5645 8.92143L26.4593 8.23598C26.2801 7.36043 25.9402 6.52432 25.4663 5.77709C24.5255 4.27368 23.0212 3.17709 21.3869 2.7006L21.0804 2.61324L20.7687 2.55404C20.561 2.51531 20.3549 2.47276 20.1457 2.4622L19.834 2.43596L19.5729 2.42279C19.5972 2.42247 19.6257 2.42188 19.6257 2.42188L19.6081 2.42219L19.5729 2.42279L19.5021 2.42476C19.314 2.42956 19.1271 2.43435 18.9409 2.43916C18.0769 2.50796 17.3149 2.70795 16.5985 3.01452C15.1716 3.63342 14.0621 4.67401 13.3713 5.81037C12.6705 6.94833 12.3655 8.16363 12.3444 9.22383C12.3441 9.35632 12.3437 9.48687 12.3434 9.61519C12.3444 9.68175 12.3409 9.73711 12.346 9.81071L12.3588 9.98831C12.3773 10.2315 12.4106 10.4776 12.4509 10.6971C12.5373 11.1445 12.6625 11.5432 12.7985 11.8914C12.9341 12.2338 13.0788 12.5266 13.2196 12.7739C13.1649 12.7474 13.1117 12.7189 13.0551 12.6952C12.6525 12.5003 12.2132 12.3784 11.705 12.2981C11.5796 12.2757 11.4871 12.2747 11.3754 12.2619L11.2138 12.2469L11.1325 12.2392L11.0897 12.2376L11.0781 12.2379L11.0551 12.2386L11.009 12.2398C10.7639 12.2494 10.514 12.2453 10.2647 12.2888C9.76102 12.3381 9.26374 12.5016 8.78022 12.7029C8.29958 12.9173 7.85062 13.2139 7.44134 13.5627C7.03558 13.9176 6.68934 14.3419 6.3943 14.7995C6.10758 15.2642 5.89318 15.772 5.73894 16.2968C5.59494 16.8092 5.53382 17.436 5.54054 17.8927C5.53958 17.9487 5.54086 17.9154 5.54086 17.9314L5.54182 17.9442L5.54342 17.9698L5.54694 18.0207L5.55398 18.1224L5.5687 18.326C5.57382 18.462 5.5991 18.5957 5.6231 18.7295C5.6599 18.9989 5.73894 19.2588 5.81318 19.5183C5.98886 20.0287 6.22502 20.5141 6.5271 20.95C6.83686 21.3797 7.19334 21.7676 7.59526 22.0917C8.00358 22.406 8.43782 22.6767 8.90054 22.8645C9.36678 23.0485 9.8263 23.1868 10.3204 23.2364C10.5729 23.2777 10.7818 23.269 11.0023 23.2777C11.257 23.2741 11.4689 23.2505 11.697 23.2236C12.5908 23.0898 13.3799 22.7238 13.9975 22.2661C14.6151 21.8021 15.0637 21.2514 15.3821 20.7285C15.7066 20.2059 15.8839 19.6969 16.0007 19.2773C16.0551 19.0652 16.1025 18.876 16.1233 18.7055C16.1527 18.5365 16.1745 18.3928 16.1761 18.2773C16.1901 18.0459 16.1975 17.9224 16.1975 17.9224V17.9192C16.1975 17.9192 16.1946 17.7938 16.1892 17.5589C16.1914 17.4405 16.1748 17.2968 16.1549 17.1266C16.1431 16.9547 16.1053 16.7621 16.0615 16.5442C15.9649 16.1135 15.8116 15.5848 15.5069 15.028C15.2077 14.4715 14.7706 13.8725 14.1396 13.3599C14.0007 13.2558 13.8551 13.1512 13.7031 13.0511C13.5457 12.7266 13.3617 12.2997 13.2273 11.7544C13.1421 11.4155 13.0785 11.0341 13.049 10.619C13.033 10.4075 13.0263 10.2018 13.0317 9.97519L13.0372 9.79727C13.0388 9.75151 13.0484 9.68655 13.0535 9.63151C13.0657 9.51695 13.0781 9.40047 13.0906 9.28175C13.0983 9.16303 13.1191 9.04431 13.1482 8.92495C13.1722 8.80526 13.1969 8.68399 13.2215 8.56111C13.2813 8.3179 13.3636 8.07279 13.4474 7.82414C13.5581 7.58445 13.6407 7.32687 13.7866 7.09166C13.8551 6.97229 13.9156 6.8475 13.9882 6.7275C14.0666 6.61133 14.146 6.4939 14.226 6.37517C14.5639 5.91596 14.9569 5.46286 15.4471 5.09581C15.9271 4.72236 16.4641 4.37965 17.0705 4.1598C17.6689 3.9358 18.3367 3.7934 18.9591 3.74956C19.1453 3.74924 19.3325 3.74892 19.5204 3.7486H19.5911L19.6221 3.74828C19.6237 3.74828 19.6228 3.74828 19.6263 3.7486L19.7533 3.76044L20.0081 3.78348C20.1793 3.79084 20.3473 3.8286 20.5165 3.86092L20.7713 3.90892L21.0209 3.98284C22.3639 4.34286 23.6193 5.22121 24.466 6.4379C24.8887 7.04496 25.2039 7.73964 25.3777 8.47023L25.4813 9.00079L25.5367 9.61615L25.5377 9.87375C25.5361 9.96752 25.5425 10.0616 25.5306 10.1554C25.5143 10.3432 25.5047 10.532 25.4679 10.7198C25.3514 11.4731 25.0861 12.2155 24.7495 12.9336C24.4161 13.654 24.0132 14.3525 23.602 15.0498C22.7575 16.4543 22.0097 17.8658 21.25 19.2133C20.4993 20.5663 19.7735 21.8741 19.0855 23.1145C19.0001 23.27 18.9153 23.4242 18.8311 23.5772L18.7053 23.8066L18.5825 24.0572C18.4324 24.3948 18.3153 24.7433 18.2657 25.0972C18.2106 25.4492 18.1949 25.8021 18.2353 26.1426C18.2669 26.4838 18.3453 26.8133 18.4625 27.1199C18.6897 27.7398 19.0634 28.2578 19.5213 28.6543C19.6353 28.7635 19.7479 28.8326 19.8593 28.9164C19.985 29.0076 20.1069 29.0658 20.2282 29.1398C20.3505 29.2076 20.4804 29.2562 20.6029 29.3135C20.7284 29.3651 20.858 29.3993 20.9821 29.4415C22.0042 29.7263 22.9495 29.5254 23.6157 29.2153C24.2874 28.887 24.7031 28.4607 24.946 28.149C25.0749 27.9938 25.1469 27.8658 25.1997 27.781C25.2522 27.6959 25.2794 27.6521 25.2794 27.6521C25.2973 27.623 25.2893 27.5846 25.2609 27.5654C25.2314 27.5455 25.1917 27.5535 25.1719 27.5826C25.1719 27.5826 25.1431 27.6255 25.0874 27.7084C25.0317 27.7913 24.9521 27.919 24.8269 28.0566C24.5876 28.3407 24.1709 28.735 23.5274 29.0185C22.8877 29.2867 21.9978 29.4358 21.0737 29.1378C20.9617 29.094 20.8445 29.0588 20.7319 29.0073C20.6221 28.95 20.5057 28.902 20.3969 28.8358C20.2932 28.7663 20.1719 28.7007 20.0785 28.6265C19.9735 28.541 19.8519 28.4572 19.7671 28.3647C19.3866 28.0079 19.0612 27.5238 18.8855 26.9708C18.7921 26.6959 18.7345 26.4025 18.7188 26.1017C18.6945 25.8015 18.721 25.4934 18.7809 25.1893C18.8353 24.8831 18.9498 24.5862 19.0897 24.301L19.2033 24.0898L19.3377 23.8661C19.4279 23.7164 19.5185 23.5653 19.61 23.4133C20.3364 22.1951 21.1025 20.9103 21.8951 19.5813C22.6941 18.2558 23.4852 16.863 24.3556 15.5071C24.7892 14.8178 25.2276 14.1084 25.6077 13.3471C25.9898 12.5893 26.3143 11.7724 26.4775 10.8965C26.5265 10.6798 26.5473 10.4565 26.5732 10.2344C26.5898 10.1237 26.5879 10.0107 26.5933 9.89871L26.5991 9.73007L26.6017 9.64591L26.6029 9.60367L26.5991 9.53839ZM15.1082 15.2895C15.4791 15.7362 15.6932 16.2095 15.8321 16.6075C15.8647 16.7087 15.8957 16.804 15.9249 16.8939C15.9492 16.9852 15.962 17.0731 15.9793 17.1538C16.0141 17.3157 16.0385 17.4546 16.0417 17.5692C16.0596 17.7964 16.0692 17.9186 16.0692 17.9186C16.0689 17.926 16.0641 18.0463 16.0548 18.2712C16.0554 18.3887 16.0365 18.5279 16.0109 18.6908C15.9978 18.7724 15.9898 18.861 15.9703 18.9541C15.946 19.0463 15.9201 19.1442 15.8925 19.2479C15.7738 19.6569 15.5834 20.15 15.2327 20.6309C14.8887 21.1122 14.4055 21.59 13.7879 21.9541C13.17 22.3164 12.4263 22.5593 11.6292 22.6277C11.4349 22.638 11.2148 22.6415 11.0343 22.6351C10.8199 22.6165 10.585 22.6114 10.3981 22.5653C10.0045 22.5081 9.58694 22.3621 9.2007 22.1865C8.80998 22.0056 8.4503 21.7535 8.11558 21.4709C7.78694 21.1781 7.50278 20.8345 7.25958 20.4626C7.02406 20.0844 6.84934 19.6706 6.72358 19.2431C6.67462 19.0252 6.61766 18.8095 6.59974 18.5864C6.58534 18.476 6.5687 18.366 6.57126 18.2536L6.56742 18.0866L6.56518 18.0031L6.5639 17.9615L6.56326 17.9407L6.56294 17.933C6.59302 17.4079 6.6599 17.0488 6.79718 16.6187C6.94438 16.2056 7.14054 15.8143 7.39142 15.4648C7.64902 15.1205 7.94374 14.8133 8.26854 14.5515C8.60262 14.3035 8.94726 14.0773 9.32006 13.9227C9.68902 13.7646 10.0685 13.6437 10.4529 13.5864C10.6429 13.5426 10.8365 13.5419 11.0266 13.524L11.0625 13.5211L11.0804 13.5195L11.0893 13.5189C11.0993 13.5186 11.1973 13.5186 11.2297 13.5192L11.1485 13.5186L11.3108 13.5199C11.4138 13.5231 11.5364 13.5167 11.6212 13.5272C11.7949 13.5522 11.9591 13.5519 12.1428 13.5954C12.2333 13.6111 12.3229 13.6264 12.4122 13.6418C12.4996 13.6658 12.586 13.6898 12.6717 13.7135C13.0167 13.8091 13.3405 13.9438 13.6452 14.0971C14.2503 14.4123 14.7447 14.8418 15.1082 15.2895Z"/>
</mask>
<path d="M26.5991 9.53839L26.5645 8.92143L26.4593 8.23598C26.2801 7.36043 25.9402 6.52432 25.4663 5.77709C24.5255 4.27368 23.0212 3.17709 21.3869 2.7006L21.0804 2.61324L20.7687 2.55404C20.561 2.51531 20.3549 2.47276 20.1457 2.4622L19.834 2.43596L19.5729 2.42279C19.5972 2.42247 19.6257 2.42188 19.6257 2.42188L19.6081 2.42219L19.5729 2.42279L19.5021 2.42476C19.314 2.42956 19.1271 2.43435 18.9409 2.43916C18.0769 2.50796 17.3149 2.70795 16.5985 3.01452C15.1716 3.63342 14.0621 4.67401 13.3713 5.81037C12.6705 6.94833 12.3655 8.16363 12.3444 9.22383C12.3441 9.35632 12.3437 9.48687 12.3434 9.61519C12.3444 9.68175 12.3409 9.73711 12.346 9.81071L12.3588 9.98831C12.3773 10.2315 12.4106 10.4776 12.4509 10.6971C12.5373 11.1445 12.6625 11.5432 12.7985 11.8914C12.9341 12.2338 13.0788 12.5266 13.2196 12.7739C13.1649 12.7474 13.1117 12.7189 13.0551 12.6952C12.6525 12.5003 12.2132 12.3784 11.705 12.2981C11.5796 12.2757 11.4871 12.2747 11.3754 12.2619L11.2138 12.2469L11.1325 12.2392L11.0897 12.2376L11.0781 12.2379L11.0551 12.2386L11.009 12.2398C10.7639 12.2494 10.514 12.2453 10.2647 12.2888C9.76102 12.3381 9.26374 12.5016 8.78022 12.7029C8.29958 12.9173 7.85062 13.2139 7.44134 13.5627C7.03558 13.9176 6.68934 14.3419 6.3943 14.7995C6.10758 15.2642 5.89318 15.772 5.73894 16.2968C5.59494 16.8092 5.53382 17.436 5.54054 17.8927C5.53958 17.9487 5.54086 17.9154 5.54086 17.9314L5.54182 17.9442L5.54342 17.9698L5.54694 18.0207L5.55398 18.1224L5.5687 18.326C5.57382 18.462 5.5991 18.5957 5.6231 18.7295C5.6599 18.9989 5.73894 19.2588 5.81318 19.5183C5.98886 20.0287 6.22502 20.5141 6.5271 20.95C6.83686 21.3797 7.19334 21.7676 7.59526 22.0917C8.00358 22.406 8.43782 22.6767 8.90054 22.8645C9.36678 23.0485 9.8263 23.1868 10.3204 23.2364C10.5729 23.2777 10.7818 23.269 11.0023 23.2777C11.257 23.2741 11.4689 23.2505 11.697 23.2236C12.5908 23.0898 13.3799 22.7238 13.9975 22.2661C14.6151 21.8021 15.0637 21.2514 15.3821 20.7285C15.7066 20.2059 15.8839 19.6969 16.0007 19.2773C16.0551 19.0652 16.1025 18.876 16.1233 18.7055C16.1527 18.5365 16.1745 18.3928 16.1761 18.2773C16.1901 18.0459 16.1975 17.9224 16.1975 17.9224V17.9192C16.1975 17.9192 16.1946 17.7938 16.1892 17.5589C16.1914 17.4405 16.1748 17.2968 16.1549 17.1266C16.1431 16.9547 16.1053 16.7621 16.0615 16.5442C15.9649 16.1135 15.8116 15.5848 15.5069 15.028C15.2077 14.4715 14.7706 13.8725 14.1396 13.3599C14.0007 13.2558 13.8551 13.1512 13.7031 13.0511C13.5457 12.7266 13.3617 12.2997 13.2273 11.7544C13.1421 11.4155 13.0785 11.0341 13.049 10.619C13.033 10.4075 13.0263 10.2018 13.0317 9.97519L13.0372 9.79727C13.0388 9.75151 13.0484 9.68655 13.0535 9.63151C13.0657 9.51695 13.0781 9.40047 13.0906 9.28175C13.0983 9.16303 13.1191 9.04431 13.1482 8.92495C13.1722 8.80526 13.1969 8.68399 13.2215 8.56111C13.2813 8.3179 13.3636 8.07279 13.4474 7.82414C13.5581 7.58445 13.6407 7.32687 13.7866 7.09166C13.8551 6.97229 13.9156 6.8475 13.9882 6.7275C14.0666 6.61133 14.146 6.4939 14.226 6.37517C14.5639 5.91596 14.9569 5.46286 15.4471 5.09581C15.9271 4.72236 16.4641 4.37965 17.0705 4.1598C17.6689 3.9358 18.3367 3.7934 18.9591 3.74956C19.1453 3.74924 19.3325 3.74892 19.5204 3.7486H19.5911L19.6221 3.74828C19.6237 3.74828 19.6228 3.74828 19.6263 3.7486L19.7533 3.76044L20.0081 3.78348C20.1793 3.79084 20.3473 3.8286 20.5165 3.86092L20.7713 3.90892L21.0209 3.98284C22.3639 4.34286 23.6193 5.22121 24.466 6.4379C24.8887 7.04496 25.2039 7.73964 25.3777 8.47023L25.4813 9.00079L25.5367 9.61615L25.5377 9.87375C25.5361 9.96752 25.5425 10.0616 25.5306 10.1554C25.5143 10.3432 25.5047 10.532 25.4679 10.7198C25.3514 11.4731 25.0861 12.2155 24.7495 12.9336C24.4161 13.654 24.0132 14.3525 23.602 15.0498C22.7575 16.4543 22.0097 17.8658 21.25 19.2133C20.4993 20.5663 19.7735 21.8741 19.0855 23.1145C19.0001 23.27 18.9153 23.4242 18.8311 23.5772L18.7053 23.8066L18.5825 24.0572C18.4324 24.3948 18.3153 24.7433 18.2657 25.0972C18.2106 25.4492 18.1949 25.8021 18.2353 26.1426C18.2669 26.4838 18.3453 26.8133 18.4625 27.1199C18.6897 27.7398 19.0634 28.2578 19.5213 28.6543C19.6353 28.7635 19.7479 28.8326 19.8593 28.9164C19.985 29.0076 20.1069 29.0658 20.2282 29.1398C20.3505 29.2076 20.4804 29.2562 20.6029 29.3135C20.7284 29.3651 20.858 29.3993 20.9821 29.4415C22.0042 29.7263 22.9495 29.5254 23.6157 29.2153C24.2874 28.887 24.7031 28.4607 24.946 28.149C25.0749 27.9938 25.1469 27.8658 25.1997 27.781C25.2522 27.6959 25.2794 27.6521 25.2794 27.6521C25.2973 27.623 25.2893 27.5846 25.2609 27.5654C25.2314 27.5455 25.1917 27.5535 25.1719 27.5826C25.1719 27.5826 25.1431 27.6255 25.0874 27.7084C25.0317 27.7913 24.9521 27.919 24.8269 28.0566C24.5876 28.3407 24.1709 28.735 23.5274 29.0185C22.8877 29.2867 21.9978 29.4358 21.0737 29.1378C20.9617 29.094 20.8445 29.0588 20.7319 29.0073C20.6221 28.95 20.5057 28.902 20.3969 28.8358C20.2932 28.7663 20.1719 28.7007 20.0785 28.6265C19.9735 28.541 19.8519 28.4572 19.7671 28.3647C19.3866 28.0079 19.0612 27.5238 18.8855 26.9708C18.7921 26.6959 18.7345 26.4025 18.7188 26.1017C18.6945 25.8015 18.721 25.4934 18.7809 25.1893C18.8353 24.8831 18.9498 24.5862 19.0897 24.301L19.2033 24.0898L19.3377 23.8661C19.4279 23.7164 19.5185 23.5653 19.61 23.4133C20.3364 22.1951 21.1025 20.9103 21.8951 19.5813C22.6941 18.2558 23.4852 16.863 24.3556 15.5071C24.7892 14.8178 25.2276 14.1084 25.6077 13.3471C25.9898 12.5893 26.3143 11.7724 26.4775 10.8965C26.5265 10.6798 26.5473 10.4565 26.5732 10.2344C26.5898 10.1237 26.5879 10.0107 26.5933 9.89871L26.5991 9.73007L26.6017 9.64591L26.6029 9.60367L26.5991 9.53839ZM15.1082 15.2895C15.4791 15.7362 15.6932 16.2095 15.8321 16.6075C15.8647 16.7087 15.8957 16.804 15.9249 16.8939C15.9492 16.9852 15.962 17.0731 15.9793 17.1538C16.0141 17.3157 16.0385 17.4546 16.0417 17.5692C16.0596 17.7964 16.0692 17.9186 16.0692 17.9186C16.0689 17.926 16.0641 18.0463 16.0548 18.2712C16.0554 18.3887 16.0365 18.5279 16.0109 18.6908C15.9978 18.7724 15.9898 18.861 15.9703 18.9541C15.946 19.0463 15.9201 19.1442 15.8925 19.2479C15.7738 19.6569 15.5834 20.15 15.2327 20.6309C14.8887 21.1122 14.4055 21.59 13.7879 21.9541C13.17 22.3164 12.4263 22.5593 11.6292 22.6277C11.4349 22.638 11.2148 22.6415 11.0343 22.6351C10.8199 22.6165 10.585 22.6114 10.3981 22.5653C10.0045 22.5081 9.58694 22.3621 9.2007 22.1865C8.80998 22.0056 8.4503 21.7535 8.11558 21.4709C7.78694 21.1781 7.50278 20.8345 7.25958 20.4626C7.02406 20.0844 6.84934 19.6706 6.72358 19.2431C6.67462 19.0252 6.61766 18.8095 6.59974 18.5864C6.58534 18.476 6.5687 18.366 6.57126 18.2536L6.56742 18.0866L6.56518 18.0031L6.5639 17.9615L6.56326 17.9407L6.56294 17.933C6.59302 17.4079 6.6599 17.0488 6.79718 16.6187C6.94438 16.2056 7.14054 15.8143 7.39142 15.4648C7.64902 15.1205 7.94374 14.8133 8.26854 14.5515C8.60262 14.3035 8.94726 14.0773 9.32006 13.9227C9.68902 13.7646 10.0685 13.6437 10.4529 13.5864C10.6429 13.5426 10.8365 13.5419 11.0266 13.524L11.0625 13.5211L11.0804 13.5195L11.0893 13.5189C11.0993 13.5186 11.1973 13.5186 11.2297 13.5192L11.1485 13.5186L11.3108 13.5199C11.4138 13.5231 11.5364 13.5167 11.6212 13.5272C11.7949 13.5522 11.9591 13.5519 12.1428 13.5954C12.2333 13.6111 12.3229 13.6264 12.4122 13.6418C12.4996 13.6658 12.586 13.6898 12.6717 13.7135C13.0167 13.8091 13.3405 13.9438 13.6452 14.0971C14.2503 14.4123 14.7447 14.8418 15.1082 15.2895Z" fill="#9575EA"/>
<path d="M26.5991 9.53839L26.0999 9.56636L26.1 9.56775L26.5991 9.53839ZM26.5645 8.92143L27.0638 8.89346L27.0624 8.86937L27.0587 8.84552L26.5645 8.92143ZM26.4593 8.23598L26.9535 8.16008L26.9516 8.14785L26.9491 8.13573L26.4593 8.23598ZM25.4663 5.77709L25.0424 6.04233L25.0441 6.04489L25.4663 5.77709ZM21.3869 2.7006L21.5269 2.22058L21.524 2.21974L21.3869 2.7006ZM21.0804 2.61324L21.2174 2.13238L21.1958 2.12622L21.1737 2.12202L21.0804 2.61324ZM20.7687 2.55404L20.862 2.06282L20.8603 2.06251L20.7687 2.55404ZM20.1457 2.4622L20.1037 2.96043L20.1121 2.96114L20.1205 2.96156L20.1457 2.4622ZM19.834 2.43596L19.8759 1.93772L19.8676 1.93701L19.8592 1.93659L19.834 2.43596ZM19.5729 2.42279L19.5645 1.92283L19.5589 1.92298L19.5729 2.42279ZM19.6257 2.42188L19.636 2.92177L19.6166 1.92196L19.6257 2.42188ZM19.6081 2.42219L19.6164 2.92213L19.6171 2.92211L19.6081 2.42219ZM19.5021 2.42476L19.5149 2.92459L19.5161 2.92456L19.5021 2.42476ZM18.9409 2.43916L18.928 1.93932L18.9146 1.93967L18.9012 1.94073L18.9409 2.43916ZM16.5985 3.01452L16.4018 2.55483L16.3995 2.55581L16.5985 3.01452ZM13.3713 5.81037L13.797 6.07257L13.7985 6.07012L13.3713 5.81037ZM12.3444 9.22383L11.8444 9.21387L11.8444 9.22262L12.3444 9.22383ZM12.3434 9.61519L11.8433 9.61395L11.8435 9.6224L12.3434 9.61519ZM12.346 9.81071L11.8472 9.84541L11.8473 9.84666L12.346 9.81071ZM12.3588 9.98831L11.8601 10.0243L11.8602 10.0264L12.3588 9.98831ZM12.4509 10.6971L11.9591 10.7874L11.96 10.7919L12.4509 10.6971ZM12.7985 11.8914L12.3327 12.0733L12.3336 12.0756L12.7985 11.8914ZM13.2196 12.7739L13.0012 13.2237L14.4517 13.9278L13.6541 12.5266L13.2196 12.7739ZM13.0551 12.6952L12.8372 13.1452L12.8496 13.1512L12.8622 13.1565L13.0551 12.6952ZM11.705 12.2981L11.6171 12.7904L11.627 12.792L11.705 12.2981ZM11.3754 12.2619L11.4324 11.7651L11.4218 11.7641L11.3754 12.2619ZM11.2138 12.2469L11.1668 12.7447L11.1675 12.7447L11.2138 12.2469ZM11.1325 12.2392L11.1796 11.7414L11.1654 11.7401L11.1512 11.7396L11.1325 12.2392ZM11.0897 12.2376L11.1083 11.738L11.092 11.7373L11.0758 11.7378L11.0897 12.2376ZM11.0781 12.2379L11.092 12.7377L11.0781 12.2379ZM11.0551 12.2386L11.0412 11.7388H11.0412L11.0551 12.2386ZM11.009 12.2398L10.9951 11.74L10.9894 11.7402L11.009 12.2398ZM10.2647 12.2888L10.3134 12.7864L10.3321 12.7846L10.3507 12.7814L10.2647 12.2888ZM8.78022 12.7029L8.58799 12.2411L8.57652 12.2463L8.78022 12.7029ZM7.44134 13.5627L7.11699 13.1822L7.11216 13.1864L7.44134 13.5627ZM6.3943 14.7995L5.97398 14.5285L5.96879 14.537L6.3943 14.7995ZM5.73894 16.2968L5.25919 16.1558L5.25759 16.1615L5.73894 16.2968ZM5.54054 17.8927L6.04046 17.9012L6.0406 17.8933L6.04048 17.8853L5.54054 17.8927ZM5.54086 17.9314H5.04086V17.9501L5.04226 17.9688L5.54086 17.9314ZM5.54182 17.9442L6.04088 17.913L6.04042 17.9068L5.54182 17.9442ZM5.54342 17.9698L5.04438 18.001L5.04461 18.0043L5.54342 17.9698ZM5.54694 18.0207L6.04574 17.9862L6.04574 17.9862L5.54694 18.0207ZM5.55398 18.1224L5.05517 18.1569L5.05528 18.1585L5.55398 18.1224ZM5.5687 18.326L6.06834 18.3071L6.06802 18.2985L6.06739 18.2899L5.5687 18.326ZM5.6231 18.7295L6.1185 18.6618L6.11708 18.6515L6.11524 18.6412L5.6231 18.7295ZM5.81318 19.5183L5.33246 19.6558L5.33609 19.6685L5.3404 19.681L5.81318 19.5183ZM6.5271 20.95L6.11608 21.2348L6.12147 21.2423L6.5271 20.95ZM7.59526 22.0917L7.28127 22.481L7.2903 22.488L7.59526 22.0917ZM8.90054 22.8645L8.71245 23.3278L8.71698 23.3296L8.90054 22.8645ZM10.3204 23.2364L10.4011 22.7429L10.3858 22.7404L10.3703 22.7389L10.3204 23.2364ZM11.0023 23.2777L10.9827 23.7773L10.996 23.7778L11.0092 23.7776L11.0023 23.2777ZM11.697 23.2236L11.7555 23.7201L11.7633 23.7192L11.771 23.7181L11.697 23.2236ZM13.9975 22.2661L14.2952 22.6679L14.2978 22.6659L13.9975 22.2661ZM15.3821 20.7285L14.9573 20.4648L14.9551 20.4685L15.3821 20.7285ZM16.0007 19.2773L16.4825 19.4115L16.485 19.4015L16.0007 19.2773ZM16.1233 18.7055L15.6307 18.6197L15.6285 18.6323L15.6269 18.645L16.1233 18.7055ZM16.1761 18.2773L15.677 18.2469L15.6763 18.2587L15.6761 18.2704L16.1761 18.2773ZM16.1975 17.9224L16.6966 17.9522L16.6975 17.9373V17.9224H16.1975ZM16.1975 17.9192H16.6976L16.6974 17.9078L16.1975 17.9192ZM16.1892 17.5589L15.6893 17.5495L15.6891 17.56L15.6893 17.5705L16.1892 17.5589ZM16.1549 17.1266L15.6561 17.161L15.6569 17.1727L15.6583 17.1845L16.1549 17.1266ZM16.0615 16.5442L16.5518 16.4456L16.5494 16.4347L16.0615 16.5442ZM15.5069 15.028L15.0665 15.2648L15.0683 15.268L15.5069 15.028ZM14.1396 13.3599L14.4549 12.9718L14.4472 12.9656L14.4393 12.9596L14.1396 13.3599ZM13.7031 13.0511L13.2533 13.2693L13.3132 13.3929L13.428 13.4686L13.7031 13.0511ZM13.2273 11.7544L13.7127 11.6347L13.7122 11.6326L13.2273 11.7544ZM13.049 10.619L13.5478 10.5837L13.5476 10.5813L13.049 10.619ZM13.0317 9.97519L12.532 9.95991L12.5319 9.96319L13.0317 9.97519ZM13.0372 9.79727L12.5375 9.7798L12.5374 9.78199L13.0372 9.79727ZM13.0535 9.63151L12.5562 9.57873L12.5556 9.5852L13.0535 9.63151ZM13.0906 9.28175L13.5879 9.33402L13.5889 9.32404L13.5896 9.31403L13.0906 9.28175ZM13.1482 8.92495L13.634 9.04345L13.6364 9.0334L13.6385 9.02326L13.1482 8.92495ZM13.2215 8.56111L12.736 8.44165L12.7334 8.45218L12.7313 8.46281L13.2215 8.56111ZM13.4474 7.82414L12.9935 7.61447L12.9822 7.63889L12.9736 7.66439L13.4474 7.82414ZM13.7866 7.09166L14.2115 7.35525L14.216 7.34794L14.2203 7.34047L13.7866 7.09166ZM13.9882 6.7275L13.5738 6.44779L13.5669 6.45802L13.5605 6.46858L13.9882 6.7275ZM14.226 6.37517L13.8233 6.07883L13.8171 6.08718L13.8113 6.09577L14.226 6.37517ZM15.4471 5.09581L15.7468 5.49612L15.7541 5.49044L15.4471 5.09581ZM17.0705 4.1598L17.2409 4.62989L17.2458 4.62807L17.0705 4.1598ZM18.9591 3.74956L18.9582 3.24956L18.9411 3.24959L18.924 3.2508L18.9591 3.74956ZM19.5204 3.7486V3.2486L19.5195 3.2486L19.5204 3.7486ZM19.5911 3.7486V4.24863L19.5963 4.24858L19.5911 3.7486ZM19.6221 3.74828V3.24826L19.617 3.24831L19.6221 3.74828ZM19.6263 3.7486L19.6727 3.25076L19.6716 3.25066L19.6263 3.7486ZM19.7533 3.76044L19.7069 4.25829L19.7083 4.25841L19.7533 3.76044ZM20.0081 3.78348L19.963 4.28145L19.9748 4.28251L19.9866 4.28302L20.0081 3.78348ZM20.5165 3.86092L20.4228 4.35205L20.4239 4.35227L20.5165 3.86092ZM20.7713 3.90892L20.9132 3.4295L20.8888 3.42228L20.8638 3.41757L20.7713 3.90892ZM21.0209 3.98284L20.8788 4.46242L20.8914 4.46579L21.0209 3.98284ZM24.466 6.4379L24.0556 6.7235L24.0557 6.72362L24.466 6.4379ZM25.3777 8.47023L25.8684 8.37433L25.8664 8.36439L25.8641 8.35453L25.3777 8.47023ZM25.4813 9.00079L25.9793 8.95599L25.977 8.93025L25.9721 8.9049L25.4813 9.00079ZM25.5367 9.61615L26.0367 9.61429L26.0366 9.59278L26.0347 9.57135L25.5367 9.61615ZM25.5377 9.87375L26.0377 9.88229L26.0377 9.87189L25.5377 9.87375ZM25.5306 10.1554L25.0346 10.0927L25.0333 10.1024L25.0325 10.1121L25.5306 10.1554ZM25.4679 10.7198L24.9772 10.6237L24.9753 10.6335L24.9738 10.6434L25.4679 10.7198ZM24.7495 12.9336L24.2968 12.7214L24.2958 12.7236L24.7495 12.9336ZM23.602 15.0498L24.0305 15.3074L24.0327 15.3038L23.602 15.0498ZM21.25 19.2133L20.8144 18.9678L20.8128 18.9707L21.25 19.2133ZM19.0855 23.1145L18.6483 22.8719L18.6473 22.8737L19.0855 23.1145ZM18.8311 23.5772L18.393 23.3362L18.3926 23.3369L18.8311 23.5772ZM18.7053 23.8066L18.2669 23.5663L18.2614 23.5763L18.2564 23.5865L18.7053 23.8066ZM18.5825 24.0572L18.1335 23.837L18.1294 23.8455L18.1256 23.8541L18.5825 24.0572ZM18.2657 25.0972L18.7597 25.1744L18.7608 25.1666L18.2657 25.0972ZM18.2353 26.1426L18.7333 26.0964L18.7318 26.0838L18.2353 26.1426ZM18.4625 27.1199L18.932 26.9478L18.9295 26.9415L18.4625 27.1199ZM19.5213 28.6543L19.8672 28.2933L19.8581 28.2846L19.8486 28.2763L19.5213 28.6543ZM19.8593 28.9164L19.5585 29.3159L19.5657 29.3212L19.8593 28.9164ZM20.2282 29.1398L19.968 29.5667L19.9767 29.572L19.9856 29.577L20.2282 29.1398ZM20.6029 29.3135L20.3912 29.7665L20.402 29.7715L20.413 29.776L20.6029 29.3135ZM20.9821 29.4415L20.8211 29.9149L20.8344 29.9194L20.8479 29.9232L20.9821 29.4415ZM23.6157 29.2153L23.8268 29.6687L23.8353 29.6645L23.6157 29.2153ZM24.946 28.149L24.5614 27.8295L24.5564 27.8355L24.5516 27.8417L24.946 28.149ZM25.1997 27.781L25.6242 28.0453L25.6254 28.0434L25.1997 27.781ZM25.2794 27.6521L25.7043 27.9157L25.7053 27.9141L25.2794 27.6521ZM25.2609 27.5654L25.5404 27.1508L25.5403 27.1507L25.2609 27.5654ZM25.1719 27.5826L24.7587 27.3011L24.7568 27.3038L25.1719 27.5826ZM24.8269 28.0566L24.457 27.7202L24.4506 27.7272L24.4445 27.7345L24.8269 28.0566ZM23.5274 29.0185L23.7208 29.4797L23.729 29.476L23.5274 29.0185ZM21.0737 29.1378L20.8914 29.6034L20.9057 29.609L20.9202 29.6137L21.0737 29.1378ZM20.7319 29.0073L20.5006 29.4506L20.5121 29.4566L20.5239 29.462L20.7319 29.0073ZM20.3969 28.8358L20.1186 29.2512L20.1276 29.2572L20.1368 29.2628L20.3969 28.8358ZM20.0785 28.6265L19.7628 29.0143L19.7674 29.018L20.0785 28.6265ZM19.7671 28.3647L20.1356 28.0268L20.1229 28.0129L20.1091 28L19.7671 28.3647ZM18.8855 26.9708L19.3621 26.8194L19.3589 26.8099L18.8855 26.9708ZM18.7188 26.1017L19.2181 26.0756L19.2177 26.0685L19.2171 26.0613L18.7188 26.1017ZM18.7809 25.1893L19.2715 25.2859L19.2732 25.2768L18.7809 25.1893ZM19.0897 24.301L18.6493 24.0642L18.6449 24.0724L18.6407 24.0809L19.0897 24.301ZM19.2033 24.0898L18.7747 23.8323L18.7685 23.8425L18.7629 23.853L19.2033 24.0898ZM19.3377 23.8661L18.9094 23.6081L18.9091 23.6086L19.3377 23.8661ZM19.61 23.4133L20.0383 23.6712L20.0394 23.6694L19.61 23.4133ZM21.8951 19.5813L21.4669 19.3232L21.4657 19.3252L21.8951 19.5813ZM24.3556 15.5071L24.7764 15.7772L24.7788 15.7733L24.3556 15.5071ZM25.6077 13.3471L25.1613 13.1219L25.1604 13.1237L25.6077 13.3471ZM26.4775 10.8965L25.9898 10.7863L25.9877 10.7955L25.986 10.8049L26.4775 10.8965ZM26.5732 10.2344L26.0787 10.1601L26.0775 10.1682L26.0765 10.1764L26.5732 10.2344ZM26.5933 9.89871L27.0928 9.92297L27.093 9.91578L26.5933 9.89871ZM26.5991 9.73007L27.0988 9.74714L27.0989 9.74526L26.5991 9.73007ZM26.6017 9.64591L27.1014 9.6611V9.66108L26.6017 9.64591ZM26.6029 9.60367L27.1027 9.61884L27.1034 9.59656L27.1021 9.57432L26.6029 9.60367ZM15.1082 15.2895L14.72 15.6047L14.7235 15.6088L15.1082 15.2895ZM15.8321 16.6075L16.308 16.4539L16.3042 16.4429L15.8321 16.6075ZM15.9249 16.8939L16.408 16.7651L16.4046 16.7524L16.4005 16.7399L15.9249 16.8939ZM15.9793 17.1538L15.4904 17.2586L15.4905 17.2591L15.9793 17.1538ZM16.0417 17.5692L15.5419 17.5831L15.5422 17.5958L15.5432 17.6085L16.0417 17.5692ZM16.0692 17.9186L16.5687 17.9403L16.57 17.9098L16.5676 17.8794L16.0692 17.9186ZM16.0548 18.2712L15.5552 18.2506L15.5547 18.2623L15.5548 18.274L16.0548 18.2712ZM16.0109 18.6908L16.5046 18.7701L16.5049 18.7684L16.0109 18.6908ZM15.9703 18.9541L16.4537 19.0817L16.457 19.0693L16.4597 19.0567L15.9703 18.9541ZM15.8925 19.2479L16.3728 19.3873L16.3758 19.3762L15.8925 19.2479ZM15.2327 20.6309L14.8287 20.3363L14.8259 20.3402L15.2327 20.6309ZM13.7879 21.9541L14.0408 22.3855L14.0419 22.3848L13.7879 21.9541ZM11.6292 22.6277L11.6555 23.127L11.6637 23.1266L11.672 23.1259L11.6292 22.6277ZM11.0343 22.6351L10.9912 23.1332L11.0039 23.1343L11.0166 23.1348L11.0343 22.6351ZM10.3981 22.5653L10.5178 22.0799L10.4942 22.0741L10.4701 22.0705L10.3981 22.5653ZM9.2007 22.1865L8.99071 22.6402L8.99368 22.6416L9.2007 22.1865ZM8.11558 21.4709L7.78284 21.8444L7.79304 21.853L8.11558 21.4709ZM7.25958 20.4626L6.83502 20.727L6.84113 20.7363L7.25958 20.4626ZM6.72358 19.2431L6.23574 19.3527L6.2393 19.3686L6.2439 19.3842L6.72358 19.2431ZM6.59974 18.5864L7.09813 18.5464L7.09714 18.534L7.09554 18.5218L6.59974 18.5864ZM6.57126 18.2536L7.07113 18.265L7.07139 18.2536L7.07112 18.2421L6.57126 18.2536ZM6.56742 18.0866L7.06729 18.0751L7.06724 18.0732L6.56742 18.0866ZM6.56518 18.0031L7.065 17.9897L7.06494 17.9877L6.56518 18.0031ZM6.5639 17.9615L7.06366 17.9461L7.06366 17.9461L6.5639 17.9615ZM6.56326 17.9407L7.06305 17.9253L7.06282 17.9199L6.56326 17.9407ZM6.56294 17.933L6.06375 17.9044L6.06234 17.9291L6.06337 17.9538L6.56294 17.933ZM6.79718 16.6187L6.32618 16.4509L6.32338 16.4588L6.32085 16.4667L6.79718 16.6187ZM7.39142 15.4648L6.99098 15.1652L6.98525 15.1732L7.39142 15.4648ZM8.26854 14.5515L7.9705 14.1501L7.96252 14.156L7.95478 14.1622L8.26854 14.5515ZM9.32006 13.9227L9.51157 14.3846L9.51697 14.3823L9.32006 13.9227ZM10.4529 13.5864L10.5266 14.0809L10.546 14.078L10.5652 14.0736L10.4529 13.5864ZM11.0266 13.524L10.9865 13.0256L10.9797 13.0262L11.0266 13.524ZM11.0625 13.5211L11.1025 14.0195L11.1069 14.0192L11.0625 13.5211ZM11.0804 13.5195L11.0447 13.0207L11.0359 13.0215L11.0804 13.5195ZM11.0893 13.5189L11.0732 13.0192L11.0634 13.0195L11.0537 13.0202L11.0893 13.5189ZM11.2297 13.5192L11.2257 14.0192L11.2396 13.0193L11.2297 13.5192ZM11.3108 13.5199L11.3263 13.02L11.3147 13.0199L11.3108 13.5199ZM11.6212 13.5272L11.6923 13.0322L11.683 13.031L11.6212 13.5272ZM12.1428 13.5954L12.0275 14.0819L12.0424 14.0854L12.0575 14.088L12.1428 13.5954ZM12.4122 13.6418L12.5447 13.1596L12.5211 13.1532L12.497 13.149L12.4122 13.6418ZM12.6717 13.7135L12.8054 13.2316L12.8048 13.2315L12.6717 13.7135ZM13.6452 14.0971L13.8762 13.6536L13.8699 13.6505L13.6452 14.0971ZM27.0983 9.51043L27.0638 8.89346L26.0653 8.94939L26.0999 9.56636L27.0983 9.51043ZM27.0587 8.84552L26.9535 8.16008L25.9651 8.31189L26.0703 8.99734L27.0587 8.84552ZM26.9491 8.13573C26.7576 7.20014 26.3947 6.30733 25.8885 5.50929L25.0441 6.04489C25.4858 6.74131 25.8025 7.52072 25.9694 8.33624L26.9491 8.13573ZM25.8901 5.51186C24.8821 3.90093 23.2749 2.73024 21.5269 2.22058L21.247 3.18061C22.7675 3.62394 24.1689 4.64642 25.0424 6.04233L25.8901 5.51186ZM21.524 2.21974L21.2174 2.13238L20.9433 3.09409L21.2499 3.18145L21.524 2.21974ZM21.1737 2.12202L20.862 2.06282L20.6754 3.04525L20.9871 3.10445L21.1737 2.12202ZM20.8603 2.06251C20.6684 2.02671 20.422 1.9755 20.1709 1.96283L20.1205 2.96156C20.2879 2.97001 20.4537 3.00392 20.6771 3.04557L20.8603 2.06251ZM20.1876 1.96396L19.8759 1.93772L19.792 2.93419L20.1037 2.96043L20.1876 1.96396ZM19.8592 1.93659L19.598 1.92342L19.5477 2.92215L19.8088 2.93532L19.8592 1.93659ZM19.5794 2.92274C19.5929 2.92257 19.6071 2.92232 19.6176 2.92212C19.6229 2.92203 19.6275 2.92194 19.6307 2.92187C19.6323 2.92184 19.6336 2.92182 19.6345 2.9218C19.635 2.92179 19.6353 2.92178 19.6356 2.92178C19.6357 2.92177 19.6358 2.92177 19.6359 2.92177C19.6359 2.92177 19.636 2.92177 19.636 2.92177C19.636 2.92177 19.636 2.92177 19.636 2.92177C19.636 2.92177 19.636 2.92177 19.636 2.92177C19.636 2.92177 19.636 2.92177 19.636 2.92177C19.636 2.92177 19.636 2.92177 19.6257 2.42188C19.6153 1.92198 19.6153 1.92198 19.6153 1.92198L19.6153 1.92198C19.6153 1.92198 19.6153 1.92198 19.6153 1.92198C19.6153 1.92198 19.6153 1.92198 19.6153 1.92198C19.6153 1.92198 19.6153 1.92198 19.6153 1.92198C19.6152 1.92198 19.6152 1.92199 19.6151 1.92199C19.6149 1.92199 19.6146 1.922 19.6142 1.922C19.6135 1.92202 19.6124 1.92204 19.6109 1.92207C19.6081 1.92213 19.604 1.92221 19.5991 1.9223C19.5894 1.92248 19.5772 1.92269 19.5663 1.92283L19.5794 2.92274ZM19.6166 1.92196L19.599 1.92228L19.6171 2.92211L19.6347 2.92179L19.6166 1.92196ZM19.5997 1.92227L19.5645 1.92286L19.5812 2.92272L19.6164 2.92212L19.5997 1.92227ZM19.5589 1.92298L19.4882 1.92495L19.5161 2.92456L19.5868 2.92259L19.5589 1.92298ZM19.4894 1.92492C19.3012 1.92972 19.1142 1.93452 18.928 1.93932L18.9537 2.93899C19.14 2.93419 19.3268 2.92939 19.5149 2.92459L19.4894 1.92492ZM18.9012 1.94073C17.9812 2.014 17.1663 2.22768 16.4018 2.55483L16.7951 3.4742C17.4635 3.18821 18.1726 3.00192 18.9805 2.93758L18.9012 1.94073ZM16.3995 2.55581C14.8731 3.21787 13.6859 4.3304 12.944 5.55062L13.7985 6.07012C14.4384 5.01762 15.47 4.04897 16.7974 3.47323L16.3995 2.55581ZM12.9455 5.54818C12.1959 6.76547 11.8673 8.06853 11.8445 9.21387L12.8443 9.23379C12.8637 8.25874 13.1451 7.1312 13.797 6.07256L12.9455 5.54818ZM11.8444 9.22262C11.8441 9.3551 11.8437 9.48564 11.8434 9.61395L12.8434 9.61644C12.8437 9.4881 12.8441 9.35753 12.8444 9.22504L11.8444 9.22262ZM11.8435 9.6224C11.8438 9.64226 11.8411 9.75753 11.8472 9.84541L12.8448 9.77602C12.8406 9.71669 12.845 9.72125 12.8434 9.60798L11.8435 9.6224ZM11.8473 9.84666L11.8601 10.0243L12.8575 9.95237L12.8447 9.77477L11.8473 9.84666ZM11.8602 10.0264C11.8802 10.2882 11.9159 10.5518 11.9592 10.7874L12.9427 10.6068C12.9054 10.4034 12.8745 10.1748 12.8573 9.95027L11.8602 10.0264ZM11.96 10.7919C12.053 11.2734 12.1874 11.7013 12.3327 12.0733L13.2642 11.7094C13.1375 11.3851 13.0217 11.0156 12.9419 10.6023L11.96 10.7919ZM12.3336 12.0756C12.4782 12.4405 12.6331 12.7543 12.785 13.0213L13.6541 12.5266C13.5245 12.2988 13.3901 12.0271 13.2633 11.7072L12.3336 12.0756ZM13.4379 12.3241C13.4073 12.3093 13.3214 12.2646 13.248 12.2339L12.8622 13.1565C12.9021 13.1732 12.9224 13.1855 13.0012 13.2237L13.4379 12.3241ZM13.273 12.2452C12.8141 12.023 12.3244 11.8898 11.7831 11.8042L11.627 12.792C12.102 12.867 12.491 12.9776 12.8372 13.1452L13.273 12.2452ZM11.7929 11.8059C11.6542 11.7811 11.481 11.7707 11.4324 11.7652L11.3185 12.7587C11.4932 12.7787 11.5049 12.7703 11.6171 12.7903L11.7929 11.8059ZM11.4218 11.7641L11.2602 11.749L11.1675 12.7447L11.3291 12.7598L11.4218 11.7641ZM11.2609 11.7491L11.1796 11.7414L11.0855 12.737L11.1668 12.7447L11.2609 11.7491ZM11.1512 11.7396L11.1083 11.738L11.071 12.7373L11.1139 12.7389L11.1512 11.7396ZM11.0758 11.7378L11.0643 11.7381L11.092 12.7377L11.1035 12.7374L11.0758 11.7378ZM11.0643 11.7381L11.0412 11.7388L11.069 12.7384L11.092 12.7377L11.0643 11.7381ZM11.0412 11.7388L10.9951 11.74L11.0229 12.7397L11.069 12.7384L11.0412 11.7388ZM10.9894 11.7402C10.7813 11.7484 10.4718 11.7451 10.1787 11.7963L10.3507 12.7814C10.5562 12.7455 10.7465 12.7505 11.0286 12.7395L10.9894 11.7402ZM10.216 11.7912C9.64094 11.8474 9.09102 12.0319 8.58805 12.2413L8.97238 13.1645C9.43645 12.9713 9.8811 12.8287 10.3134 12.7864L10.216 11.7912ZM8.57652 12.2463C8.04547 12.4832 7.55655 12.8076 7.11701 13.1822L7.76566 13.9433C8.14468 13.6203 8.55368 13.3514 8.98391 13.1595L8.57652 12.2463ZM7.11216 13.1864C6.66432 13.5781 6.28884 14.0404 5.97407 14.5286L6.81453 15.0705C7.08984 14.6435 7.40683 14.2572 7.77051 13.9391L7.11216 13.1864ZM5.96879 14.537C5.65523 15.0451 5.42405 15.595 5.25922 16.1558L6.21865 16.4378C6.3623 15.949 6.55992 15.4833 6.81981 15.0621L5.96879 14.537ZM5.25759 16.1615C5.09821 16.7286 5.0333 17.4046 5.04059 17.9L6.04048 17.8853C6.03433 17.4674 6.09166 16.8898 6.22028 16.4321L5.25759 16.1615ZM5.04061 17.8841C5.04037 17.8984 5.04021 17.9098 5.04018 17.9186C5.04017 17.9224 5.04016 17.9299 5.04039 17.9385C5.04049 17.9424 5.04077 17.9517 5.04164 17.9635C5.04207 17.9693 5.04295 17.9799 5.0447 17.993C5.0456 17.9997 5.04699 18.0092 5.04913 18.0204C5.05114 18.031 5.05468 18.0478 5.06065 18.0681C5.06371 18.0785 5.06799 18.0918 5.07383 18.107C5.07956 18.1218 5.08803 18.1417 5.10015 18.1642C5.11195 18.1861 5.13051 18.2167 5.15816 18.2495C5.18561 18.282 5.22872 18.3247 5.29114 18.3606C5.3229 18.3788 5.3595 18.3952 5.4007 18.4072C5.44213 18.4193 5.48564 18.4261 5.53018 18.427C5.57462 18.4279 5.6168 18.4229 5.65572 18.4136C5.69436 18.4045 5.72838 18.3915 5.75744 18.3775C5.8143 18.3501 5.85541 18.3171 5.88192 18.2923C5.9089 18.2671 5.92842 18.2432 5.94138 18.2258C5.95466 18.208 5.96469 18.192 5.97177 18.1799C5.97898 18.1676 5.98465 18.1568 5.98887 18.1482C5.99707 18.1316 6.00275 18.1177 6.00605 18.1093C6.00954 18.1004 6.01213 18.093 6.01374 18.0883C6.0154 18.0834 6.01666 18.0795 6.01738 18.0772C6.0181 18.0749 6.01865 18.0731 6.01876 18.0727C6.01909 18.0716 6.01865 18.0731 6.01842 18.0738C6.0181 18.0749 6.01527 18.0842 6.01111 18.0958C6.00889 18.1019 6.00522 18.1118 6.00011 18.1237C5.99748 18.1298 5.99408 18.1374 5.98987 18.146C5.98571 18.1545 5.98011 18.1654 5.97295 18.1777C5.96593 18.1898 5.95591 18.2059 5.94257 18.2239C5.9296 18.2414 5.9098 18.2658 5.88225 18.2916C5.86815 18.3048 5.85078 18.3195 5.82994 18.3343C5.8091 18.3491 5.78365 18.3647 5.7535 18.3789C5.72319 18.3932 5.68766 18.4062 5.64731 18.415C5.60665 18.4238 5.56283 18.4281 5.51698 18.4259C5.47106 18.4237 5.42675 18.4153 5.38513 18.4017C5.34379 18.3881 5.30758 18.3703 5.27663 18.3511C5.21598 18.3133 5.17492 18.2698 5.14935 18.2377C5.12345 18.2051 5.10621 18.1751 5.09535 18.1538C5.08416 18.1319 5.07638 18.1126 5.07114 18.0983C5.06578 18.0836 5.06188 18.0708 5.05908 18.0608C5.05625 18.0506 5.0541 18.0417 5.05249 18.0344C5.04935 18.0202 5.04739 18.0083 5.0462 18.0003C5.04388 17.9848 5.04281 17.9724 5.04232 17.9663C5.04177 17.9593 5.04148 17.9536 5.04132 17.9501C5.041 17.9432 5.04092 17.9379 5.04089 17.936C5.04086 17.9336 5.04086 17.9319 5.04086 17.9314H6.04086C6.04086 17.9289 6.04084 17.9256 6.04079 17.9219C6.04075 17.9186 6.04064 17.9124 6.04029 17.9048C6.04011 17.9009 6.0398 17.8949 6.03923 17.8877C6.03894 17.884 6.03852 17.8793 6.03795 17.8738C6.03738 17.8685 6.03654 17.8614 6.03529 17.853C6.03409 17.845 6.03212 17.833 6.02897 17.8188C6.02735 17.8115 6.0252 17.8025 6.02236 17.7923C6.01956 17.7822 6.01564 17.7694 6.01028 17.7548C6.00503 17.7404 5.99724 17.7211 5.98605 17.6992C5.98035 17.688 5.97331 17.6753 5.96468 17.6615C5.95609 17.6477 5.94532 17.632 5.93203 17.6153C5.91877 17.5986 5.90211 17.5798 5.88154 17.5607C5.86093 17.5415 5.83549 17.521 5.80473 17.5019C5.77378 17.4826 5.73757 17.4648 5.69622 17.4513C5.6546 17.4377 5.61029 17.4292 5.56436 17.427C5.51851 17.4249 5.47469 17.4291 5.43403 17.438C5.39367 17.4468 5.35814 17.4598 5.32783 17.474C5.29767 17.4882 5.27221 17.5039 5.25137 17.5187C5.23053 17.5334 5.21315 17.5482 5.19905 17.5614C5.18492 17.5746 5.17309 17.5872 5.16342 17.5983C5.15371 17.6095 5.14551 17.6199 5.13871 17.6291C5.12536 17.6471 5.11534 17.6632 5.10831 17.6753C5.10115 17.6876 5.09554 17.6985 5.09137 17.707C5.08716 17.7157 5.08375 17.7233 5.08111 17.7294C5.07599 17.7414 5.0723 17.7513 5.07007 17.7574C5.06775 17.7639 5.06599 17.7692 5.06493 17.7725C5.06385 17.7758 5.06303 17.7785 5.06267 17.7796C5.06243 17.7804 5.06198 17.7819 5.06229 17.7809C5.06238 17.7806 5.06292 17.7788 5.06363 17.7766C5.06433 17.7743 5.06558 17.7704 5.06723 17.7656C5.06882 17.7609 5.07139 17.7536 5.07487 17.7447C5.07815 17.7363 5.08382 17.7225 5.092 17.7059C5.09622 17.6974 5.10188 17.6865 5.10909 17.6742C5.11616 17.6621 5.12617 17.6462 5.13946 17.6284C5.14622 17.6193 5.15434 17.609 5.16392 17.5981C5.17346 17.5872 5.18507 17.5748 5.19889 17.5619C5.21268 17.549 5.22957 17.5347 5.24974 17.5203C5.26991 17.5059 5.29442 17.4906 5.32335 17.4767C5.35241 17.4627 5.38642 17.4497 5.42507 17.4406C5.46398 17.4314 5.50616 17.4263 5.55059 17.4272C5.59513 17.4281 5.63864 17.435 5.68006 17.447C5.72126 17.459 5.75785 17.4754 5.78961 17.4937C5.82115 17.5118 5.84756 17.5316 5.8692 17.5504C5.8908 17.5693 5.90843 17.588 5.92257 17.6047C5.93673 17.6215 5.94826 17.6374 5.95751 17.6514C5.96679 17.6655 5.9744 17.6785 5.98056 17.69C5.99268 17.7125 6.00114 17.7323 6.00686 17.7472C6.0127 17.7623 6.01697 17.7756 6.02003 17.786C6.02313 17.7965 6.02548 17.8058 6.02725 17.8134C6.02903 17.821 6.03043 17.8278 6.03151 17.8335C6.03363 17.8447 6.03501 17.854 6.0359 17.8607C6.03763 17.8736 6.03849 17.884 6.0389 17.8896C6.03936 17.8957 6.03961 17.9007 6.03975 17.904C6.0399 17.9074 6.03999 17.9102 6.04004 17.9121C6.04014 17.9159 6.04017 17.9187 6.04017 17.9197C6.04018 17.921 6.04018 17.9217 6.04018 17.9216C6.04018 17.9204 6.04023 17.915 6.04046 17.9012L5.04061 17.8841ZM5.04226 17.9688L5.04322 17.9816L6.04042 17.9068L6.03946 17.894L5.04226 17.9688ZM5.04279 17.9754L5.04439 18.001L6.04244 17.9386L6.04084 17.913L5.04279 17.9754ZM5.04461 18.0043L5.04813 18.0552L6.04574 17.9862L6.04222 17.9353L5.04461 18.0043ZM5.04813 18.0552L5.05517 18.1569L6.05278 18.0879L6.04574 17.9862L5.04813 18.0552ZM5.05528 18.1585L5.07 18.362L6.06739 18.2899L6.05267 18.0864L5.05528 18.1585ZM5.06905 18.3448C5.07576 18.5231 5.10884 18.6945 5.13095 18.8178L6.11524 18.6412C6.08935 18.4969 6.07187 18.4009 6.06834 18.3071L5.06905 18.3448ZM5.1277 18.7971C5.17048 19.1104 5.26225 19.4104 5.33246 19.6558L6.29389 19.3808C6.21562 19.1071 6.14932 18.8875 6.1185 18.6618L5.1277 18.7971ZM5.3404 19.681C5.52904 20.2291 5.78474 20.7566 6.11615 21.2348L6.93805 20.6652C6.66529 20.2716 6.44868 19.8283 6.28596 19.3556L5.3404 19.681ZM6.12147 21.2423C6.45394 21.7036 6.84041 22.1253 7.28136 22.4809L7.90916 21.7025C7.54626 21.4099 7.21978 21.0559 6.93272 20.6576L6.12147 21.2423ZM7.2903 22.488C7.72321 22.8211 8.19663 23.1184 8.71246 23.3278L9.08861 22.4013C8.679 22.235 8.28394 21.9908 7.90021 21.6955L7.2903 22.488ZM8.71698 23.3296C9.20747 23.5232 9.71419 23.678 10.2704 23.7339L10.3703 22.7389C9.9384 22.6955 9.52608 22.5739 9.08409 22.3994L8.71698 23.3296ZM10.2397 23.7298C10.5326 23.7777 10.8067 23.7704 10.9827 23.7773L11.0219 22.778C10.757 22.7677 10.6131 22.7776 10.4011 22.7429L10.2397 23.7298ZM11.0092 23.7776C11.2919 23.7737 11.5261 23.7472 11.7555 23.7201L11.6385 22.727C11.4116 22.7537 11.2221 22.7746 10.9954 22.7777L11.0092 23.7776ZM11.771 23.7181C12.7535 23.571 13.6183 23.1694 14.2952 22.6679L13.6998 21.8644C13.1415 22.2781 12.428 22.6086 11.623 22.7291L11.771 23.7181ZM14.2978 22.6659C14.9746 22.1574 15.4638 21.5558 15.8092 20.9886L14.9551 20.4685C14.6637 20.947 14.2556 21.4468 13.6972 21.8664L14.2978 22.6659ZM15.8069 20.9923C16.1654 20.415 16.3584 19.8568 16.4824 19.4114L15.519 19.1432C15.4094 19.537 15.2479 19.9969 14.9574 20.4648L15.8069 20.9923ZM16.485 19.4015C16.5378 19.1957 16.5942 18.9745 16.6196 18.766L15.6269 18.645C15.6108 18.7776 15.5724 18.9346 15.5164 19.1531L16.485 19.4015ZM16.6158 18.7913C16.6447 18.6258 16.6738 18.445 16.676 18.2842L15.6761 18.2704C15.6751 18.3407 15.6607 18.4472 15.6307 18.6197L16.6158 18.7913ZM16.6751 18.3077C16.6822 18.1919 16.6875 18.1031 16.6912 18.0432C16.693 18.0132 16.6943 17.9905 16.6952 17.9752C16.6957 17.9676 16.696 17.9619 16.6963 17.958C16.6964 17.9561 16.6965 17.9546 16.6965 17.9537C16.6966 17.9532 16.6966 17.9528 16.6966 17.9526C16.6966 17.9524 16.6966 17.9523 16.6966 17.9523C16.6966 17.9522 16.6966 17.9522 16.6966 17.9522C16.6966 17.9522 16.6966 17.9522 16.6966 17.9522C16.6966 17.9522 16.6966 17.9522 16.6966 17.9522C16.6966 17.9522 16.6966 17.9522 16.1975 17.9224C15.6984 17.8927 15.6984 17.8927 15.6984 17.8927C15.6984 17.8927 15.6984 17.8927 15.6984 17.8927C15.6984 17.8927 15.6984 17.8927 15.6984 17.8927C15.6984 17.8927 15.6984 17.8927 15.6984 17.8928C15.6984 17.8928 15.6984 17.8929 15.6984 17.893C15.6983 17.8933 15.6983 17.8936 15.6983 17.8941C15.6982 17.895 15.6982 17.8965 15.698 17.8984C15.6978 17.9022 15.6975 17.9079 15.697 17.9155C15.6961 17.9306 15.6948 17.9532 15.693 17.9831C15.6894 18.0428 15.684 18.1314 15.677 18.2469L16.6751 18.3077ZM16.6975 17.9224V17.9192H15.6975V17.9224H16.6975ZM16.1975 17.9192C16.6974 17.9078 16.6974 17.9078 16.6974 17.9078C16.6974 17.9078 16.6974 17.9077 16.6974 17.9077C16.6974 17.9077 16.6974 17.9077 16.6974 17.9077C16.6974 17.9077 16.6974 17.9077 16.6974 17.9077C16.6974 17.9076 16.6974 17.9075 16.6974 17.9074C16.6974 17.9071 16.6973 17.9068 16.6973 17.9063C16.6973 17.9053 16.6973 17.9038 16.6972 17.9019C16.6971 17.898 16.697 17.8922 16.6968 17.8845C16.6965 17.869 16.6959 17.846 16.6952 17.8156C16.6938 17.7549 16.6918 17.6648 16.689 17.5473L15.6893 17.5705C15.692 17.6879 15.6941 17.778 15.6955 17.8387C15.6962 17.869 15.6967 17.892 15.6971 17.9075C15.6973 17.9152 15.6974 17.921 15.6975 17.9249C15.6975 17.9268 15.6976 17.9283 15.6976 17.9293C15.6976 17.9297 15.6976 17.9301 15.6976 17.9303C15.6976 17.9305 15.6976 17.9306 15.6976 17.9306C15.6976 17.9307 15.6976 17.9307 15.6976 17.9307C15.6976 17.9307 15.6976 17.9307 15.6976 17.9307C15.6976 17.9307 15.6976 17.9307 15.6976 17.9307C15.6976 17.9307 15.6976 17.9307 16.1975 17.9192ZM16.6891 17.5684C16.6921 17.4088 16.6701 17.2274 16.6516 17.0687L15.6583 17.1845C15.6795 17.3663 15.6907 17.4722 15.6893 17.5495L16.6891 17.5684ZM16.6538 17.0922C16.6393 16.8821 16.5941 16.6566 16.5517 16.4456L15.5713 16.6428C15.6166 16.8676 15.6469 17.0274 15.6561 17.161L16.6538 17.0922ZM16.5494 16.4347C16.4469 15.9781 16.2806 15.4005 15.9456 14.788L15.0683 15.268C15.3425 15.7692 15.4828 16.2488 15.5736 16.6536L16.5494 16.4347ZM15.9473 14.7912C15.6231 14.1882 15.1466 13.5337 14.4549 12.9718L13.8243 13.7479C14.3947 14.2113 14.7924 14.7548 15.0666 15.2648L15.9473 14.7912ZM14.4393 12.9596C14.2952 12.8517 14.1411 12.7409 13.9782 12.6335L13.428 13.4686C13.5691 13.5616 13.7062 13.66 13.8399 13.7601L14.4393 12.9596ZM14.1529 12.8328C14.0048 12.5274 13.836 12.1348 13.7127 11.6347L12.7418 11.8741C12.8873 12.4646 13.0866 12.9257 13.2533 13.2693L14.1529 12.8328ZM13.7122 11.6326C13.6342 11.3222 13.5751 10.9697 13.5478 10.5837L12.5503 10.6544C12.5818 11.0984 12.65 11.5088 12.7423 11.8762L13.7122 11.6326ZM13.5476 10.5813C13.5327 10.3846 13.5266 10.1956 13.5316 9.9872L12.5319 9.96319C12.526 10.208 12.5333 10.4304 12.5504 10.6567L13.5476 10.5813ZM13.5315 9.99048L13.5369 9.81256L12.5374 9.78199L12.532 9.95991L13.5315 9.99048ZM13.5369 9.81474C13.5368 9.81573 13.5369 9.81293 13.5377 9.80464C13.5384 9.79667 13.5394 9.78675 13.5409 9.77369C13.5433 9.75219 13.5482 9.71167 13.5513 9.67782L12.5556 9.5852C12.5551 9.59148 12.5396 9.71899 12.5375 9.7798L13.5369 9.81474ZM13.5507 9.68429C13.5628 9.57042 13.5754 9.45304 13.5879 9.33402L12.5934 9.22948C12.5809 9.34791 12.5685 9.46348 12.5563 9.57874L13.5507 9.68429ZM13.5896 9.31403C13.5949 9.23153 13.6098 9.14245 13.634 9.04345L12.6625 8.80644C12.6284 8.94617 12.6017 9.09452 12.5917 9.24947L13.5896 9.31403ZM13.6385 9.02326C13.6504 8.96378 13.6625 8.90386 13.6747 8.84316C13.687 8.78256 13.6993 8.72121 13.7117 8.65941L12.7313 8.46281C12.719 8.52388 12.7068 8.58461 12.6945 8.6453C12.6823 8.70588 12.67 8.76643 12.658 8.82664L13.6385 9.02326ZM13.707 8.68057C13.761 8.46109 13.8363 8.23571 13.9212 7.9839L12.9736 7.66439C12.8909 7.90987 12.8017 8.1747 12.736 8.44165L13.707 8.68057ZM13.9013 8.03382C13.9602 7.90637 14.0201 7.75471 14.0638 7.65218C14.1131 7.53645 14.1585 7.44059 14.2115 7.35525L13.3617 6.82807C13.2688 6.97794 13.2 7.12847 13.1438 7.26026C13.0821 7.40525 13.0454 7.50222 12.9935 7.61447L13.9013 8.03382ZM14.2203 7.34047C14.2591 7.2728 14.2959 7.20319 14.3265 7.14603C14.3589 7.08561 14.3869 7.03435 14.416 6.98641L13.5605 6.46858C13.5169 6.54064 13.4783 6.61179 13.4452 6.67361C13.4103 6.73869 13.3826 6.79116 13.3529 6.84284L14.2203 7.34047ZM14.4027 7.00721C14.4808 6.89139 14.5605 6.7735 14.6406 6.65458L13.8113 6.09577C13.7315 6.2143 13.6524 6.33128 13.5738 6.44779L14.4027 7.00721ZM14.6287 6.67152C14.9513 6.23307 15.3108 5.82244 15.7468 5.49605L15.1474 4.69556C14.6029 5.10329 14.1765 5.59884 13.8233 6.07883L14.6287 6.67152ZM15.7541 5.49044C16.2103 5.13554 16.7009 4.82564 17.2409 4.62986L16.9 3.68974C16.2272 3.93366 15.6439 4.30917 15.1401 4.70118L15.7541 5.49044ZM17.2458 4.62807C17.7983 4.42123 18.4189 4.28886 18.9942 4.24833L18.924 3.2508C18.2545 3.29795 17.5394 3.45036 16.8952 3.69154L17.2458 4.62807ZM18.96 4.24956C19.1462 4.24924 19.3334 4.24892 19.5212 4.2486L19.5195 3.2486C19.3317 3.24892 19.1445 3.24924 18.9582 3.24956L18.96 4.24956ZM19.5204 4.2486H19.5911V3.2486H19.5204V4.2486ZM19.5963 4.24858L19.6273 4.24826L19.617 3.24831L19.5859 3.24863L19.5963 4.24858ZM19.6221 4.24828C19.6227 4.24828 19.6216 4.24828 19.6203 4.24828C19.6189 4.24827 19.6149 4.24825 19.6098 4.24811C19.6039 4.24796 19.5972 4.24768 19.5896 4.24717C19.5825 4.24669 19.5768 4.24615 19.5737 4.24583C19.5636 4.24482 19.5777 4.24625 19.581 4.24655L19.6716 3.25066C19.6728 3.25077 19.6745 3.25093 19.6765 3.25114C19.6773 3.25123 19.678 3.2513 19.6779 3.25129C19.6779 3.25129 19.6778 3.25128 19.6776 3.25126C19.6775 3.25124 19.6772 3.25121 19.6769 3.25118C19.6762 3.25111 19.6749 3.25097 19.6733 3.25081C19.67 3.25048 19.6641 3.24992 19.6568 3.24943C19.6491 3.24891 19.6422 3.24862 19.6362 3.24846C19.6308 3.24832 19.6266 3.2483 19.625 3.24829C19.624 3.24828 19.6233 3.24828 19.6229 3.24828C19.6225 3.24828 19.6222 3.24828 19.6221 3.24828V4.24828ZM19.5799 4.24644L19.7069 4.25828L19.7997 3.2626L19.6727 3.25076L19.5799 4.24644ZM19.7083 4.25841L19.963 4.28145L20.0531 3.28551L19.7984 3.26247L19.7083 4.25841ZM19.9866 4.28302C20.111 4.28837 20.2301 4.31526 20.4228 4.35205L20.6103 3.36979C20.4644 3.34194 20.2475 3.29331 20.0295 3.28394L19.9866 4.28302ZM20.4239 4.35227L20.6787 4.40027L20.8638 3.41757L20.6091 3.36957L20.4239 4.35227ZM20.6293 4.38834L20.8789 4.46226L21.1628 3.50343L20.9132 3.4295L20.6293 4.38834ZM20.8914 4.46579C22.1174 4.79443 23.2744 5.60106 24.0556 6.7235L24.8764 6.15229C23.9641 4.84136 22.6104 3.89129 21.1503 3.49989L20.8914 4.46579ZM24.0557 6.72362C24.4433 7.28033 24.7323 7.91752 24.8912 8.58592L25.8641 8.35453C25.6755 7.56176 25.3341 6.80959 24.8763 6.15217L24.0557 6.72362ZM24.8869 8.56612L24.9906 9.09668L25.9721 8.9049L25.8684 8.37433L24.8869 8.56612ZM24.9833 9.04559L25.0387 9.66095L26.0347 9.57135L25.9793 8.95599L24.9833 9.04559ZM25.0367 9.61801L25.0377 9.87562L26.0377 9.87189L26.0367 9.61429L25.0367 9.61801ZM25.0377 9.86522C25.0351 10.0171 25.042 10.0334 25.0346 10.0927L26.0267 10.218C26.0429 10.0897 26.037 9.91792 26.0376 9.88228L25.0377 9.86522ZM25.0325 10.1121C25.0141 10.3239 25.0073 10.4703 24.9772 10.6237L25.9586 10.816C26.0021 10.5937 26.0145 10.3625 26.0287 10.1986L25.0325 10.1121ZM24.9738 10.6434C24.8669 11.3343 24.6211 12.0295 24.2968 12.7214L25.2022 13.1458C25.5512 12.4015 25.8359 11.6119 25.962 10.7962L24.9738 10.6434ZM24.2958 12.7236C23.9738 13.4191 23.5824 14.0987 23.1713 14.7958L24.0327 15.3038C24.444 14.6063 24.8583 13.8888 25.2032 13.1436L24.2958 12.7236ZM23.1735 14.7921C22.3246 16.204 21.5653 17.6359 20.8144 18.9678L21.6855 19.4589C22.454 18.0956 23.1904 16.7047 24.0305 15.3074L23.1735 14.7921ZM20.8128 18.9707C20.0621 20.3237 19.3363 21.6315 18.6483 22.8719L19.5227 23.357C20.2107 22.1167 20.9364 20.809 21.6872 19.4559L20.8128 18.9707ZM18.6473 22.8737C18.5619 23.0291 18.4771 23.1833 18.393 23.3362L19.2692 23.8182C19.3534 23.6652 19.4382 23.5108 19.5237 23.3552L18.6473 22.8737ZM18.3926 23.3369L18.2669 23.5663L19.1438 24.0469L19.2696 23.8175L18.3926 23.3369ZM18.2564 23.5865L18.1335 23.837L19.0314 24.2773L19.1543 24.0268L18.2564 23.5865ZM18.1256 23.8541C17.9637 24.2181 17.8286 24.613 17.7705 25.0278L18.7608 25.1666C18.8019 24.8735 18.901 24.5715 19.0393 24.2603L18.1256 23.8541ZM17.7717 25.0199C17.7111 25.407 17.692 25.8066 17.7387 26.2014L18.7318 26.0838C18.6979 25.7977 18.7101 25.4914 18.7597 25.1744L17.7717 25.0199ZM17.7374 26.1889C17.7733 26.5759 17.8623 26.9499 17.9954 27.2984L18.9295 26.9415C18.8284 26.6768 18.7605 26.3916 18.7331 26.0964L17.7374 26.1889ZM17.993 27.292C18.2506 27.9947 18.6748 28.5827 19.194 29.0323L19.8486 28.2763C19.4521 27.933 19.1287 27.4848 18.9319 26.9478L17.993 27.292ZM19.1755 29.0154C19.3174 29.1514 19.4916 29.2654 19.5585 29.3159L20.16 28.517C20.0042 28.3997 19.9531 28.3755 19.8672 28.2933L19.1755 29.0154ZM19.5657 29.3212C19.7083 29.4246 19.9048 29.5282 19.968 29.5667L20.4884 28.7128C20.3091 28.6035 20.2617 28.5906 20.1528 28.5116L19.5657 29.3212ZM19.9856 29.577C20.124 29.6538 20.3206 29.7335 20.3912 29.7665L20.8146 28.8606C20.6402 28.779 20.5769 28.7615 20.4709 28.7026L19.9856 29.577ZM20.413 29.776C20.5538 29.8339 20.7445 29.8888 20.8211 29.9149L21.1432 28.9682C20.9714 28.9097 20.903 28.8962 20.7929 28.851L20.413 29.776ZM20.8479 29.9232C22.0088 30.2467 23.0774 30.0174 23.8267 29.6686L23.4048 28.762C22.8216 29.0334 21.9997 29.206 21.1164 28.9599L20.8479 29.9232ZM23.8353 29.6645C24.5901 29.2955 25.0621 28.8135 25.3404 28.4564L24.5516 27.8417C24.3441 28.108 23.9847 28.4784 23.3962 28.7661L23.8353 29.6645ZM25.3305 28.4686C25.4868 28.2806 25.5799 28.1165 25.6242 28.0453L24.7753 27.5168C24.714 27.6152 24.6631 27.7071 24.5614 27.8295L25.3305 28.4686ZM25.6254 28.0434C25.6515 28.0011 25.6713 27.9691 25.6845 27.9477C25.6911 27.937 25.6961 27.9289 25.6994 27.9236C25.701 27.9209 25.7023 27.9189 25.7031 27.9176C25.7035 27.9169 25.7038 27.9165 25.704 27.9161C25.7041 27.916 25.7042 27.9159 25.7042 27.9158C25.7042 27.9158 25.7043 27.9157 25.7043 27.9157C25.7043 27.9157 25.7043 27.9157 25.7043 27.9157C25.7043 27.9157 25.7043 27.9157 25.7043 27.9157C25.7043 27.9157 25.7043 27.9157 25.2794 27.6521C24.8546 27.3885 24.8546 27.3885 24.8546 27.3885C24.8546 27.3885 24.8546 27.3885 24.8546 27.3885C24.8546 27.3885 24.8546 27.3885 24.8545 27.3885C24.8545 27.3885 24.8545 27.3885 24.8545 27.3885C24.8545 27.3885 24.8545 27.3886 24.8545 27.3886C24.8544 27.3887 24.8543 27.3889 24.8542 27.3891C24.854 27.3894 24.8536 27.39 24.8532 27.3907C24.8523 27.3921 24.851 27.3942 24.8493 27.3969C24.8459 27.4025 24.8408 27.4107 24.834 27.4216C24.8205 27.4434 24.8005 27.4759 24.7741 27.5186L25.6254 28.0434ZM25.7053 27.9141C25.8618 27.6597 25.794 27.3218 25.5404 27.1508L24.9814 27.9799C24.7847 27.8473 24.7329 27.5862 24.8536 27.39L25.7053 27.9141ZM25.5403 27.1507C25.2794 26.9749 24.9312 27.0479 24.7587 27.3011L25.5851 27.8642C25.4523 28.0592 25.1834 28.1161 24.9814 27.98L25.5403 27.1507ZM25.1719 27.5826C24.7568 27.3038 24.7568 27.3038 24.7568 27.3038C24.7568 27.3039 24.7568 27.3039 24.7568 27.3039C24.7568 27.3039 24.7568 27.3039 24.7568 27.3039C24.7568 27.3039 24.7568 27.3039 24.7568 27.3039C24.7568 27.3039 24.7568 27.3039 24.7568 27.304C24.7567 27.3041 24.7566 27.3042 24.7565 27.3043C24.7563 27.3047 24.7559 27.3052 24.7555 27.3058C24.7546 27.3072 24.7533 27.3092 24.7515 27.3118C24.7479 27.3172 24.7426 27.3251 24.7355 27.3356C24.7213 27.3567 24.7002 27.3881 24.6724 27.4296L25.5025 27.9872C25.5303 27.9458 25.5514 27.9143 25.5656 27.8932C25.5727 27.8827 25.578 27.8748 25.5816 27.8694C25.5834 27.8668 25.5847 27.8648 25.5856 27.8634C25.5861 27.8628 25.5864 27.8623 25.5866 27.8619C25.5867 27.8618 25.5868 27.8616 25.5869 27.8616C25.5869 27.8615 25.5869 27.8615 25.5869 27.8615C25.5869 27.8615 25.5869 27.8615 25.587 27.8614C25.587 27.8614 25.587 27.8614 25.587 27.8614C25.587 27.8614 25.587 27.8614 25.1719 27.5826ZM24.6724 27.4296C24.6089 27.524 24.5518 27.6159 24.457 27.7202L25.1969 28.3929C25.3523 28.222 25.4545 28.0586 25.5025 27.9872L24.6724 27.4296ZM24.4445 27.7345C24.2423 27.9746 23.8842 28.3149 23.3258 28.5609L23.729 29.476C24.4576 29.155 24.9329 28.7069 25.2094 28.3787L24.4445 27.7345ZM23.3341 28.5574C22.7787 28.7902 22.0135 28.9155 21.2271 28.662L20.9202 29.6137C21.9822 29.9561 22.9968 29.7831 23.7207 29.4796L23.3341 28.5574ZM21.2559 28.6723C21.0859 28.6057 21.0432 28.5998 20.9399 28.5526L20.5239 29.462C20.6459 29.5178 20.8374 29.5823 20.8914 29.6034L21.2559 28.6723ZM20.9632 28.564C20.7931 28.4752 20.7539 28.4678 20.6569 28.4087L20.1368 29.2628C20.2574 29.3362 20.4512 29.4248 20.5006 29.4506L20.9632 28.564ZM20.6751 28.4203C20.6146 28.3798 20.5431 28.3366 20.4989 28.309C20.4462 28.2761 20.4128 28.2535 20.3895 28.235L19.7674 29.018C19.8376 29.0737 19.9115 29.1211 19.9688 29.1569C20.0345 29.198 20.0754 29.2223 20.1186 29.2512L20.6751 28.4203ZM20.3941 28.2387C20.2412 28.1143 20.1879 28.0838 20.1356 28.0268L19.3986 28.7026C19.5159 28.8306 19.7057 28.9678 19.7628 29.0143L20.3941 28.2387ZM20.1091 28C19.7865 27.6975 19.5101 27.2854 19.362 26.8194L18.409 27.1222C18.6123 27.7622 18.9867 28.3183 19.4251 28.7294L20.1091 28ZM19.3589 26.8099C19.2801 26.5781 19.2314 26.33 19.2181 26.0756L18.2195 26.1277C18.2376 26.475 18.304 26.8137 18.4121 27.1317L19.3589 26.8099ZM19.2171 26.0613C19.1973 25.8169 19.2183 25.5558 19.2714 25.2859L18.2903 25.0928C18.2237 25.4309 18.1916 25.7861 18.2204 26.1421L19.2171 26.0613ZM19.2732 25.2768C19.3165 25.0329 19.4105 24.7823 19.5386 24.5212L18.6407 24.0809C18.4891 24.39 18.354 24.7333 18.2886 25.1019L19.2732 25.2768ZM19.53 24.5379L19.6436 24.3267L18.7629 23.853L18.6493 24.0642L19.53 24.5379ZM19.6318 24.3473L19.7662 24.1237L18.9091 23.6086L18.7747 23.8323L19.6318 24.3473ZM19.7659 24.1242C19.8555 23.9755 19.9481 23.8211 20.0383 23.6712L19.1816 23.1554C19.0888 23.3096 19.0003 23.4573 18.9094 23.6081L19.7659 24.1242ZM20.0394 23.6694C20.7658 22.4511 21.5319 21.1664 22.3245 19.8374L21.4657 19.3252C20.673 20.6542 19.9069 21.939 19.1805 23.1573L20.0394 23.6694ZM22.3233 19.8395C23.1317 18.4984 23.9106 17.1259 24.7763 15.7772L23.9348 15.237C23.0598 16.6 22.2565 18.0133 21.4669 19.3232L22.3233 19.8395ZM24.7788 15.7733C25.2125 15.0838 25.6628 14.356 26.0551 13.5704L25.1604 13.1237C24.7923 13.8608 24.3658 14.5517 23.9323 15.2408L24.7788 15.7733ZM26.0542 13.5722C26.4494 12.7884 26.7944 11.9253 26.969 10.9881L25.986 10.8049C25.8342 11.6194 25.5303 12.3901 25.1613 13.1219L26.0542 13.5722ZM26.9652 11.0067C27.0217 10.7568 27.0459 10.4973 27.0698 10.2924L26.0765 10.1764C26.0486 10.4157 26.0313 10.6028 25.9898 10.7863L26.9652 11.0067ZM27.0676 10.3087C27.0892 10.1652 27.0895 9.99052 27.0928 9.92297L26.0939 9.87446C26.0863 10.0309 26.0904 10.0822 26.0787 10.1601L27.0676 10.3087ZM27.093 9.91578L27.0988 9.74714L26.0994 9.71301L26.0936 9.88165L27.093 9.91578ZM27.0989 9.74526L27.1014 9.6611L26.1019 9.63072L26.0993 9.71489L27.0989 9.74526ZM27.1014 9.66108L27.1027 9.61884L26.1032 9.58851L26.1019 9.63075L27.1014 9.66108ZM27.1021 9.57432L27.0982 9.50904L26.1 9.56775L26.1038 9.63303L27.1021 9.57432ZM14.7235 15.6088C15.0437 15.9945 15.233 16.4083 15.36 16.7722L16.3042 16.4429C16.1534 16.0106 15.9145 15.4779 15.4929 14.9701L14.7235 15.6088ZM15.3562 16.7611C15.3889 16.8624 15.4204 16.9592 15.4492 17.048L16.4005 16.7399C16.3711 16.6489 16.3405 16.555 16.3079 16.454L15.3562 16.7611ZM15.4417 17.0228C15.4632 17.1034 15.4628 17.13 15.4904 17.2586L16.4682 17.049C16.4611 17.0163 16.4351 16.8669 16.408 16.7651L15.4417 17.0228ZM15.4905 17.2591C15.5248 17.4184 15.54 17.5183 15.5419 17.5831L16.5415 17.5552C16.5369 17.3909 16.5035 17.2131 16.468 17.0485L15.4905 17.2591ZM15.5432 17.6085C15.5522 17.722 15.559 17.8094 15.5637 17.8683C15.566 17.8978 15.5678 17.9201 15.5689 17.9351C15.5695 17.9426 15.57 17.9483 15.5703 17.9521C15.5704 17.954 15.5705 17.9554 15.5706 17.9563C15.5706 17.9568 15.5707 17.9571 15.5707 17.9574C15.5707 17.9575 15.5707 17.9576 15.5707 17.9577C15.5707 17.9577 15.5707 17.9577 15.5707 17.9577C15.5707 17.9577 15.5707 17.9577 15.5707 17.9577C15.5707 17.9577 15.5707 17.9577 15.5707 17.9577C15.5707 17.9577 15.5707 17.9577 16.0692 17.9186C16.5676 17.8794 16.5676 17.8794 16.5676 17.8794C16.5676 17.8794 16.5676 17.8794 16.5676 17.8794C16.5676 17.8794 16.5676 17.8794 16.5676 17.8794C16.5676 17.8794 16.5676 17.8794 16.5676 17.8794C16.5676 17.8793 16.5676 17.8792 16.5676 17.8791C16.5676 17.8788 16.5676 17.8785 16.5675 17.878C16.5675 17.8771 16.5673 17.8756 16.5672 17.8737C16.5669 17.8699 16.5664 17.8643 16.5659 17.8568C16.5647 17.8417 16.5629 17.8193 16.5606 17.7899C16.556 17.7309 16.5491 17.6435 16.5401 17.5298L15.5432 17.6085ZM15.5696 17.8969C15.5693 17.9048 15.5644 18.0274 15.5552 18.2506L16.5544 18.2918C16.559 18.1792 16.5625 18.0928 16.5649 18.0336C16.5661 18.004 16.567 17.9812 16.5677 17.9654C16.568 17.9574 16.5683 17.9513 16.5684 17.9469C16.5685 17.9447 16.5686 17.943 16.5686 17.9418C16.5687 17.9403 16.5687 17.9401 16.5687 17.9403L15.5696 17.8969ZM15.5548 18.274C15.5552 18.3456 15.5431 18.4472 15.517 18.6131L16.5049 18.7684C16.53 18.6085 16.5557 18.4318 16.5548 18.2685L15.5548 18.274ZM15.5173 18.6114C15.4959 18.7444 15.4986 18.7671 15.4809 18.8515L16.4597 19.0567C16.481 18.9549 16.4997 18.8003 16.5046 18.7701L15.5173 18.6114ZM15.4868 18.8265C15.4626 18.9184 15.4367 19.0161 15.4093 19.1196L16.3758 19.3762C16.4034 19.2723 16.4294 19.1741 16.4537 19.0817L15.4868 18.8265ZM15.4124 19.1085C15.3035 19.4835 15.134 19.9176 14.8287 20.3363L15.6367 20.9255C16.0328 20.3823 16.2441 19.8302 16.3727 19.3873L15.4124 19.1085ZM14.8259 20.3402C14.5185 20.7702 14.0857 21.1981 13.5339 21.5234L14.0419 22.3848C14.7252 21.9819 15.2589 21.4542 15.6395 20.9217L14.8259 20.3402ZM13.535 21.5228C12.9825 21.8467 12.3108 22.0673 11.5864 22.1296L11.672 23.1259C12.5418 23.0512 13.3574 22.7861 14.0408 22.3855L13.535 21.5228ZM11.6029 22.1284C11.42 22.1381 11.2148 22.1412 11.052 22.1354L11.0166 23.1348C11.2147 23.1418 11.4499 23.1379 11.6555 23.127L11.6029 22.1284ZM11.0774 22.137C10.8105 22.1139 10.6543 22.1135 10.5178 22.0799L10.2784 23.0508C10.5157 23.1093 10.8293 23.1192 10.9912 23.1332L11.0774 22.137ZM10.4701 22.0705C10.1403 22.0225 9.77025 21.8962 9.40772 21.7313L8.99368 22.6416C9.40363 22.8281 9.86881 22.9936 10.3261 23.0601L10.4701 22.0705ZM9.41068 21.7327C9.07329 21.5766 8.75145 21.3534 8.43811 21.0889L7.79304 21.853C8.14915 22.1536 8.54666 22.4347 8.99071 22.6402L9.41068 21.7327ZM8.44819 21.0976C8.15749 20.8386 7.90114 20.5301 7.67803 20.1889L6.84113 20.7363C7.10441 21.1388 7.41639 21.5176 7.78296 21.8442L8.44819 21.0976ZM7.68402 20.1983C7.47617 19.8645 7.31844 19.4936 7.20326 19.102L6.2439 19.3842C6.38023 19.8477 6.57194 20.3042 6.83513 20.7269L7.68402 20.1983ZM7.21142 19.1335C7.15672 18.89 7.11239 18.7239 7.09813 18.5464L6.10134 18.6265C6.12292 18.8951 6.19251 19.1603 6.23574 19.3527L7.21142 19.1335ZM7.09554 18.5218C7.07896 18.3947 7.06965 18.3299 7.07113 18.265L6.07139 18.2422C6.06774 18.402 6.09171 18.5574 6.10394 18.6511L7.09554 18.5218ZM7.07112 18.2421L7.06728 18.0751L6.06755 18.0981L6.07139 18.2651L7.07112 18.2421ZM7.06724 18.0732L7.065 17.9897L6.06536 18.0165L6.0676 18.1L7.06724 18.0732ZM7.06494 17.9877L7.06366 17.9461L6.06413 17.9768L6.06541 18.0184L7.06494 17.9877ZM7.06366 17.9461L7.06302 17.9253L6.06349 17.9561L6.06413 17.9769L7.06366 17.9461ZM7.06282 17.9199L7.0625 17.9122L6.06337 17.9538L6.06369 17.9615L7.06282 17.9199ZM7.06212 17.9616C7.08999 17.4749 7.15 17.1577 7.2735 16.7708L6.32085 16.4667C6.16979 16.94 6.09604 17.3408 6.06375 17.9044L7.06212 17.9616ZM7.26817 16.7866C7.40192 16.4112 7.57766 16.0627 7.79758 15.7564L6.98525 15.1732C6.70341 15.5658 6.48683 16 6.32618 16.4509L7.26817 16.7866ZM7.79178 15.7643C8.0253 15.4522 8.29118 15.1755 8.58229 14.9408L7.95478 14.1622C7.59629 14.4512 7.27273 14.7888 6.99105 15.1653L7.79178 15.7643ZM8.56657 14.953C8.88839 14.7141 9.19465 14.516 9.51155 14.3846L9.12856 13.4609C8.69986 13.6386 8.31684 13.893 7.9705 14.1501L8.56657 14.953ZM9.51697 14.3823C9.8579 14.2362 10.1953 14.1303 10.5266 14.0809L10.3791 13.0919C9.94173 13.1571 9.52013 13.293 9.12314 13.4631L9.51697 14.3823ZM10.5652 14.0736C10.7129 14.0396 10.8227 14.0455 11.0735 14.0218L10.9797 13.0262C10.8504 13.0384 10.573 13.0456 10.3405 13.0992L10.5652 14.0736ZM11.0667 14.0224L11.1025 14.0195L11.0224 13.0227L10.9866 13.0256L11.0667 14.0224ZM11.1069 14.0192L11.1248 14.0176L11.0359 13.0215L11.018 13.0231L11.1069 14.0192ZM11.116 14.0183L11.125 14.0176L11.0537 13.0202L11.0447 13.0208L11.116 14.0183ZM11.1055 14.0186C11.0995 14.0188 11.0958 14.0188 11.1009 14.0188C11.1034 14.0188 11.1073 14.0187 11.1125 14.0187C11.1227 14.0187 11.1361 14.0187 11.1504 14.0187C11.1808 14.0187 11.2089 14.0189 11.2198 14.0191L11.2396 13.0193C11.2043 13.0186 11.0961 13.0184 11.0732 13.0192L11.1055 14.0186ZM11.2336 13.0192L11.1525 13.0186L11.1446 14.0186L11.2257 14.0192L11.2336 13.0192ZM11.1446 14.0186L11.3068 14.0198L11.3147 13.0199L11.1525 13.0186L11.1446 14.0186ZM11.2953 14.0196C11.3563 14.0215 11.4295 14.0207 11.4717 14.0208C11.5263 14.0209 11.5506 14.0223 11.5594 14.0234L11.683 13.031C11.607 13.0216 11.5275 13.0209 11.4739 13.0208C11.4079 13.0206 11.3683 13.0214 11.3263 13.0201L11.2953 14.0196ZM11.5501 14.0221C11.6515 14.0367 11.7599 14.0451 11.829 14.0519C11.9071 14.0596 11.9681 14.0678 12.0275 14.0819L12.2581 13.1088C12.1338 13.0794 12.0209 13.066 11.9275 13.0568C11.8251 13.0466 11.7646 13.0427 11.6923 13.0323L11.5501 14.0221ZM12.0575 14.088C12.1484 14.1038 12.2386 14.1192 12.3274 14.1345L12.497 13.149C12.4073 13.1336 12.3183 13.1183 12.2281 13.1027L12.0575 14.088ZM12.2798 14.1239C12.3668 14.1478 12.4518 14.1714 12.5387 14.1954L12.8048 13.2315C12.7201 13.2081 12.6324 13.1837 12.5447 13.1596L12.2798 14.1239ZM12.5381 14.1953C12.8445 14.2802 13.1375 14.4014 13.4204 14.5438L13.8699 13.6505C13.5436 13.4863 13.1889 13.338 12.8054 13.2316L12.5381 14.1953ZM13.4142 14.5406C13.9543 14.8219 14.3964 15.206 14.7201 15.6046L15.4964 14.9743C15.093 14.4775 14.5463 14.0027 13.8762 13.6537L13.4142 14.5406Z" fill="#9575EA" mask="url(#path-1-outside-1_203_533)"/>
<path d="M35.6641 12.4492L34.7891 20.8398H32.875L34.7891 9.58984H37.625L40.2578 18.1758L42.9219 9.58984H45.7578L47.3516 20.8398H44.1953L43.2656 12.668L41.0703 20.8398H38.2344L35.6641 12.4492ZM54.7812 20.8398H51.9453L47.7422 9.58984H50.9062L54.0234 18.6445L56.8438 9.58984H58.7656L54.7812 20.8398Z" fill="#030326"/>
</svg>
