<svg width="127" height="49" viewBox="0 0 127 49" fill="none" xmlns="http://www.w3.org/2000/svg">
<mask id="mask0_213_836" style="mask-type:luminance" maskUnits="userSpaceOnUse" x="10" y="8" width="31" height="31">
<path d="M10.2578 8.48926H40.2298V38.4613H10.2578V8.48926Z" fill="white"/>
</mask>
<g mask="url(#mask0_213_836)">
<path fill-rule="evenodd" clip-rule="evenodd" d="M14.4911 8.48926H35.9952C38.3341 8.48926 40.2298 10.389 40.2298 12.7239V34.2266C40.2298 36.5655 38.3301 38.4613 35.9952 38.4613H14.4911C12.1536 38.4613 10.2578 36.5616 10.2578 34.2266V12.7239C10.2578 10.385 12.1562 8.48926 14.4911 8.48926Z" fill="#007687"/>
</g>
<path d="M31.0009 23.2832L31.0168 23.3163L30.9824 23.3189L31.0009 23.2832Z" fill="white"/>
<mask id="mask1_213_836" style="mask-type:luminance" maskUnits="userSpaceOnUse" x="15" y="14" width="17" height="19">
<path d="M15.1553 14.4609H31.4959V32.4949H15.1553V14.4609Z" fill="white"/>
</mask>
<g mask="url(#mask1_213_836)">
<path d="M15.1572 32.4959L23.9096 14.4619H26.7208L30.3443 21.9285L26.4457 22.0793L25.3159 19.7628L22.2242 26.097L24.3449 24.7502L26.2777 23.5239L25.775 22.7275L31.4106 22.5105L28.7806 27.4794L28.2779 26.6843L24.6095 29.014L19.1233 32.4959L19.1101 32.4774L19.1008 32.4959H15.1572Z" fill="white"/>
</g>
<mask id="mask2_213_836" style="mask-type:luminance" maskUnits="userSpaceOnUse" x="29" y="23" width="7" height="10">
<path d="M29.125 23.876H35.4433V32.4948H29.125V23.876Z" fill="white"/>
</mask>
<g mask="url(#mask2_213_836)">
<path d="M35.4724 32.4959H31.5288L29.3076 27.9451L31.3449 23.9922L35.4724 32.4959Z" fill="white"/>
</g>
<path d="M30.9831 23.3191L31.0175 23.3164L31.3456 23.9924L29.3083 27.9453L28.9365 27.1846L30.9831 23.3191Z" fill="#001B1F"/>
<path d="M47.459 30.734H50.2517L50.7345 29.4071H54.8184L55.3184 30.734H58.0926L52.9054 17.9639H52.6475L47.459 30.734ZM51.6301 27.0973L52.785 23.8919L53.9056 27.0973H51.6301Z" fill="#001B1F"/>
<path d="M69.2593 23.6337L64.3989 18.2217H63.6064V30.7338H66.1054V23.8573L69.2593 27.1659L72.4131 23.8573L72.3959 30.7338H74.8949V18.2217H74.1197L69.2593 23.6337Z" fill="#001B1F"/>
<path d="M80.3564 30.734H83.1491L83.632 29.4071H87.7158L88.2159 30.734H90.9901L85.8029 17.9639H85.5449L80.3564 30.734ZM84.5276 27.0973L85.6825 23.8919L86.803 27.0973H84.5276Z" fill="#001B1F"/>
<path d="M95.9365 29.9414C97.6087 30.8026 99.142 30.8886 99.8312 30.837C102.141 30.7166 103.554 29.1477 103.554 27.0971C103.554 25.1326 101.9 24.0293 99.9873 23.3229C99.2809 23.0821 98.6776 22.7712 98.6075 22.082C98.5559 21.3927 98.9528 20.7551 99.8312 20.7035C100.211 20.6863 100.986 20.6691 102.347 21.2207L102.658 18.8421C101.072 18.2905 100.228 18.2905 99.5904 18.3249C97.5399 18.4294 96.1098 20.0142 96.1098 22.082C96.1098 24.151 97.8323 25.1326 99.7624 25.839C100.452 26.0811 100.986 26.3907 101.038 27.0971C101.106 27.7692 100.486 28.2864 99.7624 28.338C99.1935 28.3896 97.6603 28.3552 96.2474 27.3564L95.9365 29.9414Z" fill="#001B1F"/>
<path d="M108.31 30.734H111.102L111.585 29.4071H115.669L116.169 30.734H118.943L113.756 17.9639H113.498L108.31 30.734ZM112.481 27.0973L113.636 23.8919L114.756 27.0973H112.481Z" fill="#001B1F"/>
</svg>
