<svg width="171" height="38" viewBox="0 0 171 38" fill="none" xmlns="http://www.w3.org/2000/svg">
<path d="M1.08265 14.4131C0.76517 14.4131 0.5 14.6769 0.5 14.9944V31.9718C0.5 32.293 0.765321 32.5531 1.08265 32.5531M5.95865 14.4131H1.08265C0.76517 14.4131 0.5 14.6769 0.5 14.9944V31.9718C0.5 32.293 0.765321 32.5531 1.08265 32.5531H5.93333C11.1026 32.5531 14.9173 29.2291 14.9173 23.4958C14.9173 17.7664 11.1293 14.4131 5.95865 14.4131ZM5.80519 29.2825H4.02921V17.6904H5.83321C8.79988 17.6904 11.2572 19.5584 11.2572 23.4958C11.2572 27.4384 8.77586 29.2825 5.80519 29.2825Z" fill="#4B2A91"/>
<path d="M26.4604 28.0732C27.7658 28.0732 28.8151 29.1226 28.8151 30.4026C28.8151 31.6799 27.7658 32.7306 26.4604 32.7306C25.1804 32.7306 24.1338 31.6799 24.1338 30.4026C24.1338 29.1226 25.1804 28.0732 26.4604 28.0732Z" fill="#4B2A91"/>
<path d="M41.4624 25.131C43.8397 24.443 45.3264 22.5244 45.3264 19.9937C45.3264 16.843 43.0757 14.415 39.5437 14.415H33.0397C32.7184 14.415 32.457 14.6792 32.457 14.9964V31.9723C32.457 32.2936 32.7182 32.5523 33.0397 32.5523H35.4317C35.7518 32.5523 36.0131 32.2897 36.0131 31.9723V25.5683H37.8543L41.1264 31.9723C41.2904 32.2936 41.685 32.5523 42.005 32.5523H44.7597C45.0772 32.5523 45.209 32.2897 45.0466 31.9723L41.4624 25.131ZM38.8797 22.5243H36.0131V17.483H38.8797C40.6704 17.483 41.7184 18.4803 41.7184 20.0163C41.7184 21.503 40.6704 22.5243 38.8797 22.5243Z" fill="#4B2A91"/>
<path d="M24.0083 19.8644C22.9349 19.8644 21.195 20.1698 20.4256 21.8324V20.5417C20.4256 20.2337 20.1841 19.9844 19.883 19.9657H17.7083C17.395 19.9657 17.1363 20.2189 17.127 20.5297V31.9723C17.1307 32.2883 17.3896 32.5498 17.7083 32.5498H19.9443L19.948 32.5422C20.2655 32.5422 20.5294 32.281 20.5294 31.9608V26.7929C20.5294 24.0822 22.0401 23.2382 23.7787 23.2382C24.0841 23.2382 24.4174 23.2608 24.8014 23.3395V19.9128C24.544 19.8864 24.291 19.8644 24.0083 19.8644Z" fill="#4B2A91"/>
<path d="M103.472 19.9668H101.008C100.692 19.9695 100.285 20.228 100.105 20.5428L97.2532 27.3335L94.164 20.5441C93.9841 20.2281 93.5773 19.9694 93.2573 19.9694L90.6266 19.9668C90.3091 19.9668 90.1906 20.228 90.3734 20.5481L95.4374 30.9655L92.7334 36.9348C92.572 37.2496 92.7031 37.5135 93.0202 37.5135H95.4683C95.7774 37.5135 96.1509 37.2693 96.3243 36.9681L103.723 20.5415C103.897 20.2229 103.786 19.9695 103.472 19.9668Z" fill="#4B2A91"/>
<path d="M114.094 24.9291L112.305 24.5451C111.613 24.4169 111.154 24.0331 111.154 23.4171C111.154 22.7024 111.87 22.1664 112.764 22.1664C113.886 22.1664 114.452 22.7464 114.697 23.3531L114.701 23.3493C114.789 23.6426 115.044 23.8253 115.342 23.74L117.171 23.3293C117.458 23.2413 117.617 22.9493 117.563 22.6653C117.179 21.3213 115.866 19.584 112.738 19.584C110.026 19.584 108.031 21.4533 108.031 23.7039C108.031 25.4666 109.13 26.9267 111.559 27.4613L113.226 27.848C114.194 28.0495 114.581 28.512 114.581 29.0746C114.581 29.7386 114.041 30.328 112.915 30.328C111.562 30.328 110.83 29.5599 110.655 28.6626L110.652 28.6653C110.613 28.5308 110.484 28.4522 110.348 28.468L108.209 28.9387C107.92 29.0215 107.752 29.3187 107.81 29.6107C108.205 31.0413 109.614 32.936 112.941 32.936C116.242 32.936 117.828 30.8387 117.828 28.7947C117.828 26.9533 116.576 25.4398 114.094 24.9291Z" fill="#4B2A91"/>
<path d="M52.3091 19.5831C49.0865 19.5831 46.1211 22.1911 46.1211 26.2072C46.1211 30.4538 49.1638 32.9338 52.6158 32.9338C55.5011 32.9338 57.4144 31.3512 58.1811 29.3792C58.2038 29.1086 58.0439 28.8498 57.7731 28.7738L55.9464 28.2312C55.7371 28.187 55.5011 28.2689 55.3384 28.4923C54.8771 29.4043 54.0371 30.019 52.6424 30.019C50.9544 30.019 49.5464 28.8177 49.4705 27.155H57.9371C58.253 27.155 58.5091 26.8965 58.5118 26.5817C58.5193 26.4297 58.5269 26.271 58.5269 26.103C58.5269 22.063 56.1985 19.5831 52.3091 19.5831ZM49.5482 24.8256C49.6268 23.6736 50.5975 22.3443 52.3616 22.3443C54.3069 22.3443 55.1269 23.5723 55.1763 24.8256H49.5482Z" fill="#4B2A91"/>
<path d="M73.4 32.0186L73.3887 20.2893V14.6133C73.3887 14.2906 73.1272 14.0293 72.8073 14.0293H70.6154C70.3221 14.0293 70.0874 14.2572 70.0487 14.5386C70.046 14.5651 70.0336 14.5851 70.0336 14.6134V21.0148L70.0487 21.0121V21.22C69.69 20.5533 68.6687 19.6574 66.494 19.6574C62.938 19.6574 60.458 22.5493 60.458 26.2333C60.458 30.0427 63.0127 32.8574 66.5967 32.8574C68.2833 32.8574 69.562 32.0894 70.1247 31.092C70.1247 31.1109 70.1274 31.126 70.1274 31.1426L70.1311 31.1313C70.1311 31.3139 70.1349 31.4685 70.1425 31.61C70.1614 31.8991 70.1878 32.1567 70.2184 32.3513C70.2664 32.4568 70.3772 32.5407 70.5038 32.5501H72.8344L72.8269 32.535C73.1255 32.535 73.3654 32.3081 73.4 32.0186ZM67.0069 29.8097C65.2122 29.8097 63.8829 28.479 63.8829 26.2297C63.8829 23.979 65.2656 22.6977 67.0069 22.6977C68.7442 22.6977 70.1003 23.9523 70.1003 26.203C70.1003 28.479 68.7442 29.8097 67.0069 29.8097Z" fill="#4B2A91"/>
<path d="M88.5294 32.0186L88.5219 20.2893V14.6133C88.5219 14.2906 88.2607 14.0293 87.9392 14.0293H85.7499C85.4551 14.0293 85.2205 14.2572 85.1819 14.5386C85.1792 14.5651 85.1667 14.5851 85.1667 14.6134V21.0148L85.1819 21.0121V21.22C84.8232 20.5533 83.8005 19.6574 81.6259 19.6574C78.0712 19.6574 75.5898 22.5493 75.5898 26.2333C75.5898 30.0427 78.1472 32.8574 81.7298 32.8574C83.4165 32.8574 84.6952 32.0894 85.2592 31.092V31.1426L85.2668 31.1313C85.2668 31.3139 85.2694 31.4685 85.2781 31.61C85.297 31.8991 85.3246 32.1567 85.3556 32.3513C85.4009 32.4568 85.5143 32.5407 85.6421 32.5501H87.9714L87.9639 32.535C88.2624 32.535 88.5039 32.3044 88.5345 32.015M82.1425 29.8097C80.3506 29.8097 79.0212 28.479 79.0212 26.2297C79.0212 23.979 80.3999 22.6977 82.1425 22.6977C83.8812 22.6977 85.2358 23.9523 85.2358 26.203C85.2358 28.479 83.8812 29.8097 82.1425 29.8097Z" fill="#4B2A91"/>
<path d="M109.048 16.668C109.136 16.4386 109.19 16.1933 109.19 15.9347C109.19 14.796 108.256 13.8613 107.094 13.8613C105.955 13.8613 105.021 14.796 105.021 15.9347C105.021 16.9027 105.698 17.7173 106.6 17.9413L105.466 20.4773C105.462 20.4962 105.458 20.5114 105.458 20.5306C105.458 20.6478 105.553 20.7427 105.67 20.7427L105.669 20.7465H106.805C106.914 20.7465 107.044 20.6611 107.105 20.556L109.006 16.772C109.022 16.7417 109.033 16.7066 109.045 16.6734C109.046 16.672 109.048 16.6718 109.048 16.668Z" fill="#4B2A91"/>
<path d="M144.665 24.8392C144.665 25.8672 143.832 26.7032 142.805 26.7032C141.776 26.7032 140.944 25.8672 140.944 24.8392C140.944 23.8125 141.776 22.9778 142.805 22.9778C143.832 22.9778 144.665 23.8125 144.665 24.8392ZM146.829 36.4712V11.1405C146.738 7.26851 144.404 3.95519 141.074 2.44587C139.969 1.96719 138.777 1.65918 137.536 1.59251C131.39 1.26709 126.641 4.90186 125.374 9.80855C124.552 12.7965 125.188 16.3871 127.245 19.4045C129.769 23.1098 140.146 32.9338 145.157 37.3112C145.33 37.4378 145.541 37.5153 145.773 37.5153C146.353 37.5153 146.821 37.0485 146.829 36.4712Z" fill="#4B2A91"/>
<path d="M154.607 23.3584C152.049 23.3584 149.981 25.4264 149.981 27.9811C149.981 30.5304 152.049 32.5998 154.607 32.5998C157.156 32.5998 159.229 30.5304 159.229 27.9811C159.229 25.4264 157.156 23.3584 154.607 23.3584Z" fill="#4B2A91"/>
<path d="M149.983 33.8457C149.1 33.8457 148.387 34.5604 148.387 35.4417C148.387 36.323 149.1 37.0364 149.983 37.0364C150.863 37.0364 151.576 36.323 151.576 35.4417C151.576 34.5604 150.863 33.8457 149.983 33.8457Z" fill="#4B2A91"/>
<path d="M163.404 12.1172C160.016 12.1172 157.266 14.8652 157.266 18.2626C157.266 21.6519 160.016 24.3999 163.404 24.3999C166.8 24.3999 169.548 21.6519 169.548 18.2626C169.548 14.8652 166.8 12.1172 163.404 12.1172Z" fill="#4B2A91"/>
<path d="M167.677 4.55371C165.898 4.55371 164.453 5.995 164.453 7.77769C164.453 9.55502 165.898 10.999 167.677 10.999C169.456 10.999 170.9 9.55502 170.9 7.77769C170.9 5.995 169.456 4.55371 167.677 4.55371Z" fill="#4B2A91"/>
<path d="M155.35 12.2947C158.612 12.2947 161.256 9.65599 161.256 6.39732C161.256 3.14001 158.612 0.5 155.35 0.5C152.098 0.5 149.457 3.14001 149.457 6.39732C149.457 9.65599 152.098 12.2947 155.35 12.2947Z" fill="#4B2A91"/>
<path d="M155.578 17.4852C155.578 19.4212 154.008 20.9905 152.072 20.9905C150.138 20.9905 148.568 19.4212 148.568 17.4852C148.568 15.5479 150.138 13.9785 152.072 13.9785C154.008 13.9785 155.578 15.5479 155.578 17.4852Z" fill="#4B2A91"/>
</svg>
