<svg width="77" height="38" viewBox="0 0 77 38" fill="none" xmlns="http://www.w3.org/2000/svg">
<path d="M2.00948 30V9.3311H14.4539V12.7903H5.46865V17.9431H12.7315V21.388H5.46865V30H2.00948ZM20.8097 30.4306C19.6902 30.4306 18.7428 30.2201 17.9678 29.7991C17.1927 29.3685 16.6042 28.7991 16.2023 28.091C15.81 27.3829 15.6138 26.603 15.6138 25.7514C15.6138 25.005 15.7382 24.3352 15.987 23.7419C16.2358 23.1391 16.6185 22.6224 17.1353 22.1918C17.652 21.7516 18.3218 21.3927 19.1447 21.1152C19.7667 20.9143 20.494 20.7325 21.3265 20.5698C22.1685 20.4071 23.0776 20.2588 24.0536 20.1249C25.0392 19.9813 26.0679 19.8282 27.1396 19.6656L25.9052 20.3689C25.9148 19.2971 25.6755 18.5077 25.1875 18.0006C24.6995 17.4934 23.8766 17.2398 22.7187 17.2398C22.0202 17.2398 21.3456 17.4025 20.6949 17.7278C20.0442 18.0532 19.5897 18.613 19.3313 19.4072L16.1736 18.4168C16.5563 17.1059 17.2836 16.0533 18.3553 15.2591C19.4366 14.4648 20.8911 14.0677 22.7187 14.0677C24.0967 14.0677 25.3071 14.2926 26.3502 14.7423C27.4027 15.1921 28.1826 15.9289 28.6898 16.9528C28.9673 17.4982 29.1347 18.058 29.1921 18.6321C29.2495 19.1967 29.2782 19.8139 29.2782 20.4837V30H26.2497V26.6413L26.752 27.1867C26.0535 28.3063 25.2354 29.1292 24.2976 29.6555C23.3694 30.1722 22.2068 30.4306 20.8097 30.4306ZM21.4987 27.6747C22.2834 27.6747 22.9532 27.536 23.5082 27.2585C24.0632 26.981 24.5033 26.6413 24.8287 26.2394C25.1636 25.8375 25.3885 25.4595 25.5033 25.1055C25.6851 24.6653 25.7856 24.163 25.8047 23.5984C25.8334 23.0242 25.8478 22.5602 25.8478 22.2061L26.9099 22.5219C25.8669 22.6846 24.9722 22.8281 24.2258 22.9525C23.4795 23.0769 22.8384 23.1965 22.3025 23.3113C21.7666 23.4166 21.293 23.5362 20.8815 23.6702C20.4796 23.8137 20.1399 23.9811 19.8624 24.1725C19.5849 24.3639 19.3696 24.584 19.2165 24.8328C19.073 25.0816 19.0012 25.3734 19.0012 25.7083C19.0012 26.0911 19.0969 26.4308 19.2883 26.7274C19.4797 27.0145 19.7572 27.2441 20.1208 27.4164C20.494 27.5886 20.9533 27.6747 21.4987 27.6747ZM39.0004 30.4306C37.0866 30.4306 35.5317 30 34.3356 29.1388C33.1395 28.2776 32.4122 27.0671 32.1539 25.5074L35.6848 24.962C35.8666 25.7275 36.2685 26.3303 36.8905 26.7705C37.5125 27.2107 38.2971 27.4307 39.2444 27.4307C40.0769 27.4307 40.7181 27.2681 41.1678 26.9427C41.6271 26.6078 41.8568 26.1533 41.8568 25.5792C41.8568 25.2251 41.7706 24.9428 41.5984 24.7323C41.4357 24.5122 41.0721 24.3017 40.5075 24.1008C39.943 23.8998 39.077 23.6462 37.9096 23.34C36.6082 22.9955 35.5748 22.6271 34.8092 22.2348C34.0437 21.8329 33.4935 21.3593 33.1586 20.8138C32.8237 20.2684 32.6562 19.6081 32.6562 18.8331C32.6562 17.8666 32.9098 17.0245 33.417 16.3069C33.9241 15.5892 34.6322 15.039 35.5413 14.6562C36.4503 14.2639 37.522 14.0677 38.7564 14.0677C39.9621 14.0677 41.029 14.2543 41.9572 14.6275C42.895 15.0007 43.6509 15.5318 44.2251 16.2207C44.7992 16.9097 45.1533 17.7183 45.2872 18.6465L41.7563 19.278C41.6702 18.6178 41.3687 18.0962 40.852 17.7135C40.3449 17.3307 39.6655 17.1154 38.8138 17.0676C38.0005 17.0197 37.345 17.1441 36.8474 17.4408C36.3498 17.7278 36.101 18.1345 36.101 18.6608C36.101 18.9575 36.2015 19.211 36.4025 19.4215C36.6034 19.6321 37.0053 19.8426 37.6081 20.0531C38.2206 20.2636 39.1296 20.522 40.3353 20.8282C41.5697 21.144 42.5553 21.5076 43.2921 21.919C44.0385 22.3209 44.5743 22.8042 44.8997 23.3687C45.2346 23.9333 45.402 24.6175 45.402 25.4213C45.402 26.981 44.8327 28.2058 43.694 29.0957C42.5649 29.9856 41.0003 30.4306 39.0004 30.4306ZM57.6316 30C56.6077 30.1914 55.603 30.2727 54.6174 30.244C53.6413 30.2249 52.7658 30.0478 51.9907 29.7129C51.2156 29.3685 50.6271 28.8278 50.2252 28.091C49.8712 27.4212 49.6846 26.737 49.6655 26.0385C49.6463 25.3399 49.6367 24.5505 49.6367 23.6702V10.1923H53.0816V23.4692C53.0816 24.0912 53.0863 24.6366 53.0959 25.1055C53.1151 25.5744 53.2155 25.9571 53.3973 26.2538C53.7418 26.8279 54.292 27.1485 55.048 27.2154C55.8039 27.2824 56.6651 27.2441 57.6316 27.1006V30ZM46.8235 17.2111V14.4983H57.6316V17.2111H46.8235ZM71.6869 30V22.5362C71.6869 22.0482 71.6534 21.5076 71.5865 20.9143C71.5195 20.321 71.3616 19.7517 71.1128 19.2062C70.8736 18.6512 70.51 18.1967 70.0219 17.8427C69.5435 17.4886 68.8928 17.3116 68.0699 17.3116C67.6297 17.3116 67.1943 17.3834 66.7637 17.5269C66.3331 17.6704 65.9408 17.9192 65.5867 18.2733C65.2423 18.6178 64.9648 19.0962 64.7542 19.7086C64.5437 20.3115 64.4385 21.0865 64.4385 22.0339L62.3859 21.1583C62.3859 19.8378 62.6395 18.6417 63.1467 17.57C63.6634 16.4982 64.4193 15.6466 65.4145 15.0151C66.4097 14.3739 67.6345 14.0534 69.089 14.0534C70.2372 14.0534 71.1846 14.2448 71.9309 14.6275C72.6773 15.0103 73.2706 15.4983 73.7108 16.0916C74.1509 16.6848 74.4763 17.3164 74.6868 17.9862C74.8973 18.656 75.0313 19.2924 75.0887 19.8952C75.1557 20.4885 75.1892 20.9717 75.1892 21.3449V30H71.6869ZM60.9362 30V14.4983H64.0222V19.3067H64.4385V30H60.9362Z" fill="#030326"/>
</svg>
