<svg width="70" height="60" viewBox="0 0 70 60" fill="none" xmlns="http://www.w3.org/2000/svg">
<g clip-path="url(#clip0_213_716)">
<path d="M27.6417 13.4394V14.4694C27.6747 15.3271 27.5348 16.1824 27.2312 16.9806C26.9275 17.7788 26.4667 18.5022 25.8783 19.1045C25.2714 19.7001 24.5563 20.1638 23.7747 20.4685C22.9932 20.7731 22.161 20.9125 21.327 20.8786C20.4169 20.9075 19.5106 20.7436 18.6633 20.3971C17.816 20.0505 17.0454 19.5284 16.3984 18.8626C15.7652 18.2275 15.2649 17.4635 14.9287 16.6184C14.5925 15.7732 14.4277 14.8651 14.4445 13.9508C14.4349 13.0302 14.6028 12.117 14.9384 11.265C15.274 10.413 15.7705 9.63959 16.3985 8.99037C17.0265 8.34116 17.7733 7.82933 18.5948 7.48511C19.4163 7.14089 20.2959 6.97127 21.1815 6.98627C22.3286 6.97286 23.4599 7.265 24.4676 7.83483C25.4182 8.36087 26.2163 9.14136 26.7794 10.0955L24.6131 11.3931C24.2813 10.8216 23.8013 10.3588 23.2279 10.058C22.5917 9.71019 21.8818 9.53346 21.163 9.54388C20.6041 9.52453 20.0475 9.6255 19.5279 9.84044C19.0084 10.0554 18.5373 10.3797 18.1441 10.7929C17.752 11.2088 17.4451 11.703 17.2417 12.2455C17.0384 12.7881 16.9428 13.3679 16.9609 13.9498C16.9427 14.5273 17.0402 15.1025 17.2471 15.6388C17.4539 16.1751 17.7657 16.661 18.1626 17.0655C18.5866 17.4826 19.0872 17.8064 19.6344 18.0177C20.1816 18.229 20.7642 18.3234 21.3473 18.2953C22.205 18.3303 23.0528 18.0946 23.779 17.619C24.4135 17.1789 24.8781 16.5201 25.0909 15.7588H21.2V13.4312H27.6425L27.6417 13.4394Z" fill="#191919"/>
<path d="M36.4867 20.6085L33.8893 15.9707H31.9716V20.6057H29.4385V7.25588H34.5779C35.1384 7.25395 35.6939 7.36699 36.2124 7.58851C36.7309 7.81004 37.2023 8.1357 37.5995 8.54685C37.9967 8.95799 38.312 9.44655 38.5273 9.98453C38.7425 10.5225 38.8536 11.0993 38.854 11.682C38.8562 12.5019 38.6192 13.3032 38.1743 13.9803C37.732 14.6772 37.1086 15.2294 36.3765 15.573L39.2208 20.613H36.4876L36.4867 20.6085ZM31.9707 9.71637V13.666H34.577C34.8103 13.6675 35.0412 13.6162 35.2536 13.5157C35.466 13.4152 35.6548 13.2679 35.8069 13.0841C36.1466 12.7036 36.3308 12.2009 36.3209 11.682C36.3317 11.1652 36.146 10.6647 35.8043 10.2891C35.6506 10.1077 35.4613 9.96276 35.2491 9.86395C35.0369 9.76515 34.8068 9.71482 34.5743 9.71637H31.9707Z" fill="#191919"/>
<path d="M50.7255 7.25757C51.5502 7.23723 52.3698 7.39814 53.1305 7.72976C53.8913 8.06139 54.5761 8.55626 55.1401 9.18197C56.2792 10.4807 56.9107 12.1747 56.9107 13.932C56.9107 15.6894 56.2792 17.3834 55.1401 18.6821C54.5762 19.3079 53.8914 19.8029 53.1306 20.1345C52.3698 20.4662 51.5502 20.627 50.7255 20.6065H45.624V7.25757H50.7255ZM50.7255 18.0929C51.231 18.112 51.7347 18.0191 52.2029 17.8201C52.6711 17.6212 53.0932 17.3209 53.4411 16.9391C54.1172 16.0957 54.4874 15.0326 54.4874 13.9348C54.4874 12.837 54.1172 11.7739 53.4411 10.9304C53.0932 10.5487 52.6711 10.2484 52.2029 10.0494C51.7347 9.85048 51.231 9.75752 50.7255 9.7767H48.1562V18.0938H50.7255V18.0929Z" fill="#191919"/>
<path d="M12.3876 24.3308C13.2123 24.3105 14.0319 24.4714 14.7926 24.803C15.5534 25.1346 16.2382 25.6295 16.8022 26.2552C17.9413 27.5539 18.5728 29.2479 18.5728 31.0053C18.5728 32.7626 17.9413 34.4566 16.8022 35.7553C16.2383 36.3812 15.5535 36.8761 14.7927 37.2078C14.032 37.5394 13.2123 37.7002 12.3876 37.6797H7.28613V24.3308H12.3876ZM12.3876 35.1661C12.8931 35.1853 13.3968 35.0923 13.865 34.8934C14.3333 34.6944 14.7554 34.3941 15.1032 34.0124C15.7793 33.1689 16.1495 32.1058 16.1495 31.008C16.1495 29.9102 15.7793 28.8471 15.1032 28.0037C14.7554 27.6219 14.3333 27.3216 13.865 27.1227C13.3968 26.9237 12.8931 26.8308 12.3876 26.8499H9.81923V35.167H12.3876V35.1661Z" fill="#191919"/>
<path d="M22.9042 35.1635H28.3186V37.6817H20.3711V24.3291H28.2261V26.8473H22.9042V29.6881H27.7676V32.1678H22.9042V35.1635Z" fill="#191919"/>
<path d="M34.4861 37.9536C33.3549 37.9936 32.2374 37.6853 31.2742 37.0674C30.4211 36.4973 29.7751 35.648 29.4385 34.6537L31.6048 33.3368C31.808 33.9704 32.2089 34.5154 32.744 34.8853C33.2791 35.2551 33.9177 35.4287 34.5584 35.3785C35.1063 35.4237 35.6536 35.2832 36.1182 34.9781C36.2808 34.8541 36.4111 34.69 36.4973 34.5005C36.5835 34.3111 36.6229 34.1022 36.6119 33.8929C36.6008 33.6837 36.5398 33.4806 36.4341 33.302C36.3285 33.1235 36.1817 32.9751 36.0071 32.8704C35.3215 32.4955 34.5938 32.2105 33.8408 32.0218C33.3448 31.8732 32.8576 31.6949 32.3816 31.4876C31.9598 31.2948 31.5595 31.0548 31.1877 30.7719C30.796 30.4808 30.4829 30.0898 30.2787 29.6365C30.0616 29.1332 29.955 28.5861 29.9666 28.0347C29.9452 27.4868 30.0454 26.9411 30.2595 26.4399C30.4735 25.9387 30.7957 25.4954 31.201 25.1444C32.037 24.4219 33.0967 24.0387 34.1837 24.0658C35.1532 24.045 36.1072 24.3203 36.9276 24.8576C37.7275 25.3978 38.3664 26.1595 38.772 27.0569L36.6436 28.3352C36.455 27.8198 36.1172 27.3778 35.6768 27.0703C35.2364 26.7627 34.7151 26.6046 34.1846 26.6179C33.7444 26.5925 33.3091 26.7238 32.9502 26.99C32.8071 27.1019 32.6916 27.2476 32.6132 27.4151C32.5349 27.5825 32.496 27.7669 32.4997 27.9531C32.4961 28.1533 32.5404 28.3513 32.6286 28.5293C32.7168 28.7073 32.8461 28.8598 33.0049 28.973C33.607 29.3551 34.2609 29.6411 34.9446 29.8216C35.3355 29.9493 35.6323 30.0476 35.8351 30.1167C36.0379 30.1857 36.313 30.2938 36.6604 30.4411C36.9408 30.5529 37.2114 30.69 37.4689 30.8507C37.6961 31.0075 37.9134 31.1792 38.1196 31.3648C38.3411 31.5528 38.5304 31.7783 38.6795 32.0319C38.8209 32.2938 38.9319 32.5722 39.0101 32.8612C39.1049 33.2056 39.1512 33.5624 39.1476 33.9206C39.1684 34.4814 39.0621 35.0395 38.8373 35.5498C38.6125 36.0601 38.2754 36.5084 37.8533 36.8585C36.8871 37.6182 35.6957 38.003 34.4853 37.9462L34.4861 37.9536Z" fill="#191919"/>
<path d="M40.7067 20.6103V2.63276H2.53309V42.312H40.7103V24.3299H43.2442V44.942H0V0H43.2407V20.6103H40.7067Z" fill="#191919"/>
<path d="M58.2364 30.5145V31.5446C58.2694 32.4022 58.1296 33.2575 57.8259 34.0557C57.5223 34.8539 57.0614 35.5774 56.473 36.1796C55.8662 36.7753 55.1511 37.239 54.3695 37.5437C53.588 37.8483 52.7558 37.9877 51.9217 37.9537C51.0116 37.9826 50.1054 37.8188 49.2581 37.4722C48.4108 37.1256 47.6402 36.6035 46.9931 35.9377C46.3598 35.3025 45.8595 34.5384 45.5233 33.6931C45.1871 32.8478 45.0223 31.9395 45.0393 31.025C45.0296 30.1044 45.1976 29.1912 45.5332 28.3392C45.8688 27.4873 46.3652 26.7138 46.9932 26.0646C47.6212 25.4154 48.3681 24.9036 49.1896 24.5593C50.0111 24.2151 50.8906 24.0455 51.7763 24.0605C52.9234 24.0471 54.0547 24.3392 55.0623 24.9091C56.013 25.4351 56.8111 26.2156 57.3741 27.1698L55.2078 28.4674C54.8761 27.8958 54.396 27.433 53.8227 27.1322C53.1864 26.7844 52.4766 26.6077 51.7578 26.6181C51.1989 26.5988 50.6422 26.6997 50.1227 26.9147C49.6032 27.1296 49.132 27.4539 48.7389 27.8671C48.3468 28.2831 48.0398 28.7772 47.8365 29.3198C47.6331 29.8623 47.5376 30.4421 47.5556 31.0241C47.5375 31.6016 47.6349 32.1767 47.8418 32.713C48.0487 33.2494 48.3604 33.7352 48.7574 34.1398C49.1814 34.5568 49.6819 34.8806 50.2291 35.0919C50.7763 35.3032 51.3589 35.3977 51.942 35.3695C52.7997 35.4046 53.6475 35.1688 54.3737 34.6932C55.0082 34.2531 55.4728 33.5943 55.6857 32.833H51.7948V30.5054H58.2373L58.2364 30.5145Z" fill="#191919"/>
<path d="M67.4689 24.3291H70.0002V37.6817H68.0737L62.5684 29.5176V37.6817H60.0371V24.3291H61.9619L67.4706 32.4629V24.3291H67.4689Z" fill="#191919"/>
<path d="M0 49.5633H1.4107V51.9688L1.32253 52.7514H1.4107C1.55854 52.5022 1.76643 52.2975 2.01378 52.1576C2.32417 51.9845 2.67305 51.8998 3.02508 51.912C3.35761 51.9114 3.68633 51.9855 3.98877 52.1292C4.29348 52.2743 4.56809 52.4798 4.79727 52.734C5.03746 53.002 5.22575 53.3156 5.35186 53.6577C5.49078 54.0324 5.56018 54.431 5.55641 54.8325C5.561 55.2341 5.49157 55.6328 5.35186 56.0073C5.22468 56.3488 5.03652 56.6622 4.79727 56.931C4.56838 57.1856 4.2937 57.391 3.98877 57.5358C3.68656 57.6802 3.35768 57.7543 3.02508 57.753C2.67303 57.7653 2.32411 57.6806 2.01378 57.5074C1.76582 57.3683 1.55773 57.1634 1.4107 56.9136H1.32253V57.5734H0V49.5605V49.5633ZM2.73324 56.4013C2.91511 56.4014 3.09509 56.3631 3.26225 56.2886C3.42926 56.215 3.58104 56.1086 3.70927 55.9752C3.8437 55.8343 3.94981 55.6671 4.02139 55.4831C4.17932 55.0655 4.17932 54.6013 4.02139 54.1837C3.94873 54.0003 3.84276 53.8333 3.70927 53.6916C3.58137 53.5578 3.42951 53.4513 3.26225 53.3782C3.09509 53.3037 2.91511 53.2654 2.73324 53.2655C2.55197 53.2653 2.37235 53.3013 2.20422 53.3718C2.03684 53.4422 1.88481 53.5469 1.75721 53.6797C1.62308 53.8208 1.51702 53.988 1.44509 54.1718C1.28745 54.5964 1.28745 55.0667 1.44509 55.4913C1.51774 55.6747 1.62372 55.8418 1.75721 55.9835C1.88455 56.1166 2.03664 56.2213 2.20422 56.2914C2.37239 56.3617 2.55198 56.3977 2.73324 56.3977V56.4013Z" fill="#191919"/>
<path d="M7.9029 57.3079L5.68457 52.0928H7.28925L8.62412 55.4165H8.69907L9.98016 52.0928H11.5513L8.245 59.9947H6.72761L7.90114 57.3079H7.9029Z" fill="#191919"/>
<path d="M16.661 57.7534C16.3494 57.758 16.039 57.7128 15.7405 57.6196C15.4912 57.54 15.255 57.421 15.0405 57.2668C14.8488 57.1276 14.6797 56.9575 14.5397 56.7628C14.4102 56.5868 14.3052 56.3928 14.2275 56.1864L15.4884 55.6256C15.5892 55.8819 15.7599 56.102 15.9795 56.2588C16.183 56.3962 16.421 56.4683 16.6636 56.4659C16.8783 56.4772 17.0919 56.4268 17.2808 56.3202C17.3447 56.2885 17.3993 56.2397 17.4391 56.1788C17.4789 56.118 17.5025 56.0472 17.5074 55.9738C17.5085 55.9011 17.4917 55.8293 17.4587 55.7652C17.4257 55.7011 17.3775 55.6467 17.3187 55.6073C17.1179 55.4839 16.8976 55.3985 16.6681 55.3553L15.9248 55.1875C15.7492 55.1461 15.5782 55.0862 15.4143 55.0089C15.2411 54.9288 15.0798 54.8233 14.9355 54.6955C14.7914 54.567 14.6718 54.4116 14.5829 54.2373C14.4859 54.044 14.4377 53.8284 14.4427 53.6105C14.438 53.3606 14.4957 53.1137 14.6102 52.8939C14.723 52.6839 14.8793 52.5027 15.0678 52.3633C15.2752 52.2105 15.5068 52.0966 15.752 52.027C16.0272 51.9471 16.3118 51.9076 16.5975 51.9097C17.0633 51.9011 17.5245 52.0066 17.9439 52.2176C18.3396 52.4229 18.6496 52.7712 18.8159 53.1972L17.5991 53.7113C17.509 53.5064 17.3532 53.3406 17.1583 53.2421C16.9773 53.1487 16.7784 53.0989 16.5764 53.0964C16.3924 53.0932 16.2107 53.1376 16.0473 53.2256C15.9835 53.2528 15.9283 53.2982 15.8882 53.3566C15.8481 53.4149 15.8247 53.4839 15.8208 53.5555C15.8213 53.6194 15.8393 53.6819 15.8727 53.7356C15.9061 53.7893 15.9536 53.8321 16.0094 53.8588C16.1709 53.9476 16.3424 54.0151 16.5199 54.0595L17.3284 54.2602C17.7807 54.3465 18.1985 54.5697 18.5293 54.9017C18.7866 55.1838 18.9274 55.5595 18.9217 55.9482C18.9223 56.186 18.8669 56.4204 18.7603 56.6309C18.6475 56.8536 18.4917 57.0498 18.3027 57.2073C18.091 57.383 17.8506 57.5177 17.593 57.605C17.2959 57.7056 16.9849 57.7548 16.6725 57.7507L16.661 57.7534Z" fill="#191919"/>
<path d="M23.6704 57.6985L23.7586 56.9159H23.6704C23.5226 57.165 23.3147 57.3698 23.0674 57.5097C22.757 57.6828 22.4081 57.7675 22.0561 57.7553C21.7235 57.7559 21.3948 57.6818 21.0924 57.5381C20.7877 57.393 20.5131 57.1875 20.2839 56.9333C20.0437 56.6653 19.8554 56.3517 19.7293 56.0096C19.4561 55.2525 19.4561 54.4181 19.7293 53.6609C19.8559 53.3192 20.0442 53.0057 20.2839 52.7372C20.5128 52.4827 20.7874 52.2772 21.0924 52.1324C21.3945 51.9879 21.7234 51.9138 22.0561 51.9152C22.4081 51.9029 22.757 51.9876 23.0674 52.1608C23.3153 52.2999 23.5234 52.5048 23.6704 52.7546H23.7586V52.0948H25.0811V59.9968H23.6704V57.7059V57.6985ZM22.3479 56.4009C22.5292 56.401 22.7087 56.3649 22.8769 56.2946C23.0443 56.2242 23.1963 56.1195 23.3239 55.9867C23.458 55.8456 23.5641 55.6783 23.6361 55.4946C23.7937 55.07 23.7937 54.5996 23.6361 54.175C23.5634 53.9917 23.4574 53.8246 23.3239 53.6829C23.1966 53.5498 23.0445 53.445 22.8769 53.375C22.7087 53.3047 22.5292 53.2686 22.3479 53.2687C22.166 53.2685 21.986 53.3068 21.8189 53.3814C21.6519 53.4551 21.5001 53.5615 21.3719 53.6948C21.2374 53.8357 21.1313 54.003 21.0597 54.1869C20.902 54.6042 20.902 55.0681 21.0597 55.4855C21.1324 55.6688 21.2384 55.8359 21.3719 55.9775C21.4998 56.1113 21.6516 56.2178 21.8189 56.291C21.9861 56.3654 22.166 56.4037 22.3479 56.4037V56.4009Z" fill="#191919"/>
<path d="M29.8908 56.8607H29.8027C29.639 57.136 29.4085 57.3617 29.1343 57.515C28.8399 57.679 28.5099 57.7617 28.176 57.7551C27.8965 57.7767 27.616 57.73 27.3571 57.6186C27.0982 57.5072 26.868 57.3342 26.685 57.1136C26.3387 56.622 26.1659 56.0213 26.1957 55.4128V52.0928H27.6064V55.2378C27.5814 55.5532 27.6714 55.8669 27.8585 56.1166C27.9548 56.2159 28.0703 56.2927 28.1975 56.3419C28.3246 56.391 28.4603 56.4114 28.5956 56.4016C28.7737 56.4051 28.9496 56.3606 29.1061 56.2724C29.254 56.1862 29.3824 56.0681 29.4826 55.926C29.5911 55.7712 29.6712 55.5969 29.7189 55.4119C29.7738 55.2057 29.8011 54.9926 29.8 54.7787V52.0928H31.2107V57.5727H29.8882V56.8561L29.8908 56.8607Z" fill="#191919"/>
<path d="M35.6216 56.9946H35.5335C35.3644 57.207 35.1623 57.3885 34.9357 57.5316C34.6618 57.6918 34.3503 57.7692 34.0364 57.7552C33.7741 57.7572 33.5137 57.71 33.2675 57.6159C33.0365 57.5283 32.8229 57.3976 32.6371 57.2301C32.4577 57.0659 32.3146 56.8633 32.2174 56.6363C32.1153 56.397 32.0641 56.1375 32.0675 55.8757C32.0642 55.6109 32.1194 55.3488 32.2289 55.1096C32.3368 54.882 32.4908 54.6813 32.6803 54.5213C32.8833 54.3521 33.1155 54.2249 33.3645 54.1465C33.6419 54.0583 33.9306 54.0148 34.2206 54.0173C34.5061 54.0114 34.7913 54.0397 35.0706 54.1016C35.2572 54.1458 35.4405 54.204 35.619 54.2757V54.108C35.621 53.9692 35.592 53.8317 35.5342 53.7066C35.4763 53.5814 35.3913 53.4719 35.2857 53.3868C35.0506 53.1921 34.7564 53.0911 34.456 53.1018C34.2166 53.1025 33.9806 53.1608 33.7665 53.2721C33.5523 53.3834 33.3659 53.5447 33.2217 53.7433L32.1989 53.0157C32.4702 52.6571 32.8194 52.3704 33.2178 52.1793C33.6163 51.9881 34.0528 51.8979 34.4913 51.916C35.1656 51.8673 35.8333 52.0805 36.3649 52.5144C36.5901 52.7436 36.7646 53.021 36.8762 53.3274C36.9879 53.6338 37.0339 53.9618 37.0112 54.2885V57.5793H35.6216V56.9974V56.9946ZM35.6216 55.3451C35.4576 55.2637 35.2867 55.198 35.1111 55.149C34.923 55.099 34.7295 55.0744 34.5354 55.0757C34.2577 55.0572 33.9824 55.138 33.7551 55.3048C33.6698 55.37 33.6005 55.4552 33.5529 55.5534C33.5052 55.6517 33.4806 55.7602 33.4809 55.8702C33.4784 55.9755 33.5014 56.0798 33.5475 56.1736C33.5937 56.2674 33.6618 56.3477 33.7454 56.4072C33.9217 56.5419 34.1359 56.6124 34.3546 56.6079C34.5321 56.6096 34.7079 56.5734 34.8713 56.5016C35.0221 56.4362 35.1593 56.3409 35.2751 56.2212C35.3862 56.106 35.474 55.9689 35.5335 55.818C35.5927 55.667 35.6226 55.5054 35.6216 55.3424V55.3451Z" fill="#191919"/>
<path d="M38.127 52.0894H39.4495V52.85H39.5376C39.6037 52.7139 39.691 52.59 39.796 52.4835C39.9041 52.3709 40.0252 52.2727 40.1566 52.1911C40.2921 52.1072 40.4364 52.0398 40.5868 51.9905C40.7347 51.9407 40.8891 51.9151 41.0445 51.9144C41.2062 51.9111 41.3674 51.9324 41.5232 51.9776C41.6435 52.0137 41.758 52.0684 41.8627 52.1398L41.4862 53.4493C41.395 53.4031 41.2992 53.3675 41.2005 53.343C41.0748 53.3148 40.9465 53.3016 40.8179 53.3036C40.6352 53.3006 40.4542 53.3411 40.2889 53.4218C40.1318 53.4992 39.9937 53.6126 39.885 53.7536C39.7701 53.9028 39.6825 54.0727 39.6267 54.2548C39.5655 54.4566 39.5358 54.6673 39.5385 54.8789V57.5785H38.1278V52.0949L38.127 52.0894Z" fill="#191919"/>
<path d="M47.1839 56.2532C46.946 56.6938 46.6075 57.0668 46.1982 57.3392C45.7437 57.6274 45.2182 57.7713 44.6861 57.7534C44.3045 57.7572 43.9259 57.6834 43.5716 57.5362C43.2388 57.3971 42.9365 57.1895 42.6829 56.9259C42.4292 56.6623 42.2295 56.3481 42.0957 56.0022C41.9521 55.6303 41.8805 55.2326 41.885 54.8319C41.8826 54.4466 41.9521 54.0645 42.0895 53.7066C42.2198 53.3616 42.4135 53.0463 42.66 52.7783C42.9073 52.5113 43.2019 52.2963 43.5275 52.1451C43.8751 51.9856 44.2515 51.9053 44.6314 51.9096C45.0184 51.9028 45.4027 51.9766 45.7618 52.1268C46.078 52.2621 46.3613 52.4687 46.5914 52.7316C46.8186 52.9981 46.9911 53.3099 47.0984 53.648C47.2154 54.0162 47.2735 54.402 47.2703 54.7898V54.9245C47.2638 54.9651 47.2606 55.0062 47.2606 55.0473C47.2529 55.0877 47.249 55.1289 47.2491 55.1701H43.2763C43.298 55.3724 43.3579 55.5683 43.4526 55.7465C43.5377 55.9019 43.6509 56.0388 43.7859 56.1497C43.9156 56.2558 44.0634 56.3357 44.2214 56.3852C44.3789 56.4337 44.5422 56.4584 44.7064 56.4585C44.9901 56.4702 45.2704 56.3901 45.5087 56.2295C45.7167 56.0806 45.8882 55.8832 46.0095 55.653L47.183 56.2578L47.1839 56.2532ZM45.9028 54.1263C45.8923 54.0136 45.8625 53.9037 45.8147 53.8019C45.7565 53.6757 45.6764 53.5617 45.5784 53.4656C45.4657 53.3553 45.3341 53.2679 45.1904 53.2081C45.0138 53.1365 44.8253 53.1023 44.6358 53.1073C44.35 53.1033 44.071 53.1977 43.8423 53.3758C43.6065 53.5642 43.4362 53.8274 43.3574 54.1254L45.9028 54.1263Z" fill="#191919"/>
<path d="M48.1738 49.5633H49.5845V51.9688L49.4964 52.7514H49.5845C49.7324 52.5022 49.9403 52.2975 50.1876 52.1576C50.498 51.9845 50.8469 51.8998 51.1989 51.912C51.5314 51.9114 51.8602 51.9855 52.1626 52.1292C52.4673 52.2743 52.7419 52.4798 52.9711 52.734C53.211 53.0021 53.399 53.3157 53.5248 53.6577C53.6637 54.0324 53.7332 54.431 53.7294 54.8325C53.734 55.2341 53.6645 55.6329 53.5248 56.0073C53.3979 56.3487 53.21 56.6621 52.9711 56.931C52.7422 57.1856 52.4675 57.391 52.1626 57.5358C51.8604 57.6802 51.5315 57.7543 51.1989 57.753C50.8469 57.7653 50.498 57.6806 50.1876 57.5074C49.9397 57.3683 49.7316 57.1634 49.5845 56.9136H49.4964V57.5734H48.1738V49.5605V49.5633ZM50.9071 56.4013C51.0889 56.4014 51.2689 56.3631 51.4361 56.2886C51.6032 56.2151 51.755 56.1087 51.8831 55.9752C52.0175 55.8343 52.1236 55.6671 52.1952 55.4831C52.3532 55.0655 52.3532 54.6013 52.1952 54.1837C52.1226 54.0003 52.0166 53.8332 51.8831 53.6916C51.7552 53.5578 51.6033 53.4513 51.4361 53.3782C51.2689 53.3037 51.0889 53.2654 50.9071 53.2655C50.7258 53.2653 50.5462 53.3013 50.3781 53.3718C50.2107 53.4422 50.0587 53.5469 49.931 53.6797C49.7972 53.8209 49.6915 53.9881 49.6198 54.1718C49.4622 54.5964 49.4622 55.0667 49.6198 55.4913C49.6922 55.6746 49.7979 55.8417 49.931 55.9835C50.0584 56.1166 50.2105 56.2213 50.3781 56.2914C50.5462 56.3617 50.7258 56.3977 50.9071 56.3977V56.4013Z" fill="#191919"/>
<path d="M57.1311 51.9143C57.5164 51.91 57.8988 51.9837 58.257 52.1315C58.5887 52.2686 58.8899 52.4749 59.1418 52.7379C59.3937 53.0008 59.591 53.3146 59.7215 53.66C59.8645 54.0336 59.9361 54.4327 59.9322 54.8348C59.9369 55.237 59.8653 55.6362 59.7215 56.0096C59.591 56.355 59.3937 56.6688 59.1418 56.9317C58.8899 57.1946 58.5887 57.401 58.257 57.5381C57.8991 57.6867 57.5165 57.7605 57.1311 57.7553C56.7458 57.7596 56.3634 57.6858 56.0052 57.5381C55.6734 57.401 55.3723 57.1946 55.1204 56.9317C54.8685 56.6688 54.6712 56.355 54.5407 56.0096C54.2599 55.2539 54.2599 54.4166 54.5407 53.6609C54.6712 53.3156 54.8685 53.0017 55.1204 52.7388C55.3723 52.4759 55.6734 52.2695 56.0052 52.1324C56.3631 51.9835 56.7457 51.9094 57.1311 51.9143ZM57.1311 56.4045C57.3103 56.4044 57.4879 56.3683 57.6539 56.2983C57.8213 56.2279 57.9734 56.1232 58.1009 55.9903C58.2341 55.8494 58.3388 55.682 58.4087 55.4982C58.5583 55.0721 58.5583 54.6048 58.4087 54.1787C58.3397 53.9944 58.235 53.8269 58.1009 53.6866C57.9734 53.5538 57.8213 53.449 57.6539 53.3787C57.4879 53.3086 57.3103 53.2725 57.1311 53.2724C56.9498 53.2721 56.7702 53.3082 56.6021 53.3787C56.437 53.45 56.2871 53.5546 56.1612 53.6866C56.028 53.8276 55.9234 53.9949 55.8535 54.1787C55.7039 54.6048 55.7039 55.0721 55.8535 55.4982C55.9225 55.6825 56.0273 55.85 56.1612 55.9903C56.2871 56.1223 56.437 56.227 56.6021 56.2983C56.7701 56.3687 56.9499 56.4039 57.1311 56.4018V56.4045Z" fill="#191919"/>
<path d="M64.0894 56.9946H64.0012C63.8321 57.207 63.6301 57.3885 63.4034 57.5316C63.1296 57.6918 62.8181 57.7692 62.5041 57.7552C62.2419 57.7572 61.9814 57.71 61.7353 57.6159C61.5043 57.5283 61.2906 57.3976 61.1049 57.2301C60.9255 57.0659 60.7824 56.8633 60.6852 56.6363C60.5831 56.397 60.5319 56.1375 60.5353 55.8757C60.5319 55.6109 60.5872 55.3488 60.6967 55.1096C60.8046 54.882 60.9586 54.6813 61.1481 54.5213C61.3511 54.3521 61.5833 54.2249 61.8323 54.1465C62.1097 54.0583 62.3984 54.0148 62.6884 54.0173C62.9739 54.0114 63.2591 54.0397 63.5384 54.1016C63.725 54.1458 63.9083 54.204 64.0868 54.2757V54.108C64.0888 53.9692 64.0598 53.8317 64.0019 53.7066C63.9441 53.5814 63.859 53.4719 63.7535 53.3868C63.5184 53.1921 63.2242 53.0911 62.9238 53.1018C62.6844 53.1025 62.4484 53.1608 62.2343 53.2721C62.0201 53.3834 61.8337 53.5447 61.6895 53.7433L60.6667 53.0157C60.9379 52.6571 61.2871 52.3704 61.6856 52.1793C62.0841 51.9881 62.5205 51.8979 62.9591 51.916C63.6334 51.8673 64.3011 52.0805 64.8327 52.5144C65.0579 52.7436 65.2324 53.021 65.344 53.3274C65.4556 53.6338 65.5017 53.9618 65.4789 54.2885V57.5793H64.0894V56.9974V56.9946ZM64.0894 55.3451C63.9254 55.2637 63.7545 55.1981 63.5789 55.149C63.3908 55.099 63.1973 55.0743 63.0032 55.0757C62.7255 55.0572 62.4501 55.138 62.2229 55.3048C62.1376 55.37 62.0683 55.4552 62.0207 55.5534C61.973 55.6517 61.9483 55.7602 61.9487 55.8702C61.9463 55.9755 61.9693 56.0798 62.0154 56.1735C62.0616 56.2673 62.1296 56.3476 62.2132 56.4072C62.3895 56.5419 62.6036 56.6124 62.8224 56.6079C62.9998 56.6096 63.1757 56.5734 63.3391 56.5016C63.4899 56.4362 63.627 56.3409 63.7429 56.2212C63.854 56.106 63.9418 55.9689 64.0012 55.818C64.0604 55.667 64.0904 55.5054 64.0894 55.3424V55.3451Z" fill="#191919"/>
<path d="M67.0722 53.3435H66.1455V52.0899H67.0722V50.4111H68.4829V52.0899H69.7745V53.3435H68.482V55.5346C68.4812 55.6579 68.4939 55.7809 68.5199 55.9012C68.542 56.0076 68.5924 56.1053 68.6654 56.1834C68.7191 56.2457 68.7858 56.2946 68.8603 56.3263C68.9348 56.3581 69.0153 56.3719 69.0956 56.3667C69.1938 56.3699 69.2917 56.3566 69.3857 56.3273C69.4581 56.3012 69.5268 56.2655 69.5903 56.221L69.9888 57.5039C69.8203 57.5871 69.6426 57.6487 69.4598 57.6872C69.2525 57.7296 69.0416 57.7502 68.8303 57.7486C68.5857 57.7529 68.3426 57.7081 68.1143 57.6166C67.9153 57.5371 67.735 57.4143 67.5853 57.2565C67.4086 57.0613 67.2725 56.8304 67.1854 56.5781C67.0984 56.3259 67.0622 56.0577 67.0792 55.7903V53.3353L67.0722 53.3435Z" fill="#191919"/>
</g>
<defs>
<clipPath id="clip0_213_716">
<rect width="70" height="60" fill="white"/>
</clipPath>
</defs>
</svg>
