<svg width="240" height="41" viewBox="0 0 240 41" fill="none" xmlns="http://www.w3.org/2000/svg">
<path fill-rule="evenodd" clip-rule="evenodd" d="M22.1625 1.00008C19.5385 1.00008 17.3859 3.12977 17.3859 5.7492C17.3859 7.60982 18.4831 9.23026 20.0521 10.0123L18.6635 14.9833C18.423 14.9535 18.176 14.9417 17.9277 14.9417C16.4018 14.9417 15.0086 15.5198 13.9563 16.4692L11.8874 14.7889C12.179 14.222 12.3455 13.5776 12.3455 12.9004C12.3455 10.5983 10.4523 8.73462 8.16575 8.73462C5.87927 8.73462 4 10.5983 4 12.9004C4 15.1894 5.87332 17.0661 8.16575 17.0661C9.14427 17.0661 10.0475 16.7193 10.7626 16.1496L12.8315 17.8438C12.2999 18.7324 11.9983 19.7646 11.9983 20.8708C11.9983 24.1346 14.6568 26.7862 17.9277 26.7862C18.3459 26.7862 18.755 26.7434 19.1495 26.6613L20.4966 30.2996C19.3448 30.9892 18.5666 32.2442 18.5666 33.6737C18.5666 35.8383 20.3566 37.6171 22.524 37.6171C24.6915 37.6171 26.4675 35.8383 26.4675 33.6737C26.4675 31.509 24.6915 29.7441 22.524 29.7441C22.4118 29.7441 22.3006 29.7485 22.1908 29.7578L20.8162 26.0501C21.636 25.5963 22.3325 24.9454 22.8576 24.1755L29.0508 27.147C29.0405 27.2369 29.0368 27.3323 29.0368 27.4247C29.0368 28.7485 30.1294 29.8408 31.4529 29.8408C32.7763 29.8408 33.8689 28.7485 33.8689 27.4247C33.8689 26.1009 32.7763 25.0086 31.4529 25.0086C30.8655 25.0086 30.333 25.2374 29.9115 25.592L23.621 22.5786C23.785 22.0386 23.8848 21.4634 23.8848 20.8708C23.8848 20.6712 23.8764 20.4682 23.8572 20.2738L36.0767 17.1355C36.7165 18.3515 37.9876 19.1905 39.4508 19.1905C41.5495 19.1905 43.2694 17.4665 43.2694 15.3579C43.2694 13.2617 41.5495 11.5393 39.4508 11.5393C37.3522 11.5393 35.6183 13.2617 35.6183 15.3579V15.4273L23.413 18.5517C22.8278 17.1863 21.7381 16.0835 20.3857 15.4688L21.7604 10.4839C21.8936 10.4951 22.0269 10.5118 22.163 10.5118C24.787 10.5118 26.9396 8.36846 26.9396 5.74912C26.9396 3.12969 24.787 1 22.163 1L22.1625 1.00008Z" fill="url(#paint0_linear_213_583)"/>
<path d="M56.8627 25.9872C55.8862 25.9872 54.9515 25.8503 54.0584 25.5764C53.1653 25.2906 52.4567 24.9274 51.9328 24.4868L52.7366 22.6827C53.2367 23.0757 53.8559 23.4032 54.5942 23.6652C55.3325 23.9271 56.0887 24.0581 56.8627 24.0581C57.5176 24.0581 58.0476 23.9867 58.4524 23.8438C58.8573 23.7009 59.155 23.5103 59.3455 23.2722C59.5361 23.0221 59.6313 22.7423 59.6313 22.4327C59.6313 22.0516 59.4944 21.748 59.2205 21.5217C58.9466 21.2835 58.5894 21.099 58.1488 20.968C57.7201 20.8251 57.2378 20.6941 56.7019 20.575C56.178 20.4559 55.6481 20.319 55.1122 20.1642C54.5883 19.9975 54.106 19.7891 53.6654 19.539C53.2367 19.277 52.8854 18.9317 52.6115 18.503C52.3377 18.0743 52.2007 17.5266 52.2007 16.8597C52.2007 16.181 52.3793 15.5617 52.7366 15.0021C53.1057 14.4305 53.6595 13.978 54.3977 13.6446C55.148 13.2992 56.0946 13.1266 57.2378 13.1266C57.988 13.1266 58.7323 13.2218 59.4706 13.4123C60.2089 13.6029 60.8519 13.8768 61.3997 14.234L60.6673 16.0381C60.1076 15.7046 59.5301 15.4605 58.9347 15.3057C58.3393 15.139 57.7677 15.0557 57.2199 15.0557C56.5769 15.0557 56.053 15.1331 55.6481 15.2879C55.2551 15.4427 54.9634 15.6451 54.7729 15.8952C54.5942 16.1452 54.5049 16.431 54.5049 16.7525C54.5049 17.1336 54.6359 17.4432 54.8979 17.6814C55.1718 17.9076 55.5231 18.0862 55.9517 18.2172C56.3923 18.3482 56.8806 18.4792 57.4164 18.6102C57.9523 18.7293 58.4822 18.8662 59.0062 19.021C59.542 19.1758 60.0243 19.3783 60.453 19.6283C60.8936 19.8784 61.2449 20.2178 61.5068 20.6465C61.7807 21.0752 61.9177 21.617 61.9177 22.2719C61.9177 22.9388 61.7331 23.558 61.3639 24.1296C61.0067 24.6892 60.453 25.1417 59.7028 25.4871C58.9526 25.8205 58.0059 25.9872 56.8627 25.9872ZM68.2927 25.9336C67.3163 25.9336 66.447 25.7252 65.6849 25.3085C64.9228 24.8798 64.3214 24.2963 63.8808 23.558C63.4402 22.8197 63.2199 21.9802 63.2199 21.0394C63.2199 20.0868 63.4402 19.2473 63.8808 18.5209C64.3214 17.7826 64.9228 17.2051 65.6849 16.7883C66.447 16.3715 67.3163 16.1631 68.2927 16.1631C69.2811 16.1631 70.1563 16.3715 70.9184 16.7883C71.6925 17.2051 72.2938 17.7766 72.7225 18.503C73.1631 19.2294 73.3834 20.0749 73.3834 21.0394C73.3834 21.9802 73.1631 22.8197 72.7225 23.558C72.2938 24.2963 71.6925 24.8798 70.9184 25.3085C70.1563 25.7252 69.2811 25.9336 68.2927 25.9336ZM68.2927 24.0224C68.8405 24.0224 69.3287 23.9033 69.7574 23.6652C70.1861 23.427 70.5195 23.0817 70.7577 22.6292C71.0078 22.1766 71.1328 21.6467 71.1328 21.0394C71.1328 20.4202 71.0078 19.8903 70.7577 19.4497C70.5195 18.9972 70.1861 18.6519 69.7574 18.4137C69.3287 18.1756 68.8465 18.0565 68.3106 18.0565C67.7628 18.0565 67.2746 18.1756 66.8459 18.4137C66.4291 18.6519 66.0957 18.9972 65.8456 19.4497C65.5956 19.8903 65.4705 20.4202 65.4705 21.0394C65.4705 21.6467 65.5956 22.1766 65.8456 22.6292C66.0957 23.0817 66.4291 23.427 66.8459 23.6652C67.2746 23.9033 67.7569 24.0224 68.2927 24.0224ZM75.8221 25.8086V15.7344C75.8221 14.7341 76.1139 13.9363 76.6974 13.3409C77.2928 12.7336 78.1382 12.4299 79.2338 12.4299C79.6267 12.4299 79.9959 12.4716 80.3412 12.555C80.6985 12.6383 80.9962 12.7693 81.2343 12.9479L80.627 14.627C80.4603 14.496 80.2698 14.4007 80.0554 14.3412C79.8411 14.2697 79.6208 14.234 79.3945 14.234C78.9301 14.234 78.5788 14.365 78.3407 14.627C78.1025 14.877 77.9834 15.2581 77.9834 15.7701V16.8419L78.0549 17.8421V25.8086H75.8221ZM74.2503 18.1279V16.3417H80.6092V18.1279H74.2503ZM85.7023 25.9336C84.6544 25.9336 83.8447 25.6657 83.2731 25.1298C82.7015 24.5821 82.4157 23.7783 82.4157 22.7185V14.1626H84.6485V22.6649C84.6485 23.1174 84.7616 23.4687 84.9879 23.7187C85.226 23.9688 85.5535 24.0938 85.9703 24.0938C86.4704 24.0938 86.8872 23.9629 87.2206 23.7009L87.8458 25.2906C87.5838 25.5049 87.2623 25.6657 86.8812 25.7729C86.5002 25.88 86.1072 25.9336 85.7023 25.9336ZM80.8439 18.1279V16.3417H87.2028V18.1279H80.8439ZM91.6158 25.8086L88.1148 16.2703H90.2225L93.2234 24.6833H92.2231L95.3668 16.2703H97.2423L100.297 24.6833H99.3143L102.404 16.2703H104.387L100.868 25.8086H98.7249L95.9384 18.3601H96.5993L93.7592 25.8086H91.6158ZM111.502 25.8086V23.8795L111.377 23.4687V20.0927C111.377 19.4378 111.181 18.9317 110.788 18.5745C110.395 18.2053 109.8 18.0208 109.002 18.0208C108.466 18.0208 107.936 18.1041 107.412 18.2708C106.9 18.4375 106.465 18.6697 106.108 18.9674L105.233 17.342C105.745 16.949 106.352 16.6573 107.055 16.4668C107.769 16.2643 108.507 16.1631 109.27 16.1631C110.651 16.1631 111.717 16.4965 112.467 17.1634C113.229 17.8183 113.61 18.8364 113.61 20.2178V25.8086H111.502ZM108.502 25.9336C107.787 25.9336 107.162 25.8145 106.626 25.5764C106.09 25.3263 105.673 24.9869 105.376 24.5583C105.09 24.1177 104.947 23.6235 104.947 23.0757C104.947 22.5398 105.072 22.0576 105.322 21.6289C105.584 21.2002 106.007 20.8608 106.59 20.6107C107.174 20.3607 107.948 20.2356 108.912 20.2356H111.681V21.7182H109.073C108.311 21.7182 107.799 21.8432 107.537 22.0933C107.275 22.3315 107.144 22.6292 107.144 22.9864C107.144 23.3913 107.305 23.7128 107.626 23.9509C107.948 24.1891 108.394 24.3082 108.966 24.3082C109.514 24.3082 110.002 24.1831 110.431 23.9331C110.871 23.683 111.187 23.3139 111.377 22.8256L111.752 24.1653C111.538 24.725 111.151 25.1596 110.591 25.4692C110.044 25.7788 109.347 25.9336 108.502 25.9336ZM116.476 25.8086V16.2703H118.601V18.896L118.351 18.1279C118.637 17.4849 119.083 16.9967 119.691 16.6632C120.31 16.3298 121.078 16.1631 121.995 16.1631V18.2887C121.9 18.2649 121.81 18.253 121.727 18.253C121.644 18.241 121.56 18.2351 121.477 18.2351C120.631 18.2351 119.959 18.4852 119.458 18.9853C118.958 19.4735 118.708 20.2059 118.708 21.1823V25.8086H116.476ZM128.285 25.9336C127.225 25.9336 126.296 25.7252 125.499 25.3085C124.713 24.8798 124.099 24.2963 123.659 23.558C123.23 22.8197 123.016 21.9802 123.016 21.0394C123.016 20.0868 123.224 19.2473 123.641 18.5209C124.07 17.7826 124.653 17.2051 125.391 16.7883C126.142 16.3715 126.993 16.1631 127.946 16.1631C128.875 16.1631 129.702 16.3655 130.429 16.7704C131.155 17.1753 131.727 17.7469 132.143 18.4852C132.56 19.2235 132.768 20.0927 132.768 21.093C132.768 21.1883 132.763 21.2955 132.751 21.4145C132.751 21.5336 132.745 21.6467 132.733 21.7539H124.784V20.2714H131.554L130.679 20.7358C130.691 20.188 130.577 19.7057 130.339 19.289C130.101 18.8722 129.774 18.5447 129.357 18.3065C128.952 18.0684 128.482 17.9493 127.946 17.9493C127.398 17.9493 126.916 18.0684 126.499 18.3065C126.094 18.5447 125.773 18.8781 125.534 19.3068C125.308 19.7236 125.195 20.2178 125.195 20.7894V21.1466C125.195 21.7182 125.326 22.2243 125.588 22.6649C125.85 23.1055 126.219 23.4449 126.695 23.683C127.172 23.9212 127.719 24.0403 128.339 24.0403C128.875 24.0403 129.357 23.9569 129.786 23.7902C130.214 23.6235 130.595 23.3615 130.929 23.0043L132.125 24.3796C131.697 24.8798 131.155 25.2668 130.5 25.5407C129.857 25.8026 129.119 25.9336 128.285 25.9336ZM143.011 25.8086L138.867 13.3052H141.279L144.976 24.6118H143.779L147.62 13.3052H149.763L153.496 24.6118H152.335L156.122 13.3052H158.337L154.193 25.8086H151.728L148.316 15.6094H148.959L145.494 25.8086H143.011ZM163.586 25.9336C162.609 25.9336 161.74 25.7252 160.978 25.3085C160.216 24.8798 159.615 24.2963 159.174 23.558C158.733 22.8197 158.513 21.9802 158.513 21.0394C158.513 20.0868 158.733 19.2473 159.174 18.5209C159.615 17.7826 160.216 17.2051 160.978 16.7883C161.74 16.3715 162.609 16.1631 163.586 16.1631C164.574 16.1631 165.45 16.3715 166.212 16.7883C166.986 17.2051 167.587 17.7766 168.016 18.503C168.456 19.2294 168.677 20.0749 168.677 21.0394C168.677 21.9802 168.456 22.8197 168.016 23.558C167.587 24.2963 166.986 24.8798 166.212 25.3085C165.45 25.7252 164.574 25.9336 163.586 25.9336ZM163.586 24.0224C164.134 24.0224 164.622 23.9033 165.051 23.6652C165.479 23.427 165.813 23.0817 166.051 22.6292C166.301 22.1766 166.426 21.6467 166.426 21.0394C166.426 20.4202 166.301 19.8903 166.051 19.4497C165.813 18.9972 165.479 18.6519 165.051 18.4137C164.622 18.1756 164.14 18.0565 163.604 18.0565C163.056 18.0565 162.568 18.1756 162.139 18.4137C161.722 18.6519 161.389 18.9972 161.139 19.4497C160.889 19.8903 160.764 20.4202 160.764 21.0394C160.764 21.6467 160.889 22.1766 161.139 22.6292C161.389 23.0817 161.722 23.427 162.139 23.6652C162.568 23.9033 163.05 24.0224 163.586 24.0224ZM170.812 25.8086V16.2703H172.937V18.896L172.687 18.1279C172.973 17.4849 173.42 16.9967 174.027 16.6632C174.646 16.3298 175.414 16.1631 176.331 16.1631V18.2887C176.236 18.2649 176.146 18.253 176.063 18.253C175.98 18.241 175.896 18.2351 175.813 18.2351C174.968 18.2351 174.295 18.4852 173.795 18.9853C173.295 19.4735 173.044 20.2059 173.044 21.1823V25.8086H170.812ZM180.047 23.683L180.101 20.8787L185.084 16.2703H187.763L183.53 20.5214L182.351 21.5038L180.047 23.683ZM178.225 25.8086V12.555H180.458V25.8086H178.225ZM185.424 25.8086L181.94 21.5038L183.352 19.7176L188.139 25.8086H185.424ZM192.231 25.9336C191.434 25.9336 190.666 25.8324 189.927 25.63C189.201 25.4156 188.623 25.1596 188.195 24.8619L189.052 23.165C189.481 23.4389 189.993 23.6652 190.588 23.8438C191.184 24.0224 191.779 24.1117 192.374 24.1117C193.077 24.1117 193.583 24.0164 193.893 23.8259C194.214 23.6354 194.375 23.3794 194.375 23.0578C194.375 22.7959 194.268 22.5994 194.053 22.4684C193.839 22.3255 193.559 22.2183 193.214 22.1469C192.869 22.0754 192.482 22.0099 192.053 21.9504C191.636 21.8909 191.213 21.8135 190.785 21.7182C190.368 21.611 189.987 21.4622 189.641 21.2716C189.296 21.0692 189.016 20.8013 188.802 20.4678C188.588 20.1344 188.48 19.6938 188.48 19.1461C188.48 18.5387 188.653 18.0148 188.998 17.5742C189.344 17.1217 189.826 16.7764 190.445 16.5382C191.076 16.2881 191.821 16.1631 192.678 16.1631C193.321 16.1631 193.97 16.2345 194.625 16.3774C195.28 16.5203 195.822 16.7228 196.25 16.9848L195.393 18.6816C194.941 18.4078 194.482 18.2232 194.018 18.1279C193.565 18.0208 193.113 17.9672 192.66 17.9672C191.981 17.9672 191.475 18.0684 191.142 18.2708C190.82 18.4733 190.66 18.7293 190.66 19.0389C190.66 19.3247 190.767 19.539 190.981 19.6819C191.195 19.8248 191.475 19.9379 191.821 20.0213C192.166 20.1047 192.547 20.1761 192.964 20.2356C193.392 20.2833 193.815 20.3607 194.232 20.4678C194.649 20.575 195.03 20.7239 195.375 20.9144C195.732 21.093 196.018 21.349 196.233 21.6825C196.447 22.0159 196.554 22.4505 196.554 22.9864C196.554 23.5818 196.375 24.0998 196.018 24.5404C195.673 24.981 195.179 25.3263 194.536 25.5764C193.893 25.8145 193.125 25.9336 192.231 25.9336ZM203.889 16.1631C204.651 16.1631 205.33 16.312 205.925 16.6097C206.533 16.9074 207.009 17.3658 207.354 17.985C207.7 18.5923 207.872 19.3783 207.872 20.3428V25.8086H205.64V20.6286C205.64 19.7831 205.437 19.152 205.032 18.7352C204.639 18.3185 204.086 18.1101 203.371 18.1101C202.847 18.1101 202.383 18.2172 201.978 18.4316C201.573 18.6459 201.257 18.9674 201.031 19.3961C200.817 19.8129 200.71 20.3428 200.71 20.9858V25.8086H198.477V12.555H200.71V18.8424L200.227 18.0565C200.561 17.4492 201.043 16.9848 201.674 16.6632C202.317 16.3298 203.056 16.1631 203.889 16.1631ZM215.009 25.9336C214.033 25.9336 213.163 25.7252 212.401 25.3085C211.639 24.8798 211.038 24.2963 210.597 23.558C210.157 22.8197 209.936 21.9802 209.936 21.0394C209.936 20.0868 210.157 19.2473 210.597 18.5209C211.038 17.7826 211.639 17.2051 212.401 16.7883C213.163 16.3715 214.033 16.1631 215.009 16.1631C215.997 16.1631 216.873 16.3715 217.635 16.7883C218.409 17.2051 219.01 17.7766 219.439 18.503C219.879 19.2294 220.1 20.0749 220.1 21.0394C220.1 21.9802 219.879 22.8197 219.439 23.558C219.01 24.2963 218.409 24.8798 217.635 25.3085C216.873 25.7252 215.997 25.9336 215.009 25.9336ZM215.009 24.0224C215.557 24.0224 216.045 23.9033 216.474 23.6652C216.902 23.427 217.236 23.0817 217.474 22.6292C217.724 22.1766 217.849 21.6467 217.849 21.0394C217.849 20.4202 217.724 19.8903 217.474 19.4497C217.236 18.9972 216.902 18.6519 216.474 18.4137C216.045 18.1756 215.563 18.0565 215.027 18.0565C214.479 18.0565 213.991 18.1756 213.562 18.4137C213.145 18.6519 212.812 18.9972 212.562 19.4497C212.312 19.8903 212.187 20.4202 212.187 21.0394C212.187 21.6467 212.312 22.1766 212.562 22.6292C212.812 23.0817 213.145 23.427 213.562 23.6652C213.991 23.9033 214.473 24.0224 215.009 24.0224ZM227.522 25.9336C226.748 25.9336 226.039 25.755 225.396 25.3978C224.765 25.0405 224.259 24.5047 223.878 23.7902C223.509 23.0638 223.324 22.1469 223.324 21.0394C223.324 19.9201 223.503 19.0032 223.86 18.2887C224.229 17.5742 224.729 17.0443 225.361 16.699C225.992 16.3417 226.712 16.1631 227.522 16.1631C228.463 16.1631 229.29 16.3655 230.005 16.7704C230.731 17.1753 231.303 17.7409 231.72 18.4673C232.148 19.1937 232.363 20.0511 232.363 21.0394C232.363 22.0278 232.148 22.8911 231.72 23.6294C231.303 24.3558 230.731 24.9214 230.005 25.3263C229.29 25.7312 228.463 25.9336 227.522 25.9336ZM222.235 29.2738V16.2703H224.36V18.5209L224.289 21.0573L224.468 23.5937V29.2738H222.235ZM227.272 24.0224C227.808 24.0224 228.284 23.9033 228.701 23.6652C229.13 23.427 229.469 23.0817 229.719 22.6292C229.969 22.1766 230.094 21.6467 230.094 21.0394C230.094 20.4202 229.969 19.8903 229.719 19.4497C229.469 18.9972 229.13 18.6519 228.701 18.4137C228.284 18.1756 227.808 18.0565 227.272 18.0565C226.736 18.0565 226.254 18.1756 225.825 18.4137C225.396 18.6519 225.057 18.9972 224.807 19.4497C224.557 19.8903 224.432 20.4202 224.432 21.0394C224.432 21.6467 224.557 22.1766 224.807 22.6292C225.057 23.0817 225.396 23.427 225.825 23.6652C226.254 23.9033 226.736 24.0224 227.272 24.0224Z" fill="#06112D"/>
<defs>
<linearGradient id="paint0_linear_213_583" x1="4" y1="19.3086" x2="43.2694" y2="19.3086" gradientUnits="userSpaceOnUse">
<stop stop-color="#EA3324"/>
<stop offset="1" stop-color="#FD4B2F"/>
</linearGradient>
</defs>
</svg>
