<svg width="212" height="38" viewBox="0 0 212 38" fill="none" xmlns="http://www.w3.org/2000/svg">
<path d="M71.3865 32.0753C70.4823 32.0753 69.6876 31.9663 68.9752 31.7485C68.2354 31.5307 67.6873 31.2311 67.1119 30.8499C66.6187 30.4687 66.1529 30.0602 65.8241 29.5701C65.4952 29.0799 65.1938 28.617 64.9746 28.0997L68.2902 26.7109C68.619 27.4461 69.03 27.9363 69.578 28.2903C70.1535 28.617 70.7015 28.8076 71.3865 28.8076C72.0716 28.8076 72.6196 28.6987 73.0306 28.4264C73.4142 28.2086 73.6608 27.8546 73.6608 27.5278C73.6608 27.1466 73.4964 26.8471 73.1676 26.6292C72.8388 26.4114 72.2634 26.1936 71.4687 26.0029L69.4958 25.5673C69.0574 25.4583 68.5916 25.3494 68.1532 25.1316C67.7147 24.9137 67.2489 24.6959 66.9201 24.3419C66.5365 24.0151 66.2351 23.6067 65.9611 23.171C65.7419 22.7353 65.5774 22.2179 65.5774 21.5917C65.5774 20.9109 65.7418 20.3118 66.0159 19.7945C66.2899 19.2771 66.7009 18.8414 67.1941 18.4602C67.6873 18.079 68.3176 17.7794 69.0026 17.6161C69.6876 17.3982 70.4001 17.3438 71.1947 17.3438C72.4826 17.3438 73.6608 17.616 74.7569 18.1334C75.7707 18.6508 76.5654 19.4677 77.0586 20.5841L73.8526 21.864C73.5786 21.2921 73.1676 20.9109 72.6744 20.6931C72.1812 20.4752 71.6605 20.3118 71.1673 20.3118C70.6741 20.3118 70.1535 20.4208 69.7698 20.6386C69.3862 20.8564 69.1396 21.156 69.1396 21.4827C69.1396 21.8095 69.304 22.0546 69.6328 22.2724C69.9616 22.4358 70.4275 22.5992 70.9755 22.7898L73.1128 23.3072C74.5103 23.6339 75.5789 24.2057 76.2639 24.941C76.949 25.6762 77.2778 26.5748 77.2778 27.5823C77.2778 28.2086 77.1682 28.7532 76.8394 29.325C76.5654 29.8969 76.1543 30.3325 75.6611 30.7954C75.1679 31.2311 74.5377 31.5307 73.7978 31.803C73.0854 31.9663 72.2908 32.0753 71.3865 32.0753Z" fill="#030326"/>
<path d="M89.8003 29.9514C89.4715 30.5233 88.9509 31.0134 88.211 31.4491C87.4712 31.8303 86.6218 32.0754 85.5531 32.0754C84.6489 32.0754 83.7994 31.912 83.0322 31.5035C82.265 31.0951 81.5251 30.605 80.8949 30.0059C80.2647 29.3251 79.7714 28.6171 79.4426 27.7186C79.1138 26.82 78.8672 25.8124 78.8672 24.7505C78.8672 23.6885 79.0316 22.681 79.4426 21.7824C79.7714 20.8838 80.2921 20.0941 80.8949 19.4406C81.5251 18.7598 82.1827 18.2697 83.0322 17.9429C83.8268 17.5617 84.6763 17.3711 85.5531 17.3711C86.6218 17.3711 87.526 17.5889 88.211 17.9974C88.9509 18.3786 89.6085 19.0594 90.0195 19.7401V17.3983H93.5269V37.712H89.8003V29.9514ZM86.3203 28.6444C86.8136 28.6444 87.2794 28.5355 87.7178 28.3721C88.1562 28.2087 88.5672 27.9364 88.8961 27.5824C89.2249 27.2556 89.5263 26.8472 89.7455 26.357C89.9647 25.8397 90.0743 25.2951 90.0743 24.6688C90.0743 24.0425 89.9647 23.4979 89.7455 22.9805C89.5263 22.4631 89.2523 22.0819 88.8961 21.7552C88.5672 21.4284 88.1562 21.1289 87.7178 20.9655C87.2794 20.8021 86.8136 20.6932 86.3203 20.6932C85.8271 20.6932 85.3613 20.8021 84.9229 20.9655C84.4844 21.1289 84.0734 21.4012 83.7446 21.7552C83.4158 22.0819 83.1144 22.4904 82.8952 22.9805C82.676 23.4707 82.5664 23.988 82.5664 24.6143C82.5664 25.2406 82.676 25.7308 82.8952 26.2481C83.1144 26.7655 83.3884 27.1467 83.7446 27.4735C84.0734 27.8002 84.4844 28.0998 84.9229 28.2632C85.3613 28.5355 85.7997 28.6444 86.3203 28.6444Z" fill="#030326"/>
<path d="M106.208 29.4339C105.77 30.1692 105.194 30.8227 104.235 31.449C103.495 31.8847 102.646 32.0753 101.714 32.0753C99.9604 32.0753 98.6726 31.5034 97.7683 30.4415C96.9189 29.3795 96.4805 27.9363 96.4805 26.1936V17.3438H100.207V25.7306C100.207 26.7382 100.426 27.4734 100.892 27.9091C101.331 28.4264 101.961 28.6443 102.81 28.6443C103.303 28.6443 103.769 28.5353 104.153 28.3175C104.536 28.0997 104.893 27.8001 105.167 27.4189C105.441 27.0377 105.66 26.6292 105.797 26.1391C105.961 25.6217 106.016 25.1316 106.016 24.5597V17.3438H109.743V32.0208H106.235L106.208 29.4339Z" fill="#030326"/>
<path d="M121.254 29.841C120.679 30.5762 120.185 31.0664 119.555 31.4748C118.925 31.8833 118.021 32.1011 117.062 32.1011C116.322 32.1011 115.664 31.9922 115.034 31.7743C114.404 31.5565 113.856 31.2025 113.39 30.8213C112.924 30.4401 112.54 29.9227 112.266 29.3236C111.992 28.7246 111.883 28.0983 111.883 27.4175C111.883 26.6823 111.992 26.0832 112.321 25.5114C112.595 24.9396 113.006 24.4494 113.499 24.041C113.993 23.6325 114.623 23.3058 115.308 23.0879C115.993 22.8701 116.76 22.7612 117.555 22.7612C118.459 22.7612 119.199 22.8156 119.802 22.979C120.377 23.0879 120.87 23.2513 121.254 23.4147V22.979C121.254 22.2438 120.98 21.6447 120.35 21.1818C119.774 20.6644 119.062 20.4466 118.158 20.4466C116.87 20.4466 115.801 21.0184 114.897 22.0804L112.184 20.2288C113.636 18.3771 115.692 17.4785 118.213 17.4785C120.35 17.4785 121.994 17.9959 123.117 18.9762C124.241 19.9837 124.816 21.4269 124.816 23.4692V32.21H121.144V29.8682L121.254 29.841ZM121.254 26.0288C120.816 25.8109 120.35 25.6476 119.911 25.5114C119.473 25.3753 118.952 25.348 118.377 25.348C117.473 25.348 116.788 25.5114 116.349 25.9199C115.856 26.3011 115.609 26.764 115.609 27.3086C115.609 27.8532 115.829 28.3161 116.294 28.6429C116.733 28.9696 117.308 29.1603 117.884 29.1603C118.377 29.1603 118.843 29.0513 119.226 28.8879C119.61 28.7246 120.021 28.5067 120.295 28.1527C120.569 27.8804 120.788 27.5264 120.98 27.1452C121.199 26.8185 121.254 26.41 121.254 26.0288Z" fill="#030326"/>
<path d="M127.83 17.3436H131.338V20.1483C131.502 19.8216 131.968 19.1408 132.242 18.8685C132.516 18.5962 132.872 18.3512 133.201 18.1333C133.53 17.9155 133.941 17.7521 134.324 17.6159C134.708 17.4798 135.119 17.4526 135.503 17.4526C135.996 17.4526 136.407 17.507 136.736 17.6159C137.064 17.7249 137.366 17.8338 137.64 17.9972L136.626 21.292C136.407 21.1831 136.188 21.0742 135.886 21.0197C135.585 20.9652 135.256 20.9108 134.872 20.9108C134.379 20.9108 133.913 21.0197 133.475 21.1831C133.091 21.4009 132.68 21.7005 132.406 22.0272C132.132 22.354 131.913 22.8169 131.721 23.2526C131.557 23.77 131.502 24.2601 131.502 24.8319V32.0479H127.775V17.3164L127.83 17.3436Z" fill="#030326"/>
<path d="M151.668 28.3175C151.038 29.4339 150.133 30.3325 149.065 31.0677C147.996 31.7485 146.654 32.1297 145.064 32.1297C143.996 32.1297 143.037 31.9663 142.132 31.5579C141.228 31.1767 140.433 30.6593 139.831 30.0602C139.146 29.3795 138.652 28.5898 138.296 27.7184C137.913 26.8198 137.721 25.8668 137.721 24.7504C137.721 23.7428 137.885 22.7898 138.296 21.8912C138.625 20.9926 139.146 20.2029 139.831 19.5494C140.461 18.8686 141.228 18.3785 142.078 17.97C142.982 17.5888 143.941 17.3438 145.009 17.3438C146.133 17.3438 147.092 17.5071 147.996 17.9156C148.846 18.2968 149.585 18.8142 150.188 19.4132C150.764 20.094 151.202 20.802 151.531 21.7006C151.86 22.5992 151.969 23.5522 151.969 24.5597V25.5128H141.365C141.42 26.0846 141.584 26.5748 141.804 26.9832C142.023 27.3644 142.297 27.7184 142.708 27.9907C143.091 28.263 143.448 28.4264 143.831 28.617C144.215 28.726 144.681 28.7804 145.119 28.7804C145.968 28.7804 146.708 28.617 147.202 28.2086C147.777 27.8274 148.215 27.31 148.489 26.7382L151.668 28.3175ZM148.298 22.9532C148.298 22.7353 148.188 22.4358 148.078 22.109C147.969 21.8367 147.75 21.5372 147.448 21.2649C147.174 20.9926 146.818 20.7475 146.434 20.5841C146.051 20.4208 145.53 20.3118 144.982 20.3118C144.187 20.3118 143.53 20.5297 142.9 20.9926C142.269 21.4283 141.886 22.0546 141.612 22.8987L148.298 22.9532Z" fill="#030326"/>
<path d="M154.271 11.4609H157.998V19.4666C158.327 18.8948 158.848 18.4046 159.587 17.9689C160.327 17.5877 161.231 17.3427 162.245 17.3427C163.15 17.3427 163.999 17.506 164.766 17.9145C165.533 18.3229 166.301 18.8131 166.904 19.4121C167.534 20.0929 168.027 20.8009 168.356 21.7539C168.685 22.6525 168.931 23.66 168.931 24.722C168.931 25.784 168.767 26.7915 168.356 27.6901C168.027 28.5887 167.506 29.3784 166.904 29.9774C166.273 30.6582 165.616 31.1483 164.766 31.4751C163.972 31.8563 163.122 32.0469 162.245 32.0469C161.177 32.0469 160.272 31.8291 159.587 31.4206C158.848 31.0394 158.19 30.3587 157.779 29.569V32.0197H154.271V11.4609ZM161.478 28.6432C161.971 28.6432 162.437 28.5342 162.875 28.3709C163.314 28.2075 163.725 27.9352 164.054 27.5812C164.383 27.2544 164.684 26.846 164.903 26.3558C165.122 25.8385 165.232 25.3483 165.232 24.722C165.232 24.0957 165.122 23.6056 164.903 23.0882C164.684 22.5708 164.41 22.1896 164.054 21.8629C163.725 21.5361 163.314 21.2366 162.875 21.0732C162.437 20.9098 161.971 20.8009 161.478 20.8009C160.985 20.8009 160.519 20.9098 160.081 21.0732C159.642 21.2366 159.231 21.5089 158.902 21.8629C158.573 22.1896 158.272 22.5981 158.053 23.0882C157.834 23.6056 157.779 24.1502 157.779 24.7765C157.779 25.4028 157.888 25.9474 158.053 26.4648C158.272 26.9821 158.546 27.3634 158.902 27.6901C159.231 28.0169 159.642 28.3164 160.081 28.4798C160.519 28.5342 160.957 28.6704 161.478 28.6432Z" fill="#030326"/>
<path d="M177.869 17.3438C178.938 17.3438 179.952 17.5071 180.856 17.9156C181.76 18.324 182.555 18.8142 183.157 19.4132C183.843 20.094 184.336 20.802 184.692 21.755C185.076 22.6536 185.267 23.6611 185.267 24.7231C185.267 25.7851 185.103 26.7926 184.692 27.6912C184.308 28.5898 183.788 29.3795 183.157 29.9785C182.472 30.6593 181.76 31.1494 180.856 31.4762C179.952 31.8574 178.993 32.048 177.869 32.048C176.746 32.048 175.787 31.8847 174.882 31.4762C173.978 31.0677 173.183 30.5776 172.581 29.9785C171.896 29.2978 171.402 28.5898 171.046 27.6912C170.663 26.7926 170.471 25.7851 170.471 24.7231C170.471 23.6611 170.635 22.6536 171.046 21.755C171.43 20.8564 171.95 20.0668 172.581 19.4132C173.266 18.7325 173.978 18.2423 174.882 17.9156C175.787 17.5616 176.746 17.3438 177.869 17.3438ZM177.869 28.6443C178.307 28.6443 178.828 28.5353 179.212 28.372C179.65 28.2086 180.061 27.9363 180.39 27.5823C180.719 27.2555 181.02 26.8471 181.185 26.3569C181.349 25.8396 181.459 25.295 181.459 24.6687C181.459 24.0424 181.349 23.4978 181.185 22.9804C180.965 22.463 180.746 22.0818 180.39 21.755C180.061 21.4283 179.65 21.1287 179.212 20.9654C178.773 20.802 178.307 20.6931 177.869 20.6931C177.376 20.6931 176.91 20.802 176.472 20.9654C176.033 21.1287 175.622 21.401 175.293 21.755C174.965 22.109 174.663 22.4902 174.499 22.9804C174.279 23.4978 174.225 24.0424 174.225 24.6687C174.225 25.295 174.334 25.8396 174.499 26.3569C174.718 26.8743 174.937 27.2555 175.293 27.5823C175.65 27.909 176.033 28.2086 176.472 28.372C176.91 28.5353 177.376 28.6443 177.869 28.6443Z" fill="#030326"/>
<path d="M196.113 29.8955C195.62 30.5762 194.935 31.1753 194.305 31.5293C193.675 31.9105 192.907 32.1011 191.948 32.1011C191.209 32.1011 190.551 31.9922 189.921 31.7743C189.29 31.5565 188.742 31.2025 188.277 30.8213C187.811 30.4401 187.427 29.9227 187.153 29.3236C186.879 28.7518 186.77 28.0983 186.77 27.4175C186.77 26.6823 186.879 26.0832 187.208 25.5114C187.482 24.9396 187.893 24.4494 188.386 24.041C188.879 23.6325 189.51 23.3058 190.195 23.0879C190.88 22.8701 191.647 22.7612 192.442 22.7612C193.346 22.7612 194.086 22.8156 194.688 22.979C195.264 23.0879 195.757 23.2513 196.141 23.4147V22.979C196.141 22.2438 195.867 21.6447 195.237 21.1818C194.661 20.6644 193.949 20.4466 193.044 20.4466C191.757 20.4466 190.688 21.0184 189.784 22.0804L187.071 20.2288C188.523 18.3771 190.578 17.4785 193.099 17.4785C195.237 17.4785 196.881 17.9959 198.004 18.9762C199.128 19.9837 199.703 21.4269 199.703 23.4692V32.21H196.031L196.113 29.8955ZM196.113 26.0288C195.675 25.8109 195.209 25.6476 194.771 25.5114C194.332 25.3753 193.812 25.348 193.236 25.348C192.332 25.348 191.647 25.5114 191.209 25.9199C190.715 26.3011 190.469 26.764 190.469 27.3086C190.469 27.8532 190.688 28.3161 191.154 28.6429C191.592 28.9696 192.168 29.1603 192.743 29.1603C193.236 29.1603 193.702 29.0513 194.086 28.8879C194.469 28.7246 194.88 28.5067 195.154 28.1527C195.428 27.8804 195.648 27.5264 195.839 27.1452C196.059 26.8185 196.113 26.41 196.113 26.0288Z" fill="#030326"/>
<path d="M204.005 20.9908H201.594V17.8593H204.005V13.6387H207.732V17.8321H211.102V20.9908H207.732V26.4641C207.732 26.7908 207.786 27.0904 207.841 27.3627C207.896 27.635 208.006 27.88 208.225 28.0979C208.499 28.4247 208.855 28.5336 209.348 28.5336C209.677 28.5336 209.924 28.4791 210.143 28.4247C210.307 28.3702 210.527 28.2613 210.718 28.1523L211.787 31.3927C211.349 31.6106 210.883 31.7195 210.39 31.8284C209.896 31.9373 209.321 31.9918 208.745 31.9918C208.06 31.9918 207.403 31.8829 206.882 31.665C206.307 31.4472 205.868 31.1477 205.485 30.7664C204.58 29.9223 204.142 28.697 204.142 27.0631V20.9908H204.005Z" fill="#030326"/>
<path d="M0 16.0117L9.48084 32.0775H28.3329L18.9343 16.0117H0Z" fill="url(#paint0_linear_213_741)"/>
<path d="M40.7991 16.0117L31.373 32.0775H47.2658L56.6918 16.0117H40.7991Z" fill="#007BFF"/>
<path d="M9.48242 32.0771H28.3345L37.8154 16.0113L28.3345 0L9.48242 32.0771Z" fill="#007BFF"/>
<defs>
<linearGradient id="paint0_linear_213_741" x1="7.51181" y1="15.8304" x2="14.0953" y2="32.1063" gradientUnits="userSpaceOnUse">
<stop stop-color="#2C7FFF"/>
<stop offset="1" stop-color="#0741D2" stop-opacity="0.98"/>
</linearGradient>
</defs>
</svg>
